<?xml version="1.0" encoding="UTF-8"?>
<!DOCTYPE svg PUBLIC "-//W3C//DTD SVG 1.1//EN" "http://www.w3.org/Graphics/SVG/1.1/DTD/svg11.dtd">
<svg xmlns="http://www.w3.org/2000/svg" version="1.1" width="290px" height="290px" style="shape-rendering:geometricPrecision; text-rendering:geometricPrecision; image-rendering:optimizeQuality; fill-rule:evenodd; clip-rule:evenodd" xmlns:xlink="http://www.w3.org/1999/xlink">
<g><path style="opacity:1" fill="#fefffe" d="M -0.5,-0.5 C 96.1667,-0.5 192.833,-0.5 289.5,-0.5C 289.5,96.1667 289.5,192.833 289.5,289.5C 192.833,289.5 96.1667,289.5 -0.5,289.5C -0.5,192.833 -0.5,96.1667 -0.5,-0.5 Z"/></g>
<g><path style="opacity:1" fill="#000000" d="M 39.5,39.5 C 62.8333,39.5 86.1667,39.5 109.5,39.5C 109.5,62.8333 109.5,86.1667 109.5,109.5C 86.1667,109.5 62.8333,109.5 39.5,109.5C 39.5,86.1667 39.5,62.8333 39.5,39.5 Z"/></g>
<g><path style="opacity:1" fill="#000000" d="M 119.5,39.5 C 122.833,39.5 126.167,39.5 129.5,39.5C 129.5,42.8333 129.5,46.1667 129.5,49.5C 126.167,49.5 122.833,49.5 119.5,49.5C 119.5,46.1667 119.5,42.8333 119.5,39.5 Z"/></g>
<g><path style="opacity:1" fill="#000000" d="M 159.5,69.5 C 159.5,66.1667 159.5,62.8333 159.5,59.5C 156.167,59.5 152.833,59.5 149.5,59.5C 149.5,56.1667 149.5,52.8333 149.5,49.5C 146.167,49.5 142.833,49.5 139.5,49.5C 139.5,46.1667 139.5,42.8333 139.5,39.5C 149.5,39.5 159.5,39.5 169.5,39.5C 169.5,49.5 169.5,59.5 169.5,69.5C 166.167,69.5 162.833,69.5 159.5,69.5 Z"/></g>
<g><path style="opacity:1" fill="#000000" d="M 179.5,39.5 C 202.833,39.5 226.167,39.5 249.5,39.5C 249.5,62.8333 249.5,86.1667 249.5,109.5C 226.167,109.5 202.833,109.5 179.5,109.5C 179.5,86.1667 179.5,62.8333 179.5,39.5 Z"/></g>
<g><path style="opacity:1" fill="#fefffe" d="M 49.5,49.5 C 66.1667,49.5 82.8333,49.5 99.5,49.5C 99.5,66.1667 99.5,82.8333 99.5,99.5C 82.8333,99.5 66.1667,99.5 49.5,99.5C 49.5,82.8333 49.5,66.1667 49.5,49.5 Z"/></g>
<g><path style="opacity:1" fill="#fefffe" d="M 189.5,49.5 C 206.167,49.5 222.833,49.5 239.5,49.5C 239.5,66.1667 239.5,82.8333 239.5,99.5C 222.833,99.5 206.167,99.5 189.5,99.5C 189.5,82.8333 189.5,66.1667 189.5,49.5 Z"/></g>
<g><path style="opacity:1" fill="#000000" d="M 59.5,59.5 C 69.5,59.5 79.5,59.5 89.5,59.5C 89.5,69.5 89.5,79.5 89.5,89.5C 79.5,89.5 69.5,89.5 59.5,89.5C 59.5,79.5 59.5,69.5 59.5,59.5 Z"/></g>
<g><path style="opacity:1" fill="#000000" d="M 139.5,69.5 C 132.833,69.5 126.167,69.5 119.5,69.5C 119.5,66.1667 119.5,62.8333 119.5,59.5C 126.167,59.5 132.833,59.5 139.5,59.5C 139.5,62.8333 139.5,66.1667 139.5,69.5 Z"/></g>
<g><path style="opacity:1" fill="#000000" d="M 199.5,59.5 C 209.5,59.5 219.5,59.5 229.5,59.5C 229.5,69.5 229.5,79.5 229.5,89.5C 219.5,89.5 209.5,89.5 199.5,89.5C 199.5,79.5 199.5,69.5 199.5,59.5 Z"/></g>
<g><path style="opacity:1" fill="#000000" d="M 139.5,69.5 C 146.167,69.5 152.833,69.5 159.5,69.5C 159.5,72.8333 159.5,76.1667 159.5,79.5C 162.833,79.5 166.167,79.5 169.5,79.5C 169.5,82.8333 169.5,86.1667 169.5,89.5C 159.5,89.5 149.5,89.5 139.5,89.5C 139.5,82.8333 139.5,76.1667 139.5,69.5 Z"/></g>
<g><path style="opacity:1" fill="#000000" d="M 129.5,109.5 C 126.167,109.5 122.833,109.5 119.5,109.5C 119.5,102.833 119.5,96.1667 119.5,89.5C 122.833,89.5 126.167,89.5 129.5,89.5C 129.5,96.1667 129.5,102.833 129.5,109.5 Z"/></g>
<g><path style="opacity:1" fill="#000000" d="M 149.5,129.5 C 146.167,129.5 142.833,129.5 139.5,129.5C 139.5,139.5 139.5,149.5 139.5,159.5C 136.167,159.5 132.833,159.5 129.5,159.5C 129.5,142.833 129.5,126.167 129.5,109.5C 132.833,109.5 136.167,109.5 139.5,109.5C 139.5,106.167 139.5,102.833 139.5,99.5C 142.833,99.5 146.167,99.5 149.5,99.5C 149.5,109.5 149.5,119.5 149.5,129.5 Z"/></g>
<g><path style="opacity:1" fill="#000000" d="M 159.5,99.5 C 162.833,99.5 166.167,99.5 169.5,99.5C 169.5,102.833 169.5,106.167 169.5,109.5C 166.167,109.5 162.833,109.5 159.5,109.5C 159.5,106.167 159.5,102.833 159.5,99.5 Z"/></g>
<g><path style="opacity:1" fill="#000000" d="M 39.5,119.5 C 42.8333,119.5 46.1667,119.5 49.5,119.5C 49.5,122.833 49.5,126.167 49.5,129.5C 46.1667,129.5 42.8333,129.5 39.5,129.5C 39.5,126.167 39.5,122.833 39.5,119.5 Z"/></g>
<g><path style="opacity:1" fill="#000000" d="M 59.5,119.5 C 62.8333,119.5 66.1667,119.5 69.5,119.5C 69.5,122.833 69.5,126.167 69.5,129.5C 66.1667,129.5 62.8333,129.5 59.5,129.5C 59.5,126.167 59.5,122.833 59.5,119.5 Z"/></g>
<g><path style="opacity:1" fill="#000000" d="M 109.5,139.5 C 109.5,136.167 109.5,132.833 109.5,129.5C 106.167,129.5 102.833,129.5 99.5,129.5C 99.5,126.167 99.5,122.833 99.5,119.5C 106.167,119.5 112.833,119.5 119.5,119.5C 119.5,126.167 119.5,132.833 119.5,139.5C 116.167,139.5 112.833,139.5 109.5,139.5 Z"/></g>
<g><path style="opacity:1" fill="#000000" d="M 149.5,129.5 C 152.833,129.5 156.167,129.5 159.5,129.5C 159.5,126.167 159.5,122.833 159.5,119.5C 162.833,119.5 166.167,119.5 169.5,119.5C 169.5,126.167 169.5,132.833 169.5,139.5C 172.833,139.5 176.167,139.5 179.5,139.5C 179.5,146.167 179.5,152.833 179.5,159.5C 172.833,159.5 166.167,159.5 159.5,159.5C 159.5,152.833 159.5,146.167 159.5,139.5C 156.167,139.5 152.833,139.5 149.5,139.5C 149.5,136.167 149.5,132.833 149.5,129.5 Z"/></g>
<g><path style="opacity:1" fill="#000000" d="M 219.5,129.5 C 219.5,132.833 219.5,136.167 219.5,139.5C 216.167,139.5 212.833,139.5 209.5,139.5C 209.5,142.833 209.5,146.167 209.5,149.5C 206.167,149.5 202.833,149.5 199.5,149.5C 199.5,146.167 199.5,142.833 199.5,139.5C 196.167,139.5 192.833,139.5 189.5,139.5C 189.5,132.833 189.5,126.167 189.5,119.5C 192.833,119.5 196.167,119.5 199.5,119.5C 199.5,122.833 199.5,126.167 199.5,129.5C 206.167,129.5 212.833,129.5 219.5,129.5 Z"/></g>
<g><path style="opacity:1" fill="#000000" d="M 219.5,129.5 C 219.5,126.167 219.5,122.833 219.5,119.5C 222.833,119.5 226.167,119.5 229.5,119.5C 229.5,122.833 229.5,126.167 229.5,129.5C 226.167,129.5 222.833,129.5 219.5,129.5 Z"/></g>
<g><path style="opacity:1" fill="#000000" d="M 239.5,119.5 C 242.833,119.5 246.167,119.5 249.5,119.5C 249.5,146.167 249.5,172.833 249.5,199.5C 246.167,199.5 242.833,199.5 239.5,199.5C 239.5,189.5 239.5,179.5 239.5,169.5C 236.167,169.5 232.833,169.5 229.5,169.5C 229.5,166.167 229.5,162.833 229.5,159.5C 232.833,159.5 236.167,159.5 239.5,159.5C 239.5,146.167 239.5,132.833 239.5,119.5 Z"/></g>
<g><path style="opacity:1" fill="#000000" d="M 59.5,149.5 C 59.5,152.833 59.5,156.167 59.5,159.5C 52.8333,159.5 46.1667,159.5 39.5,159.5C 39.5,152.833 39.5,146.167 39.5,139.5C 42.8333,139.5 46.1667,139.5 49.5,139.5C 49.5,142.833 49.5,146.167 49.5,149.5C 52.8333,149.5 56.1667,149.5 59.5,149.5 Z"/></g>
<g><path style="opacity:1" fill="#000000" d="M 69.5,149.5 C 66.1667,149.5 62.8333,149.5 59.5,149.5C 59.5,146.167 59.5,142.833 59.5,139.5C 62.8333,139.5 66.1667,139.5 69.5,139.5C 69.5,142.833 69.5,146.167 69.5,149.5 Z"/></g>
<g><path style="opacity:1" fill="#000000" d="M 109.5,139.5 C 109.5,142.833 109.5,146.167 109.5,149.5C 106.167,149.5 102.833,149.5 99.5,149.5C 99.5,152.833 99.5,156.167 99.5,159.5C 96.1667,159.5 92.8333,159.5 89.5,159.5C 89.5,156.167 89.5,152.833 89.5,149.5C 86.1667,149.5 82.8333,149.5 79.5,149.5C 79.5,146.167 79.5,142.833 79.5,139.5C 89.5,139.5 99.5,139.5 109.5,139.5 Z"/></g>
<g><path style="opacity:1" fill="#fefffe" d="M 219.5,139.5 C 219.5,142.833 219.5,146.167 219.5,149.5C 216.167,149.5 212.833,149.5 209.5,149.5C 209.5,146.167 209.5,142.833 209.5,139.5C 212.833,139.5 216.167,139.5 219.5,139.5 Z"/></g>
<g><path style="opacity:1" fill="#000000" d="M 219.5,139.5 C 222.833,139.5 226.167,139.5 229.5,139.5C 229.5,142.833 229.5,146.167 229.5,149.5C 226.167,149.5 222.833,149.5 219.5,149.5C 219.5,146.167 219.5,142.833 219.5,139.5 Z"/></g>
<g><path style="opacity:1" fill="#000000" d="M 69.5,149.5 C 72.8333,149.5 76.1667,149.5 79.5,149.5C 82.8333,149.5 86.1667,149.5 89.5,149.5C 89.5,152.833 89.5,156.167 89.5,159.5C 89.5,162.833 89.5,166.167 89.5,169.5C 82.8333,169.5 76.1667,169.5 69.5,169.5C 69.5,162.833 69.5,156.167 69.5,149.5 Z"/></g>
<g><path style="opacity:1" fill="#fefffe" d="M 79.5,149.5 C 82.8333,149.5 86.1667,149.5 89.5,149.5C 89.5,152.833 89.5,156.167 89.5,159.5C 86.1667,159.5 82.8333,159.5 79.5,159.5C 79.5,156.167 79.5,152.833 79.5,149.5 Z"/></g>
<g><path style="opacity:1" fill="#000000" d="M 199.5,149.5 C 199.5,152.833 199.5,156.167 199.5,159.5C 202.833,159.5 206.167,159.5 209.5,159.5C 209.5,156.167 209.5,152.833 209.5,149.5C 212.833,149.5 216.167,149.5 219.5,149.5C 219.5,156.167 219.5,162.833 219.5,169.5C 216.167,169.5 212.833,169.5 209.5,169.5C 209.5,176.167 209.5,182.833 209.5,189.5C 206.167,189.5 202.833,189.5 199.5,189.5C 199.5,182.833 199.5,176.167 199.5,169.5C 196.167,169.5 192.833,169.5 189.5,169.5C 189.5,162.833 189.5,156.167 189.5,149.5C 192.833,149.5 196.167,149.5 199.5,149.5 Z"/></g>
<g><path style="opacity:1" fill="#fefffe" d="M 199.5,149.5 C 202.833,149.5 206.167,149.5 209.5,149.5C 209.5,152.833 209.5,156.167 209.5,159.5C 206.167,159.5 202.833,159.5 199.5,159.5C 199.5,156.167 199.5,152.833 199.5,149.5 Z"/></g>
<g><path style="opacity:1" fill="#000000" d="M 99.5,159.5 C 106.167,159.5 112.833,159.5 119.5,159.5C 119.5,162.833 119.5,166.167 119.5,169.5C 112.833,169.5 106.167,169.5 99.5,169.5C 99.5,166.167 99.5,162.833 99.5,159.5 Z"/></g>
<g><path style="opacity:1" fill="#000000" d="M 119.5,169.5 C 122.833,169.5 126.167,169.5 129.5,169.5C 129.5,176.167 129.5,182.833 129.5,189.5C 126.167,189.5 122.833,189.5 119.5,189.5C 119.5,182.833 119.5,176.167 119.5,169.5 Z"/></g>
<g><path style="opacity:1" fill="#000000" d="M 159.5,189.5 C 159.5,196.167 159.5,202.833 159.5,209.5C 152.833,209.5 146.167,209.5 139.5,209.5C 139.5,212.833 139.5,216.167 139.5,219.5C 142.833,219.5 146.167,219.5 149.5,219.5C 149.5,222.833 149.5,226.167 149.5,229.5C 146.167,229.5 142.833,229.5 139.5,229.5C 139.5,232.833 139.5,236.167 139.5,239.5C 142.833,239.5 146.167,239.5 149.5,239.5C 149.5,242.833 149.5,246.167 149.5,249.5C 139.5,249.5 129.5,249.5 119.5,249.5C 119.5,246.167 119.5,242.833 119.5,239.5C 122.833,239.5 126.167,239.5 129.5,239.5C 129.5,236.167 129.5,232.833 129.5,229.5C 126.167,229.5 122.833,229.5 119.5,229.5C 119.5,226.167 119.5,222.833 119.5,219.5C 122.833,219.5 126.167,219.5 129.5,219.5C 129.5,212.833 129.5,206.167 129.5,199.5C 132.833,199.5 136.167,199.5 139.5,199.5C 139.5,189.5 139.5,179.5 139.5,169.5C 142.833,169.5 146.167,169.5 149.5,169.5C 149.5,176.167 149.5,182.833 149.5,189.5C 152.833,189.5 156.167,189.5 159.5,189.5 Z"/></g>
<g><path style="opacity:1" fill="#000000" d="M 179.5,199.5 C 176.167,199.5 172.833,199.5 169.5,199.5C 169.5,196.167 169.5,192.833 169.5,189.5C 166.167,189.5 162.833,189.5 159.5,189.5C 159.5,182.833 159.5,176.167 159.5,169.5C 166.167,169.5 172.833,169.5 179.5,169.5C 179.5,172.833 179.5,176.167 179.5,179.5C 182.833,179.5 186.167,179.5 189.5,179.5C 189.5,182.833 189.5,186.167 189.5,189.5C 186.167,189.5 182.833,189.5 179.5,189.5C 179.5,192.833 179.5,196.167 179.5,199.5 Z"/></g>
<g><path style="opacity:1" fill="#000000" d="M 39.5,179.5 C 62.8333,179.5 86.1667,179.5 109.5,179.5C 109.5,202.833 109.5,226.167 109.5,249.5C 86.1667,249.5 62.8333,249.5 39.5,249.5C 39.5,226.167 39.5,202.833 39.5,179.5 Z"/></g>
<g><path style="opacity:1" fill="#000000" d="M 219.5,189.5 C 219.5,186.167 219.5,182.833 219.5,179.5C 222.833,179.5 226.167,179.5 229.5,179.5C 229.5,182.833 229.5,186.167 229.5,189.5C 226.167,189.5 222.833,189.5 219.5,189.5 Z"/></g>
<g><path style="opacity:1" fill="#fefffe" d="M 49.5,189.5 C 66.1667,189.5 82.8333,189.5 99.5,189.5C 99.5,206.167 99.5,222.833 99.5,239.5C 82.8333,239.5 66.1667,239.5 49.5,239.5C 49.5,222.833 49.5,206.167 49.5,189.5 Z"/></g>
<g><path style="opacity:1" fill="#fefffe" d="M 159.5,189.5 C 162.833,189.5 166.167,189.5 169.5,189.5C 169.5,192.833 169.5,196.167 169.5,199.5C 172.833,199.5 176.167,199.5 179.5,199.5C 179.5,202.833 179.5,206.167 179.5,209.5C 182.833,209.5 186.167,209.5 189.5,209.5C 189.5,212.833 189.5,216.167 189.5,219.5C 182.833,219.5 176.167,219.5 169.5,219.5C 169.5,216.167 169.5,212.833 169.5,209.5C 166.167,209.5 162.833,209.5 159.5,209.5C 159.5,202.833 159.5,196.167 159.5,189.5 Z"/></g>
<g><path style="opacity:1" fill="#000000" d="M 209.5,189.5 C 212.833,189.5 216.167,189.5 219.5,189.5C 219.5,192.833 219.5,196.167 219.5,199.5C 216.167,199.5 212.833,199.5 209.5,199.5C 209.5,196.167 209.5,192.833 209.5,189.5 Z"/></g>
<g><path style="opacity:1" fill="#000000" d="M 59.5,199.5 C 69.5,199.5 79.5,199.5 89.5,199.5C 89.5,209.5 89.5,219.5 89.5,229.5C 79.5,229.5 69.5,229.5 59.5,229.5C 59.5,219.5 59.5,209.5 59.5,199.5 Z"/></g>
<g><path style="opacity:1" fill="#000000" d="M 179.5,199.5 C 182.833,199.5 186.167,199.5 189.5,199.5C 189.5,202.833 189.5,206.167 189.5,209.5C 189.5,206.167 189.5,202.833 189.5,199.5C 186.167,199.5 182.833,199.5 179.5,199.5 Z"/></g>
<g><path style="opacity:1" fill="#000000" d="M 209.5,199.5 C 209.5,206.167 209.5,212.833 209.5,219.5C 212.833,219.5 216.167,219.5 219.5,219.5C 219.5,226.167 219.5,232.833 219.5,239.5C 216.167,239.5 212.833,239.5 209.5,239.5C 209.5,242.833 209.5,246.167 209.5,249.5C 202.833,249.5 196.167,249.5 189.5,249.5C 189.5,242.833 189.5,236.167 189.5,229.5C 192.833,229.5 196.167,229.5 199.5,229.5C 199.5,226.167 199.5,222.833 199.5,219.5C 196.167,219.5 192.833,219.5 189.5,219.5C 189.5,216.167 189.5,212.833 189.5,209.5C 192.833,209.5 196.167,209.5 199.5,209.5C 199.5,206.167 199.5,202.833 199.5,199.5C 202.833,199.5 206.167,199.5 209.5,199.5 Z"/></g>
<g><path style="opacity:1" fill="#fefffe" d="M 159.5,209.5 C 159.5,216.167 159.5,222.833 159.5,229.5C 156.167,229.5 152.833,229.5 149.5,229.5C 149.5,226.167 149.5,222.833 149.5,219.5C 146.167,219.5 142.833,219.5 139.5,219.5C 139.5,216.167 139.5,212.833 139.5,209.5C 146.167,209.5 152.833,209.5 159.5,209.5 Z"/></g>
<g><path style="opacity:1" fill="#000000" d="M 159.5,209.5 C 162.833,209.5 166.167,209.5 169.5,209.5C 169.5,212.833 169.5,216.167 169.5,219.5C 176.167,219.5 182.833,219.5 189.5,219.5C 189.5,222.833 189.5,226.167 189.5,229.5C 186.167,229.5 182.833,229.5 179.5,229.5C 179.5,236.167 179.5,242.833 179.5,249.5C 176.167,249.5 172.833,249.5 169.5,249.5C 169.5,246.167 169.5,242.833 169.5,239.5C 162.833,239.5 156.167,239.5 149.5,239.5C 149.5,236.167 149.5,232.833 149.5,229.5C 152.833,229.5 156.167,229.5 159.5,229.5C 159.5,222.833 159.5,216.167 159.5,209.5 Z"/></g>
<g><path style="opacity:1" fill="#fefffe" d="M 189.5,219.5 C 192.833,219.5 196.167,219.5 199.5,219.5C 199.5,222.833 199.5,226.167 199.5,229.5C 196.167,229.5 192.833,229.5 189.5,229.5C 189.5,226.167 189.5,222.833 189.5,219.5 Z"/></g>
<g><path style="opacity:1" fill="#000000" d="M 229.5,219.5 C 236.167,219.5 242.833,219.5 249.5,219.5C 249.5,222.833 249.5,226.167 249.5,229.5C 242.833,229.5 236.167,229.5 229.5,229.5C 229.5,226.167 229.5,222.833 229.5,219.5 Z"/></g>
<g><path style="opacity:1" fill="#fefffe" d="M 149.5,229.5 C 149.5,232.833 149.5,236.167 149.5,239.5C 146.167,239.5 142.833,239.5 139.5,239.5C 139.5,236.167 139.5,232.833 139.5,229.5C 142.833,229.5 146.167,229.5 149.5,229.5 Z"/></g>
<g><path style="opacity:1" fill="#000000" d="M 219.5,239.5 C 222.833,239.5 226.167,239.5 229.5,239.5C 229.5,242.833 229.5,246.167 229.5,249.5C 226.167,249.5 222.833,249.5 219.5,249.5C 219.5,246.167 219.5,242.833 219.5,239.5 Z"/></g>
<g><path style="opacity:1" fill="#000000" d="M 239.5,239.5 C 242.833,239.5 246.167,239.5 249.5,239.5C 249.5,242.833 249.5,246.167 249.5,249.5C 246.167,249.5 242.833,249.5 239.5,249.5C 239.5,246.167 239.5,242.833 239.5,239.5 Z"/></g>
</svg>
