<?xml version="1.0" encoding="UTF-8"?>
<!DOCTYPE svg PUBLIC "-//W3C//DTD SVG 1.1//EN" "http://www.w3.org/Graphics/SVG/1.1/DTD/svg11.dtd">
<svg xmlns="http://www.w3.org/2000/svg" version="1.1" width="330px" height="330px" style="shape-rendering:geometricPrecision; text-rendering:geometricPrecision; image-rendering:optimizeQuality; fill-rule:evenodd; clip-rule:evenodd" xmlns:xlink="http://www.w3.org/1999/xlink">
<g><path style="opacity:1" fill="#fefffe" d="M -0.5,-0.5 C 109.5,-0.5 219.5,-0.5 329.5,-0.5C 329.5,109.5 329.5,219.5 329.5,329.5C 219.5,329.5 109.5,329.5 -0.5,329.5C -0.5,219.5 -0.5,109.5 -0.5,-0.5 Z"/></g>
<g><path style="opacity:1" fill="#000000" d="M 39.5,39.5 C 62.8333,39.5 86.1667,39.5 109.5,39.5C 109.5,62.8333 109.5,86.1667 109.5,109.5C 86.1667,109.5 62.8333,109.5 39.5,109.5C 39.5,86.1667 39.5,62.8333 39.5,39.5 Z"/></g>
<g><path style="opacity:1" fill="#000000" d="M 139.5,49.5 C 132.833,49.5 126.167,49.5 119.5,49.5C 119.5,46.1667 119.5,42.8333 119.5,39.5C 126.167,39.5 132.833,39.5 139.5,39.5C 139.5,42.8333 139.5,46.1667 139.5,49.5 Z"/></g>
<g><path style="opacity:1" fill="#000000" d="M 159.5,79.5 C 166.167,79.5 172.833,79.5 179.5,79.5C 179.5,72.8333 179.5,66.1667 179.5,59.5C 176.167,59.5 172.833,59.5 169.5,59.5C 169.5,62.8333 169.5,66.1667 169.5,69.5C 166.167,69.5 162.833,69.5 159.5,69.5C 159.5,59.5 159.5,49.5 159.5,39.5C 162.833,39.5 166.167,39.5 169.5,39.5C 169.5,42.8333 169.5,46.1667 169.5,49.5C 172.833,49.5 176.167,49.5 179.5,49.5C 179.5,46.1667 179.5,42.8333 179.5,39.5C 189.5,39.5 199.5,39.5 209.5,39.5C 209.5,42.8333 209.5,46.1667 209.5,49.5C 202.833,49.5 196.167,49.5 189.5,49.5C 189.5,52.8333 189.5,56.1667 189.5,59.5C 196.167,59.5 202.833,59.5 209.5,59.5C 209.5,62.8333 209.5,66.1667 209.5,69.5C 206.167,69.5 202.833,69.5 199.5,69.5C 199.5,72.8333 199.5,76.1667 199.5,79.5C 196.167,79.5 192.833,79.5 189.5,79.5C 189.5,82.8333 189.5,86.1667 189.5,89.5C 179.5,89.5 169.5,89.5 159.5,89.5C 159.5,86.1667 159.5,82.8333 159.5,79.5 Z"/></g>
<g><path style="opacity:1" fill="#000000" d="M 219.5,39.5 C 242.833,39.5 266.167,39.5 289.5,39.5C 289.5,62.8333 289.5,86.1667 289.5,109.5C 266.167,109.5 242.833,109.5 219.5,109.5C 219.5,86.1667 219.5,62.8333 219.5,39.5 Z"/></g>
<g><path style="opacity:1" fill="#fefffe" d="M 49.5,49.5 C 66.1667,49.5 82.8333,49.5 99.5,49.5C 99.5,66.1667 99.5,82.8333 99.5,99.5C 82.8333,99.5 66.1667,99.5 49.5,99.5C 49.5,82.8333 49.5,66.1667 49.5,49.5 Z"/></g>
<g><path style="opacity:1" fill="#000000" d="M 139.5,49.5 C 142.833,49.5 146.167,49.5 149.5,49.5C 149.5,56.1667 149.5,62.8333 149.5,69.5C 146.167,69.5 142.833,69.5 139.5,69.5C 139.5,72.8333 139.5,76.1667 139.5,79.5C 136.167,79.5 132.833,79.5 129.5,79.5C 129.5,76.1667 129.5,72.8333 129.5,69.5C 126.167,69.5 122.833,69.5 119.5,69.5C 119.5,66.1667 119.5,62.8333 119.5,59.5C 126.167,59.5 132.833,59.5 139.5,59.5C 139.5,56.1667 139.5,52.8333 139.5,49.5 Z"/></g>
<g><path style="opacity:1" fill="#fefffe" d="M 229.5,49.5 C 246.167,49.5 262.833,49.5 279.5,49.5C 279.5,66.1667 279.5,82.8333 279.5,99.5C 262.833,99.5 246.167,99.5 229.5,99.5C 229.5,82.8333 229.5,66.1667 229.5,49.5 Z"/></g>
<g><path style="opacity:1" fill="#000000" d="M 59.5,59.5 C 69.5,59.5 79.5,59.5 89.5,59.5C 89.5,69.5 89.5,79.5 89.5,89.5C 79.5,89.5 69.5,89.5 59.5,89.5C 59.5,79.5 59.5,69.5 59.5,59.5 Z"/></g>
<g><path style="opacity:1" fill="#fefffe" d="M 159.5,79.5 C 159.5,76.1667 159.5,72.8333 159.5,69.5C 162.833,69.5 166.167,69.5 169.5,69.5C 169.5,66.1667 169.5,62.8333 169.5,59.5C 172.833,59.5 176.167,59.5 179.5,59.5C 179.5,66.1667 179.5,72.8333 179.5,79.5C 172.833,79.5 166.167,79.5 159.5,79.5 Z"/></g>
<g><path style="opacity:1" fill="#000000" d="M 239.5,59.5 C 249.5,59.5 259.5,59.5 269.5,59.5C 269.5,69.5 269.5,79.5 269.5,89.5C 259.5,89.5 249.5,89.5 239.5,89.5C 239.5,79.5 239.5,69.5 239.5,59.5 Z"/></g>
<g><path style="opacity:1" fill="#fefffe" d="M 149.5,69.5 C 149.5,72.8333 149.5,76.1667 149.5,79.5C 146.167,79.5 142.833,79.5 139.5,79.5C 139.5,76.1667 139.5,72.8333 139.5,69.5C 142.833,69.5 146.167,69.5 149.5,69.5 Z"/></g>
<g><path style="opacity:1" fill="#000000" d="M 149.5,69.5 C 152.833,69.5 156.167,69.5 159.5,69.5C 159.5,72.8333 159.5,76.1667 159.5,79.5C 156.167,79.5 152.833,79.5 149.5,79.5C 149.5,76.1667 149.5,72.8333 149.5,69.5 Z"/></g>
<g><path style="opacity:1" fill="#000000" d="M 139.5,79.5 C 142.833,79.5 146.167,79.5 149.5,79.5C 149.5,82.8333 149.5,86.1667 149.5,89.5C 146.167,89.5 142.833,89.5 139.5,89.5C 139.5,86.1667 139.5,82.8333 139.5,79.5 Z"/></g>
<g><path style="opacity:1" fill="#000000" d="M 139.5,89.5 C 139.5,92.8333 139.5,96.1667 139.5,99.5C 136.167,99.5 132.833,99.5 129.5,99.5C 129.5,102.833 129.5,106.167 129.5,109.5C 126.167,109.5 122.833,109.5 119.5,109.5C 119.5,102.833 119.5,96.1667 119.5,89.5C 126.167,89.5 132.833,89.5 139.5,89.5 Z"/></g>
<g><path style="opacity:1" fill="#fefffe" d="M 139.5,99.5 C 139.5,102.833 139.5,106.167 139.5,109.5C 136.167,109.5 132.833,109.5 129.5,109.5C 129.5,106.167 129.5,102.833 129.5,99.5C 132.833,99.5 136.167,99.5 139.5,99.5 Z"/></g>
<g><path style="opacity:1" fill="#000000" d="M 139.5,99.5 C 142.833,99.5 146.167,99.5 149.5,99.5C 149.5,102.833 149.5,106.167 149.5,109.5C 152.833,109.5 156.167,109.5 159.5,109.5C 159.5,106.167 159.5,102.833 159.5,99.5C 162.833,99.5 166.167,99.5 169.5,99.5C 169.5,106.167 169.5,112.833 169.5,119.5C 172.833,119.5 176.167,119.5 179.5,119.5C 179.5,112.833 179.5,106.167 179.5,99.5C 182.833,99.5 186.167,99.5 189.5,99.5C 189.5,106.167 189.5,112.833 189.5,119.5C 192.833,119.5 196.167,119.5 199.5,119.5C 199.5,122.833 199.5,126.167 199.5,129.5C 202.833,129.5 206.167,129.5 209.5,129.5C 209.5,132.833 209.5,136.167 209.5,139.5C 206.167,139.5 202.833,139.5 199.5,139.5C 199.5,142.833 199.5,146.167 199.5,149.5C 196.167,149.5 192.833,149.5 189.5,149.5C 189.5,146.167 189.5,142.833 189.5,139.5C 182.833,139.5 176.167,139.5 169.5,139.5C 169.5,136.167 169.5,132.833 169.5,129.5C 166.167,129.5 162.833,129.5 159.5,129.5C 159.5,126.167 159.5,122.833 159.5,119.5C 156.167,119.5 152.833,119.5 149.5,119.5C 149.5,122.833 149.5,126.167 149.5,129.5C 146.167,129.5 142.833,129.5 139.5,129.5C 139.5,126.167 139.5,122.833 139.5,119.5C 136.167,119.5 132.833,119.5 129.5,119.5C 129.5,116.167 129.5,112.833 129.5,109.5C 132.833,109.5 136.167,109.5 139.5,109.5C 139.5,106.167 139.5,102.833 139.5,99.5 Z"/></g>
<g><path style="opacity:1" fill="#000000" d="M 199.5,119.5 C 199.5,112.833 199.5,106.167 199.5,99.5C 202.833,99.5 206.167,99.5 209.5,99.5C 209.5,106.167 209.5,112.833 209.5,119.5C 206.167,119.5 202.833,119.5 199.5,119.5 Z"/></g>
<g><path style="opacity:1" fill="#000000" d="M 39.5,119.5 C 42.8333,119.5 46.1667,119.5 49.5,119.5C 49.5,122.833 49.5,126.167 49.5,129.5C 46.1667,129.5 42.8333,129.5 39.5,129.5C 39.5,126.167 39.5,122.833 39.5,119.5 Z"/></g>
<g><path style="opacity:1" fill="#000000" d="M 99.5,129.5 C 99.5,132.833 99.5,136.167 99.5,139.5C 96.1667,139.5 92.8333,139.5 89.5,139.5C 89.5,142.833 89.5,146.167 89.5,149.5C 92.8333,149.5 96.1667,149.5 99.5,149.5C 99.5,152.833 99.5,156.167 99.5,159.5C 102.833,159.5 106.167,159.5 109.5,159.5C 109.5,162.833 109.5,166.167 109.5,169.5C 106.167,169.5 102.833,169.5 99.5,169.5C 99.5,172.833 99.5,176.167 99.5,179.5C 96.1667,179.5 92.8333,179.5 89.5,179.5C 89.5,176.167 89.5,172.833 89.5,169.5C 86.1667,169.5 82.8333,169.5 79.5,169.5C 79.5,172.833 79.5,176.167 79.5,179.5C 76.1667,179.5 72.8333,179.5 69.5,179.5C 69.5,186.167 69.5,192.833 69.5,199.5C 66.1667,199.5 62.8333,199.5 59.5,199.5C 59.5,196.167 59.5,192.833 59.5,189.5C 52.8333,189.5 46.1667,189.5 39.5,189.5C 39.5,186.167 39.5,182.833 39.5,179.5C 42.8333,179.5 46.1667,179.5 49.5,179.5C 49.5,172.833 49.5,166.167 49.5,159.5C 46.1667,159.5 42.8333,159.5 39.5,159.5C 39.5,156.167 39.5,152.833 39.5,149.5C 46.1667,149.5 52.8333,149.5 59.5,149.5C 59.5,139.5 59.5,129.5 59.5,119.5C 62.8333,119.5 66.1667,119.5 69.5,119.5C 69.5,126.167 69.5,132.833 69.5,139.5C 72.8333,139.5 76.1667,139.5 79.5,139.5C 79.5,136.167 79.5,132.833 79.5,129.5C 86.1667,129.5 92.8333,129.5 99.5,129.5 Z"/></g>
<g><path style="opacity:1" fill="#000000" d="M 139.5,129.5 C 139.5,132.833 139.5,136.167 139.5,139.5C 129.5,139.5 119.5,139.5 109.5,139.5C 109.5,136.167 109.5,132.833 109.5,129.5C 106.167,129.5 102.833,129.5 99.5,129.5C 99.5,126.167 99.5,122.833 99.5,119.5C 106.167,119.5 112.833,119.5 119.5,119.5C 119.5,122.833 119.5,126.167 119.5,129.5C 126.167,129.5 132.833,129.5 139.5,129.5 Z"/></g>
<g><path style="opacity:1" fill="#fefffe" d="M 209.5,139.5 C 209.5,146.167 209.5,152.833 209.5,159.5C 202.833,159.5 196.167,159.5 189.5,159.5C 189.5,166.167 189.5,172.833 189.5,179.5C 182.833,179.5 176.167,179.5 169.5,179.5C 169.5,176.167 169.5,172.833 169.5,169.5C 172.833,169.5 176.167,169.5 179.5,169.5C 179.5,162.833 179.5,156.167 179.5,149.5C 169.5,149.5 159.5,149.5 149.5,149.5C 149.5,146.167 149.5,142.833 149.5,139.5C 146.167,139.5 142.833,139.5 139.5,139.5C 139.5,136.167 139.5,132.833 139.5,129.5C 142.833,129.5 146.167,129.5 149.5,129.5C 149.5,126.167 149.5,122.833 149.5,119.5C 152.833,119.5 156.167,119.5 159.5,119.5C 159.5,122.833 159.5,126.167 159.5,129.5C 162.833,129.5 166.167,129.5 169.5,129.5C 169.5,132.833 169.5,136.167 169.5,139.5C 176.167,139.5 182.833,139.5 189.5,139.5C 189.5,142.833 189.5,146.167 189.5,149.5C 192.833,149.5 196.167,149.5 199.5,149.5C 199.5,146.167 199.5,142.833 199.5,139.5C 202.833,139.5 206.167,139.5 209.5,139.5 Z"/></g>
<g><path style="opacity:1" fill="#000000" d="M 239.5,139.5 C 232.833,139.5 226.167,139.5 219.5,139.5C 219.5,136.167 219.5,132.833 219.5,129.5C 222.833,129.5 226.167,129.5 229.5,129.5C 229.5,126.167 229.5,122.833 229.5,119.5C 232.833,119.5 236.167,119.5 239.5,119.5C 239.5,126.167 239.5,132.833 239.5,139.5 Z"/></g>
<g><path style="opacity:1" fill="#000000" d="M 269.5,129.5 C 266.167,129.5 262.833,129.5 259.5,129.5C 259.5,126.167 259.5,122.833 259.5,119.5C 262.833,119.5 266.167,119.5 269.5,119.5C 269.5,122.833 269.5,126.167 269.5,129.5 Z"/></g>
<g><path style="opacity:1" fill="#000000" d="M 279.5,149.5 C 279.5,146.167 279.5,142.833 279.5,139.5C 276.167,139.5 272.833,139.5 269.5,139.5C 269.5,136.167 269.5,132.833 269.5,129.5C 272.833,129.5 276.167,129.5 279.5,129.5C 279.5,126.167 279.5,122.833 279.5,119.5C 282.833,119.5 286.167,119.5 289.5,119.5C 289.5,129.5 289.5,139.5 289.5,149.5C 286.167,149.5 282.833,149.5 279.5,149.5 Z"/></g>
<g><path style="opacity:1" fill="#fefffe" d="M 99.5,129.5 C 102.833,129.5 106.167,129.5 109.5,129.5C 109.5,132.833 109.5,136.167 109.5,139.5C 106.167,139.5 102.833,139.5 99.5,139.5C 99.5,136.167 99.5,132.833 99.5,129.5 Z"/></g>
<g><path style="opacity:1" fill="#000000" d="M 259.5,129.5 C 259.5,132.833 259.5,136.167 259.5,139.5C 262.833,139.5 266.167,139.5 269.5,139.5C 269.5,142.833 269.5,146.167 269.5,149.5C 266.167,149.5 262.833,149.5 259.5,149.5C 259.5,159.5 259.5,169.5 259.5,179.5C 256.167,179.5 252.833,179.5 249.5,179.5C 249.5,169.5 249.5,159.5 249.5,149.5C 246.167,149.5 242.833,149.5 239.5,149.5C 239.5,146.167 239.5,142.833 239.5,139.5C 242.833,139.5 246.167,139.5 249.5,139.5C 249.5,136.167 249.5,132.833 249.5,129.5C 252.833,129.5 256.167,129.5 259.5,129.5 Z"/></g>
<g><path style="opacity:1" fill="#fefffe" d="M 259.5,129.5 C 262.833,129.5 266.167,129.5 269.5,129.5C 269.5,132.833 269.5,136.167 269.5,139.5C 266.167,139.5 262.833,139.5 259.5,139.5C 259.5,136.167 259.5,132.833 259.5,129.5 Z"/></g>
<g><path style="opacity:1" fill="#fefffe" d="M 99.5,139.5 C 99.5,142.833 99.5,146.167 99.5,149.5C 96.1667,149.5 92.8333,149.5 89.5,149.5C 89.5,146.167 89.5,142.833 89.5,139.5C 92.8333,139.5 96.1667,139.5 99.5,139.5 Z"/></g>
<g><path style="opacity:1" fill="#000000" d="M 99.5,139.5 C 102.833,139.5 106.167,139.5 109.5,139.5C 109.5,142.833 109.5,146.167 109.5,149.5C 106.167,149.5 102.833,149.5 99.5,149.5C 99.5,146.167 99.5,142.833 99.5,139.5 Z"/></g>
<g><path style="opacity:1" fill="#fefffe" d="M 109.5,139.5 C 119.5,139.5 129.5,139.5 139.5,139.5C 142.833,139.5 146.167,139.5 149.5,139.5C 149.5,142.833 149.5,146.167 149.5,149.5C 149.5,152.833 149.5,156.167 149.5,159.5C 142.833,159.5 136.167,159.5 129.5,159.5C 129.5,162.833 129.5,166.167 129.5,169.5C 139.5,169.5 149.5,169.5 159.5,169.5C 159.5,176.167 159.5,182.833 159.5,189.5C 156.167,189.5 152.833,189.5 149.5,189.5C 149.5,192.833 149.5,196.167 149.5,199.5C 156.167,199.5 162.833,199.5 169.5,199.5C 169.5,206.167 169.5,212.833 169.5,219.5C 176.167,219.5 182.833,219.5 189.5,219.5C 189.5,229.5 189.5,239.5 189.5,249.5C 196.167,249.5 202.833,249.5 209.5,249.5C 209.5,252.833 209.5,256.167 209.5,259.5C 206.167,259.5 202.833,259.5 199.5,259.5C 199.5,262.833 199.5,266.167 199.5,269.5C 196.167,269.5 192.833,269.5 189.5,269.5C 189.5,266.167 189.5,262.833 189.5,259.5C 182.833,259.5 176.167,259.5 169.5,259.5C 169.5,256.167 169.5,252.833 169.5,249.5C 172.833,249.5 176.167,249.5 179.5,249.5C 179.5,242.833 179.5,236.167 179.5,229.5C 176.167,229.5 172.833,229.5 169.5,229.5C 169.5,232.833 169.5,236.167 169.5,239.5C 162.833,239.5 156.167,239.5 149.5,239.5C 149.5,236.167 149.5,232.833 149.5,229.5C 152.833,229.5 156.167,229.5 159.5,229.5C 159.5,226.167 159.5,222.833 159.5,219.5C 156.167,219.5 152.833,219.5 149.5,219.5C 149.5,216.167 149.5,212.833 149.5,209.5C 146.167,209.5 142.833,209.5 139.5,209.5C 139.5,216.167 139.5,222.833 139.5,229.5C 136.167,229.5 132.833,229.5 129.5,229.5C 129.5,222.833 129.5,216.167 129.5,209.5C 126.167,209.5 122.833,209.5 119.5,209.5C 119.5,206.167 119.5,202.833 119.5,199.5C 122.833,199.5 126.167,199.5 129.5,199.5C 129.5,196.167 129.5,192.833 129.5,189.5C 122.833,189.5 116.167,189.5 109.5,189.5C 109.5,186.167 109.5,182.833 109.5,179.5C 112.833,179.5 116.167,179.5 119.5,179.5C 119.5,176.167 119.5,172.833 119.5,169.5C 116.167,169.5 112.833,169.5 109.5,169.5C 109.5,166.167 109.5,162.833 109.5,159.5C 112.833,159.5 116.167,159.5 119.5,159.5C 119.5,156.167 119.5,152.833 119.5,149.5C 116.167,149.5 112.833,149.5 109.5,149.5C 109.5,146.167 109.5,142.833 109.5,139.5 Z"/></g>
<g><path style="opacity:1" fill="#000000" d="M 139.5,139.5 C 142.833,139.5 146.167,139.5 149.5,139.5C 149.5,142.833 149.5,146.167 149.5,149.5C 146.167,149.5 142.833,149.5 139.5,149.5C 139.5,146.167 139.5,142.833 139.5,139.5 Z"/></g>
<g><path style="opacity:1" fill="#000000" d="M 209.5,139.5 C 212.833,139.5 216.167,139.5 219.5,139.5C 219.5,146.167 219.5,152.833 219.5,159.5C 216.167,159.5 212.833,159.5 209.5,159.5C 209.5,152.833 209.5,146.167 209.5,139.5 Z"/></g>
<g><path style="opacity:1" fill="#fefffe" d="M 219.5,139.5 C 226.167,139.5 232.833,139.5 239.5,139.5C 239.5,142.833 239.5,146.167 239.5,149.5C 242.833,149.5 246.167,149.5 249.5,149.5C 249.5,159.5 249.5,169.5 249.5,179.5C 252.833,179.5 256.167,179.5 259.5,179.5C 259.5,182.833 259.5,186.167 259.5,189.5C 256.167,189.5 252.833,189.5 249.5,189.5C 249.5,192.833 249.5,196.167 249.5,199.5C 242.833,199.5 236.167,199.5 229.5,199.5C 229.5,196.167 229.5,192.833 229.5,189.5C 232.833,189.5 236.167,189.5 239.5,189.5C 239.5,179.5 239.5,169.5 239.5,159.5C 232.833,159.5 226.167,159.5 219.5,159.5C 219.5,152.833 219.5,146.167 219.5,139.5 Z"/></g>
<g><path style="opacity:1" fill="#fefffe" d="M 269.5,139.5 C 272.833,139.5 276.167,139.5 279.5,139.5C 279.5,142.833 279.5,146.167 279.5,149.5C 276.167,149.5 272.833,149.5 269.5,149.5C 269.5,146.167 269.5,142.833 269.5,139.5 Z"/></g>
<g><path style="opacity:1" fill="#fefffe" d="M 89.5,149.5 C 89.5,152.833 89.5,156.167 89.5,159.5C 86.1667,159.5 82.8333,159.5 79.5,159.5C 79.5,156.167 79.5,152.833 79.5,149.5C 82.8333,149.5 86.1667,149.5 89.5,149.5 Z"/></g>
<g><path style="opacity:1" fill="#fefffe" d="M 99.5,149.5 C 102.833,149.5 106.167,149.5 109.5,149.5C 109.5,152.833 109.5,156.167 109.5,159.5C 106.167,159.5 102.833,159.5 99.5,159.5C 99.5,156.167 99.5,152.833 99.5,149.5 Z"/></g>
<g><path style="opacity:1" fill="#000000" d="M 109.5,149.5 C 112.833,149.5 116.167,149.5 119.5,149.5C 119.5,152.833 119.5,156.167 119.5,159.5C 116.167,159.5 112.833,159.5 109.5,159.5C 109.5,156.167 109.5,152.833 109.5,149.5 Z"/></g>
<g><path style="opacity:1" fill="#000000" d="M 149.5,149.5 C 159.5,149.5 169.5,149.5 179.5,149.5C 179.5,156.167 179.5,162.833 179.5,169.5C 176.167,169.5 172.833,169.5 169.5,169.5C 169.5,172.833 169.5,176.167 169.5,179.5C 176.167,179.5 182.833,179.5 189.5,179.5C 189.5,172.833 189.5,166.167 189.5,159.5C 196.167,159.5 202.833,159.5 209.5,159.5C 209.5,169.5 209.5,179.5 209.5,189.5C 212.833,189.5 216.167,189.5 219.5,189.5C 219.5,179.5 219.5,169.5 219.5,159.5C 226.167,159.5 232.833,159.5 239.5,159.5C 239.5,169.5 239.5,179.5 239.5,189.5C 236.167,189.5 232.833,189.5 229.5,189.5C 229.5,192.833 229.5,196.167 229.5,199.5C 236.167,199.5 242.833,199.5 249.5,199.5C 249.5,206.167 249.5,212.833 249.5,219.5C 252.833,219.5 256.167,219.5 259.5,219.5C 259.5,226.167 259.5,232.833 259.5,239.5C 256.167,239.5 252.833,239.5 249.5,239.5C 249.5,249.5 249.5,259.5 249.5,269.5C 246.167,269.5 242.833,269.5 239.5,269.5C 239.5,266.167 239.5,262.833 239.5,259.5C 236.167,259.5 232.833,259.5 229.5,259.5C 229.5,256.167 229.5,252.833 229.5,249.5C 226.167,249.5 222.833,249.5 219.5,249.5C 219.5,256.167 219.5,262.833 219.5,269.5C 222.833,269.5 226.167,269.5 229.5,269.5C 229.5,276.167 229.5,282.833 229.5,289.5C 219.5,289.5 209.5,289.5 199.5,289.5C 199.5,286.167 199.5,282.833 199.5,279.5C 196.167,279.5 192.833,279.5 189.5,279.5C 189.5,282.833 189.5,286.167 189.5,289.5C 182.833,289.5 176.167,289.5 169.5,289.5C 169.5,286.167 169.5,282.833 169.5,279.5C 159.5,279.5 149.5,279.5 139.5,279.5C 139.5,282.833 139.5,286.167 139.5,289.5C 132.833,289.5 126.167,289.5 119.5,289.5C 119.5,286.167 119.5,282.833 119.5,279.5C 122.833,279.5 126.167,279.5 129.5,279.5C 129.5,276.167 129.5,272.833 129.5,269.5C 126.167,269.5 122.833,269.5 119.5,269.5C 119.5,266.167 119.5,262.833 119.5,259.5C 129.5,259.5 139.5,259.5 149.5,259.5C 149.5,262.833 149.5,266.167 149.5,269.5C 152.833,269.5 156.167,269.5 159.5,269.5C 159.5,262.833 159.5,256.167 159.5,249.5C 149.5,249.5 139.5,249.5 129.5,249.5C 129.5,242.833 129.5,236.167 129.5,229.5C 132.833,229.5 136.167,229.5 139.5,229.5C 139.5,222.833 139.5,216.167 139.5,209.5C 142.833,209.5 146.167,209.5 149.5,209.5C 149.5,212.833 149.5,216.167 149.5,219.5C 152.833,219.5 156.167,219.5 159.5,219.5C 159.5,222.833 159.5,226.167 159.5,229.5C 156.167,229.5 152.833,229.5 149.5,229.5C 149.5,232.833 149.5,236.167 149.5,239.5C 156.167,239.5 162.833,239.5 169.5,239.5C 169.5,236.167 169.5,232.833 169.5,229.5C 172.833,229.5 176.167,229.5 179.5,229.5C 179.5,236.167 179.5,242.833 179.5,249.5C 176.167,249.5 172.833,249.5 169.5,249.5C 169.5,252.833 169.5,256.167 169.5,259.5C 176.167,259.5 182.833,259.5 189.5,259.5C 189.5,262.833 189.5,266.167 189.5,269.5C 192.833,269.5 196.167,269.5 199.5,269.5C 199.5,266.167 199.5,262.833 199.5,259.5C 202.833,259.5 206.167,259.5 209.5,259.5C 209.5,256.167 209.5,252.833 209.5,249.5C 202.833,249.5 196.167,249.5 189.5,249.5C 189.5,239.5 189.5,229.5 189.5,219.5C 182.833,219.5 176.167,219.5 169.5,219.5C 169.5,212.833 169.5,206.167 169.5,199.5C 162.833,199.5 156.167,199.5 149.5,199.5C 149.5,196.167 149.5,192.833 149.5,189.5C 152.833,189.5 156.167,189.5 159.5,189.5C 159.5,182.833 159.5,176.167 159.5,169.5C 149.5,169.5 139.5,169.5 129.5,169.5C 129.5,166.167 129.5,162.833 129.5,159.5C 136.167,159.5 142.833,159.5 149.5,159.5C 149.5,156.167 149.5,152.833 149.5,149.5 Z"/></g>
<g><path style="opacity:1" fill="#fefffe" d="M 269.5,149.5 C 269.5,156.167 269.5,162.833 269.5,169.5C 272.833,169.5 276.167,169.5 279.5,169.5C 279.5,176.167 279.5,182.833 279.5,189.5C 276.167,189.5 272.833,189.5 269.5,189.5C 269.5,186.167 269.5,182.833 269.5,179.5C 266.167,179.5 262.833,179.5 259.5,179.5C 259.5,169.5 259.5,159.5 259.5,149.5C 262.833,149.5 266.167,149.5 269.5,149.5 Z"/></g>
<g><path style="opacity:1" fill="#000000" d="M 269.5,149.5 C 272.833,149.5 276.167,149.5 279.5,149.5C 279.5,152.833 279.5,156.167 279.5,159.5C 282.833,159.5 286.167,159.5 289.5,159.5C 289.5,182.833 289.5,206.167 289.5,229.5C 286.167,229.5 282.833,229.5 279.5,229.5C 279.5,226.167 279.5,222.833 279.5,219.5C 276.167,219.5 272.833,219.5 269.5,219.5C 269.5,216.167 269.5,212.833 269.5,209.5C 272.833,209.5 276.167,209.5 279.5,209.5C 279.5,206.167 279.5,202.833 279.5,199.5C 276.167,199.5 272.833,199.5 269.5,199.5C 269.5,196.167 269.5,192.833 269.5,189.5C 272.833,189.5 276.167,189.5 279.5,189.5C 279.5,182.833 279.5,176.167 279.5,169.5C 276.167,169.5 272.833,169.5 269.5,169.5C 269.5,162.833 269.5,156.167 269.5,149.5 Z"/></g>
<g><path style="opacity:1" fill="#fefffe" d="M 69.5,179.5 C 66.1667,179.5 62.8333,179.5 59.5,179.5C 59.5,172.833 59.5,166.167 59.5,159.5C 62.8333,159.5 66.1667,159.5 69.5,159.5C 69.5,166.167 69.5,172.833 69.5,179.5 Z"/></g>
<g><path style="opacity:1" fill="#fefffe" d="M 209.5,159.5 C 212.833,159.5 216.167,159.5 219.5,159.5C 219.5,169.5 219.5,179.5 219.5,189.5C 216.167,189.5 212.833,189.5 209.5,189.5C 209.5,179.5 209.5,169.5 209.5,159.5 Z"/></g>
<g><path style="opacity:1" fill="#fefffe" d="M 89.5,179.5 C 86.1667,179.5 82.8333,179.5 79.5,179.5C 79.5,176.167 79.5,172.833 79.5,169.5C 82.8333,169.5 86.1667,169.5 89.5,169.5C 89.5,172.833 89.5,176.167 89.5,179.5 Z"/></g>
<g><path style="opacity:1" fill="#fefffe" d="M 109.5,169.5 C 109.5,172.833 109.5,176.167 109.5,179.5C 106.167,179.5 102.833,179.5 99.5,179.5C 99.5,176.167 99.5,172.833 99.5,169.5C 102.833,169.5 106.167,169.5 109.5,169.5 Z"/></g>
<g><path style="opacity:1" fill="#000000" d="M 109.5,169.5 C 112.833,169.5 116.167,169.5 119.5,169.5C 119.5,172.833 119.5,176.167 119.5,179.5C 116.167,179.5 112.833,179.5 109.5,179.5C 109.5,176.167 109.5,172.833 109.5,169.5 Z"/></g>
<g><path style="opacity:1" fill="#000000" d="M 79.5,179.5 C 82.8333,179.5 86.1667,179.5 89.5,179.5C 89.5,182.833 89.5,186.167 89.5,189.5C 86.1667,189.5 82.8333,189.5 79.5,189.5C 79.5,186.167 79.5,182.833 79.5,179.5 Z"/></g>
<g><path style="opacity:1" fill="#fefffe" d="M 89.5,179.5 C 92.8333,179.5 96.1667,179.5 99.5,179.5C 99.5,182.833 99.5,186.167 99.5,189.5C 96.1667,189.5 92.8333,189.5 89.5,189.5C 89.5,186.167 89.5,182.833 89.5,179.5 Z"/></g>
<g><path style="opacity:1" fill="#000000" d="M 99.5,179.5 C 102.833,179.5 106.167,179.5 109.5,179.5C 109.5,182.833 109.5,186.167 109.5,189.5C 106.167,189.5 102.833,189.5 99.5,189.5C 99.5,186.167 99.5,182.833 99.5,179.5 Z"/></g>
<g><path style="opacity:1" fill="#000000" d="M 259.5,179.5 C 262.833,179.5 266.167,179.5 269.5,179.5C 269.5,182.833 269.5,186.167 269.5,189.5C 266.167,189.5 262.833,189.5 259.5,189.5C 259.5,186.167 259.5,182.833 259.5,179.5 Z"/></g>
<g><path style="opacity:1" fill="#000000" d="M 89.5,189.5 C 92.8333,189.5 96.1667,189.5 99.5,189.5C 99.5,192.833 99.5,196.167 99.5,199.5C 102.833,199.5 106.167,199.5 109.5,199.5C 109.5,196.167 109.5,192.833 109.5,189.5C 116.167,189.5 122.833,189.5 129.5,189.5C 129.5,192.833 129.5,196.167 129.5,199.5C 126.167,199.5 122.833,199.5 119.5,199.5C 119.5,202.833 119.5,206.167 119.5,209.5C 106.167,209.5 92.8333,209.5 79.5,209.5C 79.5,206.167 79.5,202.833 79.5,199.5C 82.8333,199.5 86.1667,199.5 89.5,199.5C 89.5,196.167 89.5,192.833 89.5,189.5 Z"/></g>
<g><path style="opacity:1" fill="#fefffe" d="M 99.5,189.5 C 102.833,189.5 106.167,189.5 109.5,189.5C 109.5,192.833 109.5,196.167 109.5,199.5C 106.167,199.5 102.833,199.5 99.5,199.5C 99.5,196.167 99.5,192.833 99.5,189.5 Z"/></g>
<g><path style="opacity:1" fill="#fefffe" d="M 169.5,199.5 C 169.5,196.167 169.5,192.833 169.5,189.5C 172.833,189.5 176.167,189.5 179.5,189.5C 179.5,192.833 179.5,196.167 179.5,199.5C 176.167,199.5 172.833,199.5 169.5,199.5 Z"/></g>
<g><path style="opacity:1" fill="#fefffe" d="M 209.5,189.5 C 209.5,192.833 209.5,196.167 209.5,199.5C 202.833,199.5 196.167,199.5 189.5,199.5C 189.5,196.167 189.5,192.833 189.5,189.5C 196.167,189.5 202.833,189.5 209.5,189.5 Z"/></g>
<g><path style="opacity:1" fill="#000000" d="M 259.5,189.5 C 259.5,192.833 259.5,196.167 259.5,199.5C 256.167,199.5 252.833,199.5 249.5,199.5C 249.5,196.167 249.5,192.833 249.5,189.5C 252.833,189.5 256.167,189.5 259.5,189.5 Z"/></g>
<g><path style="opacity:1" fill="#fefffe" d="M 259.5,189.5 C 262.833,189.5 266.167,189.5 269.5,189.5C 269.5,192.833 269.5,196.167 269.5,199.5C 272.833,199.5 276.167,199.5 279.5,199.5C 279.5,202.833 279.5,206.167 279.5,209.5C 276.167,209.5 272.833,209.5 269.5,209.5C 269.5,212.833 269.5,216.167 269.5,219.5C 272.833,219.5 276.167,219.5 279.5,219.5C 279.5,222.833 279.5,226.167 279.5,229.5C 276.167,229.5 272.833,229.5 269.5,229.5C 269.5,232.833 269.5,236.167 269.5,239.5C 266.167,239.5 262.833,239.5 259.5,239.5C 259.5,232.833 259.5,226.167 259.5,219.5C 256.167,219.5 252.833,219.5 249.5,219.5C 249.5,212.833 249.5,206.167 249.5,199.5C 252.833,199.5 256.167,199.5 259.5,199.5C 259.5,196.167 259.5,192.833 259.5,189.5 Z"/></g>
<g><path style="opacity:1" fill="#000000" d="M 59.5,199.5 C 59.5,202.833 59.5,206.167 59.5,209.5C 52.8333,209.5 46.1667,209.5 39.5,209.5C 39.5,206.167 39.5,202.833 39.5,199.5C 46.1667,199.5 52.8333,199.5 59.5,199.5 Z"/></g>
<g><path style="opacity:1" fill="#000000" d="M 119.5,209.5 C 122.833,209.5 126.167,209.5 129.5,209.5C 129.5,216.167 129.5,222.833 129.5,229.5C 126.167,229.5 122.833,229.5 119.5,229.5C 119.5,222.833 119.5,216.167 119.5,209.5 Z"/></g>
<g><path style="opacity:1" fill="#fefffe" d="M 209.5,209.5 C 219.5,209.5 229.5,209.5 239.5,209.5C 239.5,219.5 239.5,229.5 239.5,239.5C 229.5,239.5 219.5,239.5 209.5,239.5C 209.5,229.5 209.5,219.5 209.5,209.5 Z"/></g>
<g><path style="opacity:1" fill="#000000" d="M 39.5,219.5 C 62.8333,219.5 86.1667,219.5 109.5,219.5C 109.5,242.833 109.5,266.167 109.5,289.5C 86.1667,289.5 62.8333,289.5 39.5,289.5C 39.5,266.167 39.5,242.833 39.5,219.5 Z"/></g>
<g><path style="opacity:1" fill="#000000" d="M 219.5,219.5 C 222.833,219.5 226.167,219.5 229.5,219.5C 229.5,222.833 229.5,226.167 229.5,229.5C 226.167,229.5 222.833,229.5 219.5,229.5C 219.5,226.167 219.5,222.833 219.5,219.5 Z"/></g>
<g><path style="opacity:1" fill="#fefffe" d="M 49.5,229.5 C 66.1667,229.5 82.8333,229.5 99.5,229.5C 99.5,246.167 99.5,262.833 99.5,279.5C 82.8333,279.5 66.1667,279.5 49.5,279.5C 49.5,262.833 49.5,246.167 49.5,229.5 Z"/></g>
<g><path style="opacity:1" fill="#000000" d="M 279.5,229.5 C 279.5,232.833 279.5,236.167 279.5,239.5C 282.833,239.5 286.167,239.5 289.5,239.5C 289.5,242.833 289.5,246.167 289.5,249.5C 286.167,249.5 282.833,249.5 279.5,249.5C 279.5,252.833 279.5,256.167 279.5,259.5C 282.833,259.5 286.167,259.5 289.5,259.5C 289.5,262.833 289.5,266.167 289.5,269.5C 282.833,269.5 276.167,269.5 269.5,269.5C 269.5,262.833 269.5,256.167 269.5,249.5C 266.167,249.5 262.833,249.5 259.5,249.5C 259.5,246.167 259.5,242.833 259.5,239.5C 262.833,239.5 266.167,239.5 269.5,239.5C 269.5,236.167 269.5,232.833 269.5,229.5C 272.833,229.5 276.167,229.5 279.5,229.5 Z"/></g>
<g><path style="opacity:1" fill="#000000" d="M 59.5,239.5 C 69.5,239.5 79.5,239.5 89.5,239.5C 89.5,249.5 89.5,259.5 89.5,269.5C 79.5,269.5 69.5,269.5 59.5,269.5C 59.5,259.5 59.5,249.5 59.5,239.5 Z"/></g>
<g><path style="opacity:1" fill="#fefffe" d="M 169.5,279.5 C 169.5,276.167 169.5,272.833 169.5,269.5C 172.833,269.5 176.167,269.5 179.5,269.5C 179.5,272.833 179.5,276.167 179.5,279.5C 176.167,279.5 172.833,279.5 169.5,279.5 Z"/></g>
<g><path style="opacity:1" fill="#fefffe" d="M 219.5,269.5 C 219.5,272.833 219.5,276.167 219.5,279.5C 216.167,279.5 212.833,279.5 209.5,279.5C 209.5,276.167 209.5,272.833 209.5,269.5C 212.833,269.5 216.167,269.5 219.5,269.5 Z"/></g>
<g><path style="opacity:1" fill="#000000" d="M 249.5,269.5 C 252.833,269.5 256.167,269.5 259.5,269.5C 259.5,272.833 259.5,276.167 259.5,279.5C 256.167,279.5 252.833,279.5 249.5,279.5C 249.5,276.167 249.5,272.833 249.5,269.5 Z"/></g>
<g><path style="opacity:1" fill="#000000" d="M 249.5,279.5 C 249.5,282.833 249.5,286.167 249.5,289.5C 246.167,289.5 242.833,289.5 239.5,289.5C 239.5,286.167 239.5,282.833 239.5,279.5C 242.833,279.5 246.167,279.5 249.5,279.5 Z"/></g>
<g><path style="opacity:1" fill="#000000" d="M 279.5,279.5 C 282.833,279.5 286.167,279.5 289.5,279.5C 289.5,282.833 289.5,286.167 289.5,289.5C 286.167,289.5 282.833,289.5 279.5,289.5C 279.5,286.167 279.5,282.833 279.5,279.5 Z"/></g>
</svg>
