<?xml version="1.0" encoding="UTF-8"?>
<svg id="Layer_1" data-name="Layer 1" xmlns="http://www.w3.org/2000/svg" viewBox="0 0 256.12 851.39">
  <g>
    <g>
      <path d="M80.35,49.15c.74,1.45,1.39,2.94,1.96,4.46,1.36,3.19,2.57,6.12,3.61,8.81,1.04,2.18,1.99,3.91,2.85,5.2.2.35.3.54.31.58l.06-.02c.21-3.77.33-6.25.36-7.44-.04-2.48-.03-4.01.03-4.6.6-.2,1.08-.35,1.44-.44l.5-.13c.24-.06.62-.14,1.14-.24.11.1.95,1.51,2.51,4.25,1.57,2.52,3.4,5.4,5.5,8.63.06-.02.01-.68-.14-1.99-.43-6.07-.78-10.22-1.05-12.45-.21-1.51-.49-3.25-.86-5.22.17-.15,1.02-.51,2.54-1.08.63-.27,1.59-.6,2.88-.98l.05.05c.25,2.47.56,5.1.93,7.89.63,6.27,1.34,14.36,2.13,24.27-.72.32-1.87.75-3.45,1.32-4.78-7.68-7.79-12.55-9.04-14.63l-.09.02c-.24,1.92-.34,4.57-.32,7.94-.11,2.41-.09,5.58.05,9.49-.37.14-.75.26-1.17.37-.16.04-.77.19-1.84.45-2.32-5.15-5-10.84-8.02-17.05-4.52-10.13-6.79-15.25-6.82-15.37h.03c1.67-1.14,2.98-1.84,3.95-2.09Z"/>
      <path d="M118.89,46.9c2.88.06,4.46.09,4.75.09l1.07-.03s.44,1.58,1.19,4.62c1.12,4.12,2.06,7.8,2.82,11.03,1.24,4.49,2.47,9.03,3.68,13.6.16.41.37,1.08.61,2.02v.03l-6.19.8c-.49-1.31-1.09-3.34-1.81-6.1-.18-.49-.29-.76-.31-.8-1.16-.06-2.13-.09-2.91-.09-.67,0-2.01.1-4.01.31-.8,2.18-1.38,4.28-1.75,6.28l-.15.7c-2.04-.27-3.78-.69-5.21-1.29.35-1.57,1.64-6.95,3.89-16.14.74-3.08,2.14-8.09,4.23-15.01l.09-.03ZM120.92,55.72c-.88,2.49-1.53,4.57-1.96,6.25-.37,1.45-.77,3.07-1.19,4.87-.08.27-.17.63-.28,1.1.33.06.96.09,1.9.09h3.98c.18,0,.48,0,.89-.03-.53-1.94-1.19-4.48-1.99-7.63-.27-.8-.55-1.82-.86-3.06-.02-.04-.17-.57-.46-1.59h-.03Z"/>
      <path d="M140.39,41.14s.27.9.7,2.58c.85,2.45,1.5,4.61,1.93,6.47.42,2.7,1.14,5.19,2.15,7.47h.03c.61-.7,1.15-1.67,1.6-2.9.31-.77,2.11-4.63,5.4-11.58h.06s3.64,2.04,3.64,2.04c0,.02.02.03.06.04-.7,1.19-1.27,2.22-1.71,3.08-1.48,3.07-3.33,6.66-5.55,10.77l-1.79,3.6c-.25,2.93-.48,6.01-.68,9.26-.27,2.64-.46,3.96-.56,3.95-2.14-.14-3.43-.24-3.88-.28-.33-.03-1.19-.12-2.59-.29l-.02-.09.32-3.72c.29-2.82.44-4.33.45-4.51.16-1.85.28-3.49.37-4.92-.91-1.62-1.85-4.26-2.85-7.93-.57-1.89-1.21-4.34-1.92-7.33-.81-2.67-1.22-4.06-1.21-4.16,1.73-.59,3.3-1.02,4.69-1.28.83-.17,1.28-.26,1.34-.25Z"/>
      <path d="M51.01,70.01l2.42.47c.36.97.92,3.88,1.68,8.74.26,1.69.77,6.32,1.55,13.91.46,4.64,1.12,8.72,1.99,12.24.07.05.18.48.33,1.29l.11.02c2.55-3.32,6.11-9.98,10.67-19.99,1.7-3.13,3.3-5.56,4.81-7.3,5.85,1.72,9.3,2.79,10.36,3.19l-3.65,21.71c-.72,3.71-2.29,11.85-4.7,24.42-1.68,8-2.63,11.98-2.85,11.94-1.97-.07-3.82-.28-5.54-.61-2.79-.66-4.16-1.12-4.11-1.39,1.79-10.78,3.13-18.46,4.02-23.04l1.1-5.62c.48-2.44.88-5.22,1.22-8.35l-.11-.02c-2.58,4.25-4.67,8.2-6.28,11.85-2.65,4.43-5.03,8.54-7.13,12.33-.35.59-.74,1.12-1.18,1.58l-7.2-1.4c-.11-.02-.21-.9-.3-2.63-1.45-14.33-2.17-21.52-2.16-21.56-.12-4.19-.84-7.97-2.17-11.34l-5.65,27.51-.14.44c-.02.31-.06.63-.13.97l-.04.23c-.53,2.7-1.4,8-2.63,15.89-.91,3.29-1.63,4.88-2.16,4.78-2.1-.21-4.26-.54-6.47-.97l-1.97-.38-.1-.08c.29-2.08.62-4.1,1-6.05.99-5.06,4.55-22.02,10.68-50.88,1.89-9.09,2.96-13.61,3.23-13.56l11.53,1.66Z"/>
      <path d="M97.05,88.17c5.39.11,8.35.17,8.88.17l2.01-.06c.08.08.82,2.96,2.24,8.65,2.1,7.72,3.86,14.6,5.27,20.63,2.33,8.41,4.62,16.89,6.88,25.44.31.77.69,2.03,1.15,3.78v.06l-11.58,1.49c-.92-2.44-2.04-6.25-3.38-11.4-.34-.92-.54-1.41-.57-1.49-2.18-.12-3.99-.17-5.44-.17-1.26,0-3.76.19-7.51.57-1.49,4.09-2.58,8-3.27,11.75l-.29,1.32c-3.82-.5-7.07-1.3-9.74-2.41.65-2.94,3.08-13.01,7.28-30.2,1.38-5.77,4.01-15.13,7.91-28.08l.17-.06ZM100.84,104.68c-1.64,4.66-2.87,8.56-3.67,11.69-.69,2.71-1.43,5.75-2.24,9.11-.15.5-.32,1.18-.52,2.06.61.11,1.8.17,3.55.17h7.45c.34,0,.9-.02,1.66-.06-.99-3.63-2.24-8.39-3.73-14.27-.5-1.49-1.03-3.4-1.6-5.73-.04-.08-.32-1.07-.86-2.98h-.06Z"/>
      <path d="M143.97,80.58c.44.05,2.64.66,6.6,1.81.54.15.87.21.98.18l.05.22c-.92,3.43-1.72,6.82-2.39,10.15l-6.6,23.85c9.21,9.34,16.11,16.85,20.69,22.53.51.51.79.85.83,1.04-5.47,2.1-8.95,3.33-10.44,3.68-3.71-4.27-7.19-8.58-10.44-12.92-2.8-3.07-5.64-6.06-8.51-8.96,2.49,11.66,3.94,18.34,4.34,20.06l-.16.1c-2.8.62-5.03,1.12-6.71,1.51l-.5.12c-.11.03-.18,0-.19-.07l-.39-1.67c-.77-3.27-1.52-6.16-2.26-8.65-1.71-7.29-3.43-15.99-5.16-26.1.04,0-.25-1.49-.86-4.45-.45-1.93-1.72-6.7-3.81-14.29l-.48-2.07s.05-.03.04-.07c2-.35,4.11-.79,6.34-1.31l3.79-.89.19.07c1.03,5.06,1.83,9.18,2.43,12.38,1.6,5.98,3.08,11.42,4.47,16.32.65-1.41,1.6-4.75,2.83-10.02.73-2.92,1.83-7.92,3.31-15.02l2.01-7.53Z"/>
      <path d="M160.24,65.08c15.82.27,23.73.5,23.73.69-.04.8-.06,1.4-.06,1.78v.92c0,.31.09,1.45.29,3.44-.04,2.1-.06,3.5-.06,4.18-.08,0-.11.02-.11.06-1.07-.23-5.12-.48-12.15-.75-1.68.08-3.04.15-4.07.23.12,1.15.19,2.22.23,3.21,0,.38-.02,1.43-.06,3.15,0,1.53.11,3.52.34,5.96,2.83,0,5.81.21,8.94.63h3.9c.15,0,.52,2.41,1.09,7.22,0,.11.02.29.06.52l-.12.06c-.23,0-.73.02-1.49.06-1.18-.08-2.18-.11-2.98-.11h-3.61c-3.13.08-4.7.23-4.7.46-.27,1.26-.4,3.55-.4,6.88.04,2.52.06,4.36.06,5.5,0,.76-.08,2.26-.23,4.47.88.11,5.14.23,12.78.34,1.49-.04,2.56-.09,3.21-.17,0,.04.02.06.06.06-.04,1.76-.06,3.08-.06,3.95v4.81c0,.42.02,1.07.06,1.95l-.11.06h-15.59c-2.18,0-4.76-.02-7.74-.06-.15.04-1.3.06-3.44.06,0-.04-.02-.06-.06-.06.08-1.07.19-2.9.34-5.5,0-12.88-.17-21.82-.52-26.82v-1.72c.04-7.91.06-12.28.06-13.12-.04-3.86-.11-7.93-.23-12.21l.11-.06c1.11,0,1.95-.02,2.52-.06Z"/>
      <path d="M213.89,81.85l5.58,1.55c4.53,1.26,7.08,2.41,7.67,3.44.95.7,1.94,1.87,2.95,3.5,1.72,2.78,1.92,6.58.57,11.4-.39,1.56-.83,3.2-1.31,4.93l-.4,1.44c-.92,3.31-1.9,5.2-2.95,5.66-3.01,1.82-4.93,2.61-5.78,2.38-.59.11-1.02.15-1.28.12l-.03.11c1.84,1.78,2.8,3.48,2.87,5.08.28,1.55.33,3.6.13,6.16-1.36,12.71-2.31,20.04-2.85,21.99-.92,3.15-1.47,4.71-1.65,4.65-4.83-1.46-7.52-2.27-8.07-2.42l-.61-.17c-.26-.07.06-2.13.94-6.16.76-2.6,1.35-4.62,1.75-6.06.76-2.72,1-6.44.73-11.16-.33-2.08-1.26-3.72-2.79-4.94-.71-.71-3.16-1.81-7.35-3.3l-.22-.06-2.06-.28-.02.05c-.84,6.15-1.86,11.38-3.06,15.69-.37,1.33-.8,3.29-1.28,5.89-.31.27-2.83-.25-7.54-1.56,0,.04-.79-.1-2.32-.41.34-2.36.91-4.96,1.69-7.8l.14-.5c.5-1.8.99-3.47,1.45-5.01.2-.74,2.41-10.57,6.61-29.51,2.15-7.73,3.66-13.59,4.54-17.59,6.06,1.01,10.71,1.97,13.95,2.87ZM207.99,89.78c-.6,2.29-1.05,3.99-1.36,5.1l-.37,1.32c-.56,2.02-1.33,6.27-2.3,12.75,2.93,1.01,5.06,1.71,6.38,2.07,1.51.42,3.25.15,5.22-.81.39-.53.72-1.29.99-2.28l.29-1.05c1.81-7.23,2.52-10.9,2.11-11.01-.01-1.23-.43-2.3-1.25-3.2-1.17-1.08-2.54-1.84-4.12-2.28-1.44-.4-3.3-.6-5.6-.61Z"/>
    </g>
    <g>
      <path d="M48.44,808.61v-7.48h4.61v1.02h-3.49v5.64h0v.82h-1.12ZM49.47,804.3h2.99v1.02h-2.99v-1.02Z"/>
      <path d="M54.41,808.61v-7.48h1.12v7.48h-1.12Z"/>
      <path d="M57.66,808.61v-7.48h1.08l4.23,5.97-.27.04v-5.19h0v-.82h1.09v7.48h-1.09l-4.18-5.91.21-.04v5.13h0v.82h-1.08Z"/>
      <path d="M65.91,808.61v-7.48h2.56c.71,0,1.36.15,1.93.44.58.29,1.03.72,1.37,1.28.34.56.51,1.24.51,2.02s-.17,1.46-.51,2.02c-.34.56-.8.99-1.37,1.28-.58.29-1.22.44-1.93.44h-2.56ZM70.75,803.36c-.25-.41-.57-.72-.98-.92s-.85-.3-1.33-.3h-1.73l.32-.21v5.92l-.32-.24h1.73c.48,0,.92-.1,1.33-.3s.74-.51.98-.92.37-.91.37-1.51-.12-1.09-.37-1.51Z"/>
      <path d="M75.51,801.13h6.02v1.05h-6.02v-1.05ZM77.96,808.61v-7.39h1.11v7.39h-1.11Z"/>
      <path d="M82.82,808.61v-7.48h1.12v7.48h-1.12ZM83.79,804.17h4.09v1.05h-4.09v-1.05ZM87.72,808.61v-7.48h1.12v7.48h-1.12Z"/>
      <path d="M90.95,808.61v-7.48h4.62v1.02h-3.5v5.45h3.5v1.01h-4.62ZM91.99,804.2h2.99v1.02h-2.99v-1.02Z"/>
      <path d="M99.21,802.14c-.06-.21-.11-.38-.14-.5-.04-.12-.09-.29-.15-.5h1.19v.02c.06.16.1.29.12.37.02.08.04.16.06.24.02.08.05.21.1.38l1.52,5.36h-.26l1.98-6.38h1.12l1.99,6.38h-.24l1.51-5.4c.05-.16.09-.28.11-.36.02-.08.04-.16.06-.24.02-.08.05-.2.1-.36h0s1.17-.01,1.17-.01c-.08.25-.14.44-.17.56-.04.13-.09.31-.16.55l-1.92,6.37h-1.11l-2.03-6.34h.28l-2.04,6.34h-1.11l-1.93-6.42s-.01-.04-.02-.05Z"/>
      <path d="M109.54,808.05c.05-.12.12-.31.22-.55l2.53-6.37h1.13l2.54,6.4c.1.24.17.42.22.54s.12.3.21.53h-1.22c-.06-.17-.11-.3-.14-.38s-.06-.16-.09-.25c-.03-.08-.08-.21-.14-.37h0s-2.11-5.7-2.11-5.7h.32l-2.13,5.72c-.06.16-.1.28-.13.36-.03.08-.06.16-.09.24-.03.08-.08.21-.13.37h-1.21c.1-.25.17-.44.22-.56ZM111.1,805.61h3.52l.16,1h-3.85l.16-1Z"/>
      <path d="M118.44,808.61v-3.29l-1.91-3.05c-.16-.26-.28-.45-.36-.57-.08-.12-.2-.31-.35-.56h1.29c.11.19.2.32.26.41.06.09.14.22.25.4.04.06.07.11.09.15s.05.09.09.15l1.48,2.4h-.52l1.53-2.45c.04-.06.06-.11.09-.14.02-.03.05-.08.09-.14.11-.18.2-.31.25-.4.05-.09.13-.22.24-.39h1.26c-.16.25-.27.43-.35.56-.08.12-.19.3-.34.54l-1.93,3.09v2.47h0v.82h-1.13Z"/>
      <path d="M122.5,809.52c.2-.27.31-.57.33-.91-.06.02-.11.04-.15.05-.04,0-.09.02-.15.02-.19,0-.36-.07-.51-.22-.15-.15-.22-.33-.22-.53,0-.23.08-.41.23-.56s.34-.21.56-.21c.29,0,.53.1.71.31s.27.48.27.83-.08.67-.24.96-.39.52-.68.7-.63.28-1.01.31c.38-.22.67-.47.87-.73Z"/>
      <path d="M127.92,808.61v-7.48h.96l2.98,4.31-.51-.04,2.95-4.26h.96v7.48h-1.08v-6l.24.1-2.82,4.19-2.86-4.23.27-.05v5.18h0v.82h-1.08Z"/>
      <path d="M136.61,808.05c.05-.12.12-.31.22-.55l2.53-6.37h1.13l2.54,6.4c.1.24.17.42.22.54s.12.3.21.53h-1.22c-.06-.17-.11-.3-.14-.38s-.06-.16-.09-.25c-.03-.08-.08-.21-.14-.37h0s-2.11-5.7-2.11-5.7h.32l-2.13,5.72c-.06.16-.1.28-.13.36-.03.08-.06.16-.09.24-.03.08-.08.21-.13.37h-1.21c.1-.25.17-.44.22-.56ZM138.16,805.61h3.52l.16,1h-3.85l.16-1Z"/>
      <path d="M144.6,808.61v-7.48h1.12v7.48h-1.12ZM145.57,804.64l2.36-2.32c.2-.2.35-.35.44-.45.1-.1.19-.2.29-.29.1-.1.25-.24.44-.44h1.43c-.13.14-.24.25-.32.34-.09.08-.18.17-.29.27-.09.09-.18.18-.25.26-.07.08-.17.17-.29.29l-2.72,2.64.02-.66,3.18,3.41c.16.16.28.3.38.41s.22.24.37.4l.12.13h-1.51l-3.66-3.97Z"/>
      <path d="M151.92,808.61v-7.48h4.62v1.02h-3.5v5.45h3.5v1.01h-4.62ZM152.96,804.2h2.99v1.02h-2.99v-1.02Z"/>
      <path d="M159.77,801.13h6.02v1.05h-6.02v-1.05ZM162.23,808.61v-7.39h1.11v7.39h-1.11Z"/>
      <path d="M167.09,808.61v-7.48h1.12v7.48h-1.12ZM168.05,804.17h4.09v1.05h-4.09v-1.05ZM171.98,808.61v-7.48h1.12v7.48h-1.12Z"/>
      <path d="M175.22,808.61v-7.48h4.62v1.02h-3.5v5.45h3.5v1.01h-4.62ZM176.25,804.2h2.99v1.02h-2.99v-1.02Z"/>
      <path d="M183.47,802.14c-.06-.21-.11-.38-.14-.5-.04-.12-.09-.29-.15-.5h1.19v.02c.06.16.1.29.12.37.02.08.04.16.06.24.02.08.05.21.1.38l1.52,5.36h-.26l1.98-6.38h1.12l1.99,6.38h-.24l1.51-5.4c.05-.16.09-.28.11-.36.02-.08.04-.16.06-.24.02-.08.05-.2.1-.36h0s1.17-.01,1.17-.01c-.08.25-.14.44-.17.56-.04.13-.09.31-.16.55l-1.92,6.37h-1.11l-2.03-6.34h.28l-2.04,6.34h-1.11l-1.93-6.42s-.01-.04-.02-.05Z"/>
      <path d="M193.81,808.05c.05-.12.12-.31.22-.55l2.53-6.37h1.13l2.54,6.4c.1.24.17.42.22.54s.12.3.21.53h-1.22c-.06-.17-.11-.3-.14-.38s-.06-.16-.09-.25c-.03-.08-.08-.21-.14-.37h0s-2.11-5.7-2.11-5.7h.32l-2.13,5.72c-.06.16-.1.28-.13.36-.03.08-.06.16-.09.24-.03.08-.08.21-.13.37h-1.21c.1-.25.17-.44.22-.56ZM195.36,805.61h3.52l.16,1h-3.85l.16-1Z"/>
      <path d="M202.7,808.61v-3.29l-1.91-3.05c-.16-.26-.28-.45-.36-.57-.08-.12-.2-.31-.35-.56h1.29c.11.19.2.32.26.41.06.09.14.22.25.4.04.06.07.11.09.15s.05.09.09.15l1.48,2.4h-.52l1.53-2.45c.04-.06.06-.11.09-.14.02-.03.05-.08.09-.14.11-.18.2-.31.25-.4.05-.09.13-.22.24-.39h1.26c-.16.25-.27.43-.35.56-.08.12-.19.3-.34.54l-1.93,3.09v2.47h0v.82h-1.13Z"/>
      <path d="M206.3,808.53c-.16-.16-.24-.35-.24-.58s.08-.42.24-.58c.16-.16.35-.24.58-.24s.42.08.57.24c.15.16.23.35.23.59,0,.22-.08.41-.23.57s-.34.23-.57.23-.42-.08-.58-.23Z"/>
    </g>
  </g>
  <g>
    <path d="M10,347.49c10.93-4.08,21.39-3.31,31.24,2.97,2.43,1.55,4.66,3.52,6.65,5.61,7.67,8.04,16.97,12.71,27.99,14.05,6.47.79,11.73,3.69,15.16,9.36,6.38,10.53,3.03,24.73-7.4,31.8-6.14,4.16-12.75,5.3-19.87,3.2-7.25-2.14-14.61-3.26-22.16-2.09-9.16,1.41-16.66,5.9-22.73,12.77-2.4,2.72-4.49,5.73-6.62,8.67-5.94,8.19-16.3,11.8-26.07,9.03-9.43-2.68-16.49-11.17-17.2-20.71-.4-5.48,1.59-10.06,5.23-14.1,6.23-6.89,10.23-14.95,12.03-24.06.51-2.59.71-5.24,1.02-7.87,1.7-14.23,9.51-23.58,22.72-28.64Z"/>
    <path d="M35.75,305.95c2.17,5.54,2.53,11.2,1.09,16.96-2.36,9.45-11.38,12.6-19.09,6.68-9.57-7.35-13.79-19.94-10.58-31.61,2.14-7.77,10.77-10.89,17.45-6.35,5.26,3.58,9.06,8.27,11.13,14.32Z"/>
    <path d="M82.31,329.18c2.43,6.77,2.36,12.33.03,17.82-2.82,6.63-10.39,9.29-16.76,5.92-10.27-5.44-15.14-18.77-10.81-29.56,2.86-7.11,11.06-9.78,17.67-5.71,4.91,3.02,8.3,7.3,9.87,11.53Z"/>
  </g>
  <g>
    <path d="M163.88,521.68c11.41,2.42,19.83,8.67,24.79,19.25,1.22,2.61,2.05,5.47,2.61,8.3,2.17,10.9,7.51,19.83,16.1,26.87,5.04,4.13,7.92,9.4,7.78,16.03-.26,12.31-10.7,22.5-23.29,22.88-7.41.22-13.6-2.36-18.49-7.95-4.98-5.7-10.59-10.58-17.58-13.64-8.49-3.71-17.23-3.95-26.03-1.41-3.49,1.01-6.86,2.43-10.24,3.77-9.4,3.73-20.08,1.23-26.85-6.36-6.52-7.31-7.94-18.27-3.42-26.7,2.6-4.84,6.73-7.65,11.97-9.1,8.95-2.48,16.65-7.13,23.05-13.86,1.82-1.91,3.41-4.05,5.08-6.1,9.06-11.1,20.67-14.81,34.53-11.99Z"/>
    <path d="M207.88,500.41c-1.13,5.84-3.87,10.81-8.17,14.91-7.06,6.72-16.36,4.54-19.7-4.6-4.14-11.34-.95-24.22,8.02-32.35,5.97-5.41,14.93-3.42,18.14,3.99,2.53,5.84,3.21,11.84,1.71,18.05Z"/>
    <path d="M162.07,490.5c-1.13,5.87-3.91,10.88-8.3,14.98-7.05,6.57-16.36,4.42-19.49-4.7-4.03-11.76-1.7-22.36,6.93-31.32,6.55-6.81,15.79-4.96,19.47,3.72,2.37,5.59,2.83,11.38,1.4,17.33Z"/>
    <path d="M234.73,544.98c-1.58,7.02-4.62,11.67-9.53,15.05-5.93,4.08-13.75,2.27-17.32-3.99-5.75-10.1-2.72-23.96,6.72-30.75,6.22-4.47,14.58-2.33,17.98,4.66,2.52,5.18,3.09,10.61,2.15,15.02Z"/>
    <path d="M119.05,520.9c-1.29,5.39-4.21,10.15-8.94,13.72-5.88,4.44-13.98,2.73-17.64-3.67-5.77-10.09-2.75-23.97,6.69-30.75,6.1-4.38,14.28-2.38,17.78,4.34,2.51,4.83,3.31,10.68,2.1,16.36Z"/>
  </g>
</svg>