0
SECTION
2
HEADER
9
$INSUNITS
70
4
9
$ACADVER
1
AC1014
9
$HANDSEED
5
FFFF
0
ENDSEC
0
SECTION
2
TABLES
0
TABLE
2
VPORT
5
8
100
AcDbSymbolTable
0
ENDTAB
0
TABLE
2
LTYPE
5
5
100
AcDbSymbolTable
0
LTYPE
5
14
100
AcDbSymbolTableRecord
100
AcDbLinetypeTableRecord
2
BYBLOCK
70
0
0
LTYPE
5
15
100
AcDbSymbolTableRecord
100
AcDbLinetypeTableRecord
2
BYLAYER
70
0
0
LTYPE
5
16
100
AcDbSymbolTableRecord
100
AcDbLinetypeTableRecord
2
DASHED
70
0
3
Dashed __ __ __ __ __ __ __ __ __ __ __ __ __ _
72
65
73
2
40
0.75
49
0.5
74
0
49
-0.25
74
0
0
ENDTAB
0
TABLE
2
LAYER
5
2
100
AcDbSymbolTable
70
2
0
LAYER
5
50
100
AcDbSymbolTableRecord
100
AcDbLayerTableRecord
2
0
70
0
62
7
6
CONTINUOUS
0
ENDTAB
0
TABLE
2
STYLE
5
3
100
AcDbSymbolTable
70
1
0
STYLE
5
11
100
AcDbSymbolTableRecord
100
AcDbTextStyleTableRecord
2
STANDARD
70
0
0
ENDTAB
0
TABLE
2
VIEW
5
6
100
AcDbSymbolTable
70
0
0
ENDTAB
0
TABLE
2
UCS
5
7
100
AcDbSymbolTable
70
0
0
ENDTAB
0
TABLE
2
APPID
5
9
100
AcDbSymbolTable
70
2
0
APPID
5
12
100
AcDbSymbolTableRecord
100
AcDbRegAppTableRecord
2
ACAD
70
0
0
ENDTAB
0
TABLE
2
DIMSTYLE
5
A
100
AcDbSymbolTable
70
1
0
ENDTAB
0
TABLE
2
BLOCK_RECORD
5
1
100
AcDbSymbolTable
70
1
0
BLOCK_RECORD
5
1F
100
AcDbSymbolTableRecord
100
AcDbBlockTableRecord
2
*MODEL_SPACE
0
BLOCK_RECORD
5
1B
100
AcDbSymbolTableRecord
100
AcDbBlockTableRecord
2
*PAPER_SPACE
0
ENDTAB
0
ENDSEC
0
SECTION
2
BLOCKS
0
BLOCK
5
20
100
AcDbEntity
100
AcDbBlockBegin
2
*MODEL_SPACE
0
ENDBLK
5
21
100
AcDbEntity
100
AcDbBlockEnd
0
BLOCK
5
1C
100
AcDbEntity
100
AcDbBlockBegin
2
*PAPER_SPACE
0
ENDBLK
5
1D
100
AcDbEntity
100
AcDbBlockEnd
0
ENDSEC
0
SECTION
2
ENTITIES
0
POINT
5
100
100
AcDbEntity
8
0
100
AcDbPoint
10
0
20
0
30
0
0
LWPOLYLINE
5
101
100
AcDbEntity
8
0
100
AcDbPolyline
90
4
70
1
43
0.0
10
-150
20
45.000000000000014
10
150
20
45.000000000000014
10
150
20
-44.999999999999986
10
-150
20
-44.999999999999986
0
LINE
5
102
100
AcDbEntity
8
0
100
AcDbLine
10
0
20
0
30
0
11
150
21
-1.0181225693080271e-14
31
0
6
DASHED
0
LINE
5
103
100
AcDbEntity
8
0
100
AcDbLine
10
0
20
0
30
0
11
2.7554552980815456e-15
21
45.000000000000014
31
0
6
DASHED
0
SPLINE
5
104
100
AcDbEntity
8
0
100
AcDbSpline
70
4
71
3
72
8
73
4
74
0
42
0.000000001
43
0.0000000001
44
0.0000000001
40
0
40
0
40
0
40
0
40
1
40
1
40
1
40
1
41
1
41
1
41
1
41
1
10
131.79402026812232
20
17.237021398544282
30
0
10
131.25691581885019
20
16.962913856506326
30
0
10
130.70499577681224
20
16.722142457962011
30
0
10
130.14196227391562
20
16.511005071004206
30
0
0
SPLINE
5
105
100
AcDbEntity
8
0
100
AcDbSpline
70
4
71
3
72
8
73
4
74
0
42
0.000000001
43
0.0000000001
44
0.0000000001
40
0
40
0
40
0
40
0
40
1
40
1
40
1
40
1
41
1
41
1
41
1
41
1
10
130.14196227391562
20
16.511005071004206
30
0
10
128.96033361593882
20
16.00723817825315
30
0
10
127.87501266956329
20
15.55903435071307
30
0
10
126.87859093189239
20
15.173800678253148
30
0
0
SPLINE
5
106
100
AcDbEntity
8
0
100
AcDbSpline
70
4
71
3
72
8
73
4
74
0
42
0.000000001
43
0.0000000001
44
0.0000000001
40
0
40
0
40
0
40
0
40
1
40
1
40
1
40
1
41
1
41
1
41
1
41
1
10
126.87859093189239
20
15.173800678253148
30
0
10
126.0710838985443
20
14.788567005793226
30
0
10
125.43026182174683
20
14.436672302881849
30
0
10
124.95242398262025
20
14.118113743464127
30
0
0
SPLINE
5
107
100
AcDbEntity
8
0
100
AcDbSpline
70
4
71
3
72
8
73
4
74
0
42
0.000000001
43
0.0000000001
44
0.0000000001
40
0
40
0
40
0
40
0
40
1
40
1
40
1
40
1
41
1
41
1
41
1
41
1
10
124.95242398262025
20
14.118113743464127
30
0
10
124.82277871449789
20
14.044031540552751
30
0
10
124.75239864349365
20
14.00698761304217
30
0
10
124.7375816377004
20
14.003285481135027
30
0
0
LINE
5
108
100
AcDbEntity
8
0
100
AcDbLine
10
124.73758163770037
20
14.003285481135027
30
0
11
124.74498872756959
21
13.981061385472593
31
0
0
SPLINE
5
109
100
AcDbEntity
8
0
100
AcDbSpline
70
4
71
3
72
8
73
4
74
0
42
0.000000001
43
0.0000000001
44
0.0000000001
40
0
40
0
40
0
40
0
40
1
40
1
40
1
40
1
41
1
41
1
41
1
41
1
10
124.74498872756959
20
13.981061385472589
30
0
10
126.14145831743876
20
13.903274224599176
30
0
10
127.06009289423626
20
13.858823207219412
30
0
10
127.50088821887969
20
13.847711159388201
30
0
0
SPLINE
5
110
100
AcDbEntity
8
0
100
AcDbSpline
70
4
71
3
72
8
73
4
74
0
42
0.000000001
43
0.0000000001
44
0.0000000001
40
0
40
0
40
0
40
0
40
1
40
1
40
1
40
1
41
1
41
1
41
1
41
1
10
127.50088821887969
20
13.847711159388201
30
0
10
128.41952138264975
20
13.862528165181448
30
0
10
128.98625843048097
20
13.858823207219412
30
0
10
129.2048043203354
20
13.836599111556982
30
0
0
SPLINE
5
111
100
AcDbEntity
8
0
100
AcDbSpline
70
4
71
3
72
8
73
4
74
0
42
0.000000001
43
0.0000000001
44
0.0000000001
40
0
40
0
40
0
40
0
40
1
40
1
40
1
40
1
41
1
41
1
41
1
41
1
10
129.2048043203354
20
13.836599111556982
30
0
10
129.2788879362742
20
13.614349676767961
30
0
10
129.33444958845774
20
13.436548433303809
30
0
10
129.36778714497882
20
13.303198207219413
30
0
0
LINE
5
112
100
AcDbEntity
8
0
100
AcDbLine
10
129.36778714497882
20
13.303198207219413
30
0
11
129.41594170729317
21
13.117989873886081
31
0
0
SPLINE
5
113
100
AcDbEntity
8
0
100
AcDbSpline
70
4
71
3
72
8
73
4
74
0
42
0.000000001
43
0.0000000001
44
0.0000000001
40
0
40
0
40
0
40
0
40
1
40
1
40
1
40
1
41
1
41
1
41
1
41
1
10
129.4159417072932
20
13.117989873886081
30
0
10
129.43816721598307
20
13.02909066518145
30
0
10
129.46779981454213
20
12.888330523172986
30
0
10
129.50484232902528
20
12.695715099970473
30
0
0
SPLINE
5
114
100
AcDbEntity
8
0
100
AcDbSpline
70
4
71
3
72
8
73
4
74
0
42
0.000000001
43
0.0000000001
44
0.0000000001
40
0
40
0
40
0
40
0
40
1
40
1
40
1
40
1
41
1
41
1
41
1
41
1
10
129.50484232902528
20
12.695715099970473
30
0
10
129.46780122756959
20
12.654969040552748
30
0
10
128.94551378409068
20
12.343820397059094
30
0
10
127.93057149569194
20
11.76596847534177
30
0
0
SPLINE
5
115
100
AcDbEntity
8
0
100
AcDbSpline
70
4
71
3
72
8
73
4
74
0
42
0.000000001
43
0.0000000001
44
0.0000000001
40
0
40
0
40
0
40
0
40
1
40
1
40
1
40
1
41
1
41
1
41
1
41
1
10
127.93057149569194
20
11.76596847534177
30
0
10
126.99712132612862
20
11.184414421717296
30
0
10
125.93032093048096
20
10.506551243464122
30
0
10
124.73387667973837
20
9.7286768086751056
30
0
0
SPLINE
5
116
100
AcDbEntity
8
0
100
AcDbSpline
70
4
71
3
72
8
73
4
74
0
42
0.000000001
43
0.0000000001
44
0.0000000001
40
0
40
0
40
0
40
0
40
1
40
1
40
1
40
1
41
1
41
1
41
1
41
1
10
124.73387667973837
20
9.7286768086751056
30
0
10
124.74128376960755
20
9.7064527130126681
30
0
10
124.98576012611392
20
9.7249718507130662
30
0
10
125.47100505510966
20
9.7805349159240418
30
0
0
SPLINE
5
117
100
AcDbEntity
8
0
100
AcDbSpline
70
4
71
3
72
8
73
4
74
0
42
0.000000001
43
0.0000000001
44
0.0000000001
40
0
40
0
40
0
40
0
40
1
40
1
40
1
40
1
41
1
41
1
41
1
41
1
10
125.47100505510966
20
9.7805349159240418
30
0
10
127.71943410873413
20
9.9398141956329056
30
0
10
129.25666384061176
20
10.069459463755264
30
0
10
130.08269283771514
20
10.169473546346001
30
0
0
SPLINE
5
118
100
AcDbEntity
8
0
100
AcDbSpline
70
4
71
3
72
8
73
4
74
0
42
0.000000001
43
0.0000000001
44
0.0000000001
40
0
40
0
40
0
40
0
40
1
40
1
40
1
40
1
41
1
41
1
41
1
41
1
10
130.08269283771514
20
10.169473546346001
30
0
10
130.64202138264974
20
10.247260707219414
30
0
10
131.28654700438182
20
10.350976921717297
30
0
10
132.01626828988393
20
10.488032105763722
30
0
0
SPLINE
5
119
100
AcDbEntity
8
0
100
AcDbSpline
70
4
71
3
72
8
73
4
74
0
42
0.000000001
43
0.0000000001
44
0.0000000001
40
0
40
0
40
0
40
0
40
1
40
1
40
1
40
1
41
1
41
1
41
1
41
1
10
132.01626828988393
20
10.488032105763722
30
0
10
132.0718313550949
20
10.425061950683565
30
0
10
132.20518016815186
20
10.110208349227875
30
0
10
132.41631896813712
20
9.5471734333038043
30
0
0
SPLINE
5
120
100
AcDbEntity
8
0
100
AcDbSpline
70
4
71
3
72
8
73
4
74
0
42
0.000000001
43
0.0000000001
44
0.0000000001
40
0
40
0
40
0
40
0
40
1
40
1
40
1
40
1
41
1
41
1
41
1
41
1
10
132.41631896813712
20
9.5471734333038043
30
0
10
132.5163316377004
20
9.3138119506835633
30
0
10
132.63856840292613
20
8.9582122898101542
30
0
10
132.77932713190717
20
8.4803744506835628
30
0
0
LINE
5
121
100
AcDbEntity
8
0
100
AcDbLine
10
132.77932713190714
20
8.4803744506835628
30
0
11
132.76080658117931
21
8.4618524869282741
31
0
0
SPLINE
5
122
100
AcDbEntity
8
0
100
AcDbSpline
70
4
71
3
72
8
73
4
74
0
42
0.000000001
43
0.0000000001
44
0.0000000001
40
0
40
0
40
0
40
0
40
1
40
1
40
1
40
1
41
1
41
1
41
1
41
1
10
132.76080658117931
20
8.4618524869282759
30
0
10
131.84587696234385
20
8.3692483202616064
30
0
10
130.8716821463903
20
8.2544200579325064
30
0
10
129.8382193072637
20
8.1173648738860784
30
0
0
SPLINE
5
123
100
AcDbEntity
8
0
100
AcDbSpline
70
4
71
3
72
8
73
4
74
0
42
0.000000001
43
0.0000000001
44
0.0000000001
40
0
40
0
40
0
40
0
40
1
40
1
40
1
40
1
41
1
41
1
41
1
41
1
10
129.8382193072637
20
8.1173648738860784
30
0
10
127.5157066377004
20
7.8840033912658392
30
0
10
124.51903716087342
20
7.6210078970590933
30
0
10
120.8482066377004
20
7.3283783912658418
30
0
0
SPLINE
5
124
100
AcDbEntity
8
0
100
AcDbSpline
70
4
71
3
72
8
73
4
74
0
42
0.000000001
43
0.0000000001
44
0.0000000001
40
0
40
0
40
0
40
0
40
1
40
1
40
1
40
1
41
1
41
1
41
1
41
1
10
120.8482066377004
20
7.3283783912658418
30
0
10
120.72967341740926
20
7.5950788434346252
30
0
10
120.5703941377004
20
8.0210585753122654
30
0
10
120.3592567507426
20
8.6063147608438832
30
0
0
SPLINE
5
125
100
AcDbEntity
8
0
100
AcDbSpline
70
4
71
3
72
8
73
4
74
0
42
0.000000001
43
0.0000000001
44
0.0000000001
40
0
40
0
40
0
40
0
40
1
40
1
40
1
40
1
41
1
41
1
41
1
41
1
10
120.3592567507426
20
8.6063147608438832
30
0
10
123.20405686378479
20
10.376905975341773
30
0
10
125.00798704783122
20
11.491860933303805
30
0
10
125.77845156669616
20
11.95488176663714
30
0
0
LINE
5
126
100
AcDbEntity
8
0
100
AcDbLine
10
125.77845156669618
20
11.95488176663714
30
0
11
125.77104447682697
21
11.988217910130794
31
0
0
SPLINE
5
127
100
AcDbEntity
8
0
100
AcDbSpline
70
4
71
3
72
8
73
4
74
0
42
0.000000001
43
0.0000000001
44
0.0000000001
40
0
40
0
40
0
40
0
40
1
40
1
40
1
40
1
41
1
41
1
41
1
41
1
10
125.77104447682699
20
11.988217910130793
30
0
10
125.05984515508015
20
12.077117118835423
30
0
10
124.07824042320252
20
12.114158220291111
30
0
10
122.82993523915607
20
12.10675113042193
30
0
0
SPLINE
5
128
100
AcDbEntity
8
0
100
AcDbSpline
70
4
71
3
72
8
73
4
74
0
42
0.000000001
43
0.0000000001
44
0.0000000001
40
0
40
0
40
0
40
0
40
1
40
1
40
1
40
1
41
1
41
1
41
1
41
1
10
122.82993523915607
20
12.10675113042193
30
0
10
121.93722971598307
20
12.147497189839655
30
0
10
120.76300956090292
20
12.140087273915579
30
0
10
119.3146818637848
20
12.088229166666641
30
0
0
SPLINE
5
129
100
AcDbEntity
8
0
100
AcDbSpline
70
4
71
3
72
8
73
4
74
0
42
0.000000001
43
0.0000000001
44
0.0000000001
40
0
40
0
40
0
40
0
40
1
40
1
40
1
40
1
41
1
41
1
41
1
41
1
10
119.3146818637848
20
12.088229166666641
30
0
10
119.26282375653585
20
12.225284350713068
30
0
10
119.21837273915608
20
12.366041666666639
30
0
10
119.17762667973835
20
12.521615988413464
30
0
0
SPLINE
5
130
100
AcDbEntity
8
0
100
AcDbSpline
70
4
71
3
72
8
73
4
74
0
42
0.000000001
43
0.0000000001
44
0.0000000001
40
0
40
0
40
0
40
0
40
1
40
1
40
1
40
1
41
1
41
1
41
1
41
1
10
119.17762667973835
20
12.521615988413464
30
0
10
119.16280967394511
20
12.580884011586477
30
0
10
119.10724660873413
20
12.806835578282648
30
0
10
119.01094031016031
20
13.203181298573789
30
0
0
SPLINE
5
131
100
AcDbEntity
8
0
100
AcDbSpline
70
4
71
3
72
8
73
4
74
0
42
0.000000001
43
0.0000000001
44
0.0000000001
40
0
40
0
40
0
40
0
40
1
40
1
40
1
40
1
41
1
41
1
41
1
41
1
10
119.01094031016031
20
13.203181298573789
30
0
10
120.91858670870464
20
14.062547852198257
30
0
10
123.02625562032064
20
15.055264631907121
30
0
10
125.32654560724895
20
16.173924547831191
30
0
0
SPLINE
5
132
100
AcDbEntity
8
0
100
AcDbSpline
70
4
71
3
72
8
73
4
74
0
42
0.000000001
43
0.0000000001
44
0.0000000001
40
0
40
0
40
0
40
0
40
1
40
1
40
1
40
1
41
1
41
1
41
1
41
1
10
125.32654560724895
20
16.173924547831191
30
0
10
129.07886683622996
20
17.848206637700375
30
0
10
130.97539977391563
20
18.689054053624446
30
0
10
131.01984937826791
20
18.700166101455665
30
0
0
LINE
5
133
100
AcDbEntity
8
0
100
AcDbLine
10
131.01984937826791
20
18.700166101455661
30
0
11
131.01984937826791
21
18.689054053624446
31
0
0
SPLINE
5
134
100
AcDbEntity
8
0
100
AcDbSpline
70
4
71
3
72
8
73
4
74
0
42
0.000000001
43
0.0000000001
44
0.0000000001
40
0
40
0
40
0
40
0
40
1
40
1
40
1
40
1
41
1
41
1
41
1
41
1
10
131.01984937826791
20
18.689054053624446
30
0
10
131.44212415218357
20
18.070458898544285
30
0
10
131.70141610145569
20
17.58521114349363
30
0
10
131.79402026812232
20
17.225909350713071
30
0
0
LINE
5
135
100
AcDbEntity
8
0
100
AcDbLine
10
131.79402026812232
20
17.225909350713067
30
0
11
131.79402026812232
21
17.237021398544282
31
0
0
SPLINE
5
136
100
AcDbEntity
8
0
100
AcDbSpline
70
4
71
3
72
8
73
4
74
0
42
0.000000001
43
0.0000000001
44
0.0000000001
40
0
40
0
40
0
40
0
40
1
40
1
40
1
40
1
41
1
41
1
41
1
41
1
10
132.62745776812235
20
2.9611627260843623
30
0
10
132.60523225943248
20
1.8943637434641225
30
0
10
132.59412021160125
20
1.3091047318776117
30
0
10
132.59412021160125
20
1.2016835594176922
30
0
0
LINE
5
137
100
AcDbEntity
8
0
100
AcDbLine
10
132.59412021160125
20
1.2016835594176922
30
0
11
132.60523225943248
21
0.80533783912655421
31
0
0
SPLINE
5
138
100
AcDbEntity
8
0
100
AcDbSpline
70
0
71
2
72
6
73
3
74
0
42
0.000000001
43
0.0000000001
44
0.0000000001
40
0
40
0
40
0
40
1
40
1
40
1
10
132.60523225943248
20
0.80533783912655754
30
0
10
132.01997324784597
20
0.64235360145565634
30
0
10
130.89390765508017
20
0.36454110145566043
30
0
0
SPLINE
5
139
100
AcDbEntity
8
0
100
AcDbSpline
70
4
71
3
72
8
73
4
74
0
42
0.000000001
43
0.0000000001
44
0.0000000001
40
0
40
0
40
0
40
0
40
1
40
1
40
1
40
1
41
1
41
1
41
1
41
1
10
130.89390765508017
20
0.36454110145566043
30
0
10
129.36779138406118
20
-0.050326582590768387
30
0
10
128.00465793768564
20
-0.39851632754010824
30
0
10
126.80821227391561
20
-0.68003378550214766
30
0
0
SPLINE
5
140
100
AcDbEntity
8
0
100
AcDbSpline
70
4
71
3
72
8
73
4
74
0
42
0.000000001
43
0.0000000001
44
0.0000000001
40
0
40
0
40
0
40
0
40
1
40
1
40
1
40
1
41
1
41
1
41
1
41
1
10
126.80821227391561
20
-0.68003378550214766
30
0
10
125.14504223187764
20
-1.1393524869283334
30
0
10
123.4633502260844
20
-1.5949634043375993
30
0
10
121.77054617245992
20
-2.0431644058227838
30
0
0
SPLINE
5
141
100
AcDbEntity
8
0
100
AcDbSpline
70
4
71
3
72
8
73
4
74
0
42
0.000000001
43
0.0000000001
44
0.0000000001
40
0
40
0
40
0
40
0
40
1
40
1
40
1
40
1
41
1
41
1
41
1
41
1
10
121.77054617245992
20
-2.0431644058227838
30
0
10
121.61867398262024
20
-2.1024324289958027
30
0
10
121.37049549420674
20
-2.1802167638143222
30
0
10
121.0223057492574
20
-2.2691187985738415
30
0
0
LINE
5
142
100
AcDbEntity
8
0
100
AcDbLine
10
121.02230574925741
20
-2.2691187985738415
30
0
11
121.01119370142618
21
-2.2691187985738415
31
0
0
LINE
5
143
100
AcDbEntity
8
0
100
AcDbLine
10
121.01119370142618
20
-2.2691187985738415
30
0
11
120.71485923767088
21
0.023761272430390945
31
0
0
SPLINE
5
144
100
AcDbEntity
8
0
100
AcDbSpline
70
4
71
3
72
8
73
4
74
0
42
0.000000001
43
0.0000000001
44
0.0000000001
40
0
40
0
40
0
40
0
40
1
40
1
40
1
40
1
41
1
41
1
41
1
41
1
10
120.71485923767088
20
0.02376127243038928
30
0
10
121.20010416666666
20
0.20526464780168452
30
0
10
121.95204954783122
20
0.42751408259070478
30
0
10
122.97440033912659
20
0.69421453475948802
30
0
0
SPLINE
5
145
100
AcDbEntity
8
0
100
AcDbSpline
70
4
71
3
72
8
73
4
74
0
42
0.000000001
43
0.0000000001
44
0.0000000001
40
0
40
0
40
0
40
0
40
1
40
1
40
1
40
1
41
1
41
1
41
1
41
1
10
122.97440033912659
20
0.69421453475948802
30
0
10
123.15590371449788
20
0.76088964780168855
30
0
10
123.25591779708861
20
0.80163570721940802
30
0
10
123.27073480288189
20
0.80904279708858884
30
0
0
SPLINE
5
146
100
AcDbEntity
8
0
100
AcDbSpline
70
4
71
3
72
8
73
4
74
0
42
0.000000001
43
0.0000000001
44
0.0000000001
40
0
40
0
40
0
40
0
40
1
40
1
40
1
40
1
41
1
41
1
41
1
41
1
10
123.27073480288189
20
0.80904279708858884
30
0
10
123.29295889854433
20
1.2387274869282738
30
0
10
123.30407094637553
20
1.5980292797088325
30
0
10
123.30407094637553
20
1.8869566535949418
30
0
0
SPLINE
5
147
100
AcDbEntity
8
0
100
AcDbSpline
70
4
71
3
72
8
73
4
74
0
42
0.000000001
43
0.0000000001
44
0.0000000001
40
0
40
0
40
0
40
0
40
1
40
1
40
1
40
1
41
1
41
1
41
1
41
1
10
123.30407094637553
20
1.8869566535949418
30
0
10
123.30407094637553
20
2.1351351420084308
30
0
10
123.26702984491985
20
2.63149494489031
30
0
10
123.18924268404642
20
3.372328278223641
30
0
0
SPLINE
5
148
100
AcDbEntity
8
0
100
AcDbSpline
70
4
71
3
72
8
73
4
74
0
42
0.000000001
43
0.0000000001
44
0.0000000001
40
0
40
0
40
0
40
0
40
1
40
1
40
1
40
1
41
1
41
1
41
1
41
1
10
123.18924268404642
20
3.372328278223641
30
0
10
122.38173423767088
20
3.6686627419789311
30
0
10
121.60385980288186
20
3.8835022608438825
30
0
10
120.86302646954854
20
4.0205574448903088
30
0
0
LINE
5
149
100
AcDbEntity
8
0
100
AcDbLine
10
120.86302646954856
20
4.0205574448903088
30
0
11
120.60373593330382
21
4.076120510101287
31
0
0
SPLINE
5
150
100
AcDbEntity
8
0
100
AcDbSpline
70
4
71
3
72
8
73
4
74
0
42
0.000000001
43
0.0000000001
44
0.0000000001
40
0
40
0
40
0
40
0
40
1
40
1
40
1
40
1
41
1
41
1
41
1
41
1
10
120.60373593330382
20
4.0761205101012905
30
0
10
120.70374718983967
20
4.8317708492278779
30
0
10
120.8593243376414
20
5.4762950579325071
30
0
10
121.08157377243043
20
6.0059910043080382
30
0
0
SPLINE
5
151
100
AcDbEntity
8
0
100
AcDbSpline
70
4
71
3
72
8
73
4
74
0
42
0.000000001
43
0.0000000001
44
0.0000000001
40
0
40
0
40
0
40
0
40
1
40
1
40
1
40
1
41
1
41
1
41
1
41
1
10
121.08157377243043
20
6.0059910043080382
30
0
10
121.66312782605488
20
5.8763457361856801
30
0
10
123.65596847534179
20
5.398507897059095
30
0
10
127.06009854634603
20
4.5650703970590945
30
0
0
SPLINE
5
152
100
AcDbEntity
8
0
100
AcDbSpline
70
4
71
3
72
8
73
4
74
0
42
0.000000001
43
0.0000000001
44
0.0000000001
40
0
40
0
40
0
40
0
40
1
40
1
40
1
40
1
41
1
41
1
41
1
41
1
10
127.06009854634603
20
4.5650703970590945
30
0
10
128.20098255793255
20
4.2909628550211298
30
0
10
130.05676943620045
20
3.7723789564768193
30
0
10
132.62005350430806
20
2.9982066535949379
30
0
0
LINE
5
153
100
AcDbEntity
8
0
100
AcDbLine
10
132.62005350430803
20
2.9982066535949379
30
0
11
132.63116555213929
21
2.9648705101012856
31
0
0
LINE
5
154
100
AcDbEntity
8
0
100
AcDbLine
10
132.63116555213929
20
2.9648705101012856
30
0
11
132.62745776812235
21
2.9611627260843623
31
0
0
SPLINE
5
155
100
AcDbEntity
8
0
100
AcDbSpline
70
4
71
3
72
8
73
4
74
0
42
0.000000001
43
0.0000000001
44
0.0000000001
40
0
40
0
40
0
40
0
40
1
40
1
40
1
40
1
41
1
41
1
41
1
41
1
10
129.36038288116455
20
2.2092173449198125
30
0
10
128.43804475943247
20
2.535182994206715
30
0
10
127.66757882754008
20
2.77595439275103
30
0
10
127.04527871449787
20
2.9352336724598871
30
0
0
SPLINE
5
156
100
AcDbEntity
8
0
100
AcDbSpline
70
4
71
3
72
8
73
4
74
0
42
0.000000001
43
0.0000000001
44
0.0000000001
40
0
40
0
40
0
40
0
40
1
40
1
40
1
40
1
41
1
41
1
41
1
41
1
10
127.04527871449787
20
2.9352336724598871
30
0
10
126.50817426522573
20
3.07228885650632
30
0
10
125.9080996608734
20
3.2204532623290705
30
0
10
125.24134853045146
20
3.3760304101307907
30
0
0
SPLINE
5
157
100
AcDbEntity
8
0
100
AcDbSpline
70
4
71
3
72
8
73
4
74
0
42
0.000000001
43
0.0000000001
44
0.0000000001
40
0
40
0
40
0
40
0
40
1
40
1
40
1
40
1
41
1
41
1
41
1
41
1
10
125.24134853045146
20
3.3760304101307907
30
0
10
125.14133727391561
20
3.4056644217172973
30
0
10
125.00798704783122
20
3.4390005652109479
30
0
10
124.8338907623291
20
3.4797466246286728
30
0
0
SPLINE
5
158
100
AcDbEntity
8
0
100
AcDbSpline
70
4
71
3
72
8
73
4
74
0
42
0.000000001
43
0.0000000001
44
0.0000000001
40
0
40
0
40
0
40
0
40
1
40
1
40
1
40
1
41
1
41
1
41
1
41
1
10
124.8338907623291
20
3.4797466246286728
30
0
10
124.81166666666667
20
3.3575084463754967
30
0
10
124.80055461883545
20
3.1241469637552575
30
0
10
124.80055461883545
20
2.77595439275103
30
0
0
LINE
5
159
100
AcDbEntity
8
0
100
AcDbLine
10
124.80055461883545
20
2.77595439275103
30
0
11
124.80055461883545
21
1.3016948159535442
31
0
0
SPLINE
5
160
100
AcDbEntity
8
0
100
AcDbSpline
70
4
71
3
72
8
73
4
74
0
42
0.000000001
43
0.0000000001
44
0.0000000001
40
0
40
0
40
0
40
0
40
1
40
1
40
1
40
1
41
1
41
1
41
1
41
1
10
124.80055461883545
20
1.3016948159535424
30
0
10
124.80055461883545
20
1.2350197029113485
30
0
10
124.80055461883545
20
1.1238935724893913
30
0
10
124.81166666666667
20
0.97202420870460271
30
0
0
SPLINE
5
161
100
AcDbEntity
8
0
100
AcDbSpline
70
4
71
3
72
8
73
4
74
0
42
0.000000001
43
0.0000000001
44
0.0000000001
40
0
40
0
40
0
40
0
40
1
40
1
40
1
40
1
41
1
41
1
41
1
41
1
10
124.81166666666667
20
0.97202420870460271
30
0
10
125.53027590433756
20
1.168344589869148
30
0
10
126.47113316377003
20
1.4128209463754997
30
0
10
127.63794622898102
20
1.7091525840758959
30
0
0
SPLINE
5
162
100
AcDbEntity
8
0
100
AcDbSpline
70
4
71
3
72
8
73
4
74
0
42
0.000000001
43
0.0000000001
44
0.0000000001
40
0
40
0
40
0
40
0
40
1
40
1
40
1
40
1
41
1
41
1
41
1
41
1
10
127.63794622898102
20
1.7091525840758959
30
0
10
127.93427927970887
20
1.8091638406117467
30
0
10
128.31210444927217
20
1.9128828811645227
30
0
10
128.77142173767089
20
2.0277111434936232
30
0
0
SPLINE
5
163
100
AcDbEntity
8
0
100
AcDbSpline
70
4
71
3
72
8
73
4
74
0
42
0.000000001
43
0.0000000001
44
0.0000000001
40
0
40
0
40
0
40
0
40
1
40
1
40
1
40
1
41
1
41
1
41
1
41
1
10
128.77142173767089
20
2.0277111434936232
30
0
10
128.78623874346414
20
2.0351182333628048
30
0
10
128.98255912462869
20
2.0906812985737799
30
0
10
129.36038429419199
20
2.1981024710337
30
0
0
LINE
5
164
100
AcDbEntity
8
0
100
AcDbLine
10
129.36038429419199
20
2.1981024710337
30
0
11
129.36038288116455
21
2.2092173449198125
31
0
0
SPLINE
5
165
100
AcDbEntity
8
0
100
AcDbSpline
70
0
71
2
72
6
73
3
74
0
42
0.000000001
43
0.0000000001
44
0.0000000001
40
0
40
0
40
0
40
1
40
1
40
1
10
134.76105855941771
20
-5.0027956072489772
30
0
10
134.42768299420675
20
-5.1028096898397157
30
0
10
133.80538288116458
20
-5.2620861434936845
30
0
0
SPLINE
5
166
100
AcDbEntity
8
0
100
AcDbSpline
70
4
71
3
72
8
73
4
74
0
42
0.000000001
43
0.0000000001
44
0.0000000001
40
0
40
0
40
0
40
0
40
1
40
1
40
1
40
1
41
1
41
1
41
1
41
1
10
133.80538288116458
20
-5.2620861434936845
30
0
10
132.89786176522571
20
-5.5769425710042615
30
0
10
132.09776182174681
20
-5.8177111434936819
30
0
10
131.40878659566243
20
-5.9769875971476587
30
0
0
SPLINE
5
167
100
AcDbEntity
8
0
100
AcDbSpline
70
4
71
3
72
8
73
4
74
0
42
0.000000001
43
0.0000000001
44
0.0000000001
40
0
40
0
40
0
40
0
40
1
40
1
40
1
40
1
41
1
41
1
41
1
41
1
10
131.40878659566243
20
-5.9769875971476587
30
0
10
130.40866131305694
20
-6.1325619188944858
30
0
10
129.48632460435232
20
-6.3992623710632675
30
0
10
128.64177364349365
20
-6.7733811696370783
30
0
0
LINE
5
168
100
AcDbEntity
8
0
100
AcDbLine
10
128.64177364349365
20
-6.7733811696370783
30
0
11
128.64177364349365
21
-6.7844932174682953
31
0
0
SPLINE
5
169
100
AcDbEntity
8
0
100
AcDbSpline
70
4
71
3
72
8
73
4
74
0
42
0.000000001
43
0.0000000001
44
0.0000000001
40
0
40
0
40
0
40
0
40
1
40
1
40
1
40
1
41
1
41
1
41
1
41
1
10
128.64177364349365
20
-6.784493217468297
30
0
10
128.9010655927658
20
-7.0104476102193551
30
0
10
129.26036879857381
20
-7.2104701232910484
30
0
10
129.71598254203795
20
-7.3771621449788771
30
0
0
SPLINE
5
170
100
AcDbEntity
8
0
100
AcDbSpline
70
4
71
3
72
8
73
4
74
0
42
0.000000001
43
0.0000000001
44
0.0000000001
40
0
40
0
40
0
40
0
40
1
40
1
40
1
40
1
41
1
41
1
41
1
41
1
10
129.71598254203795
20
-7.3771621449788771
30
0
10
130.00120354493458
20
-7.4919904073079779
30
0
10
131.43101210435233
20
-8.1587415377299326
30
0
10
134.00540822029114
20
-9.3774098841349733
30
0
0
LINE
5
171
100
AcDbEntity
8
0
100
AcDbLine
10
134.00540822029114
20
-9.3774098841349733
30
0
11
134.00540822029114
21
-9.3996339797974073
31
0
0
LINE
5
172
100
AcDbEntity
8
0
100
AcDbLine
10
134.00540822029114
20
-9.3996339797974073
30
0
11
133.24975788116456
21
-10.747950420379675
31
0
0
SPLINE
5
173
100
AcDbEntity
8
0
100
AcDbSpline
70
4
71
3
72
8
73
4
74
0
42
0.000000001
43
0.0000000001
44
0.0000000001
40
0
40
0
40
0
40
0
40
1
40
1
40
1
40
1
41
1
41
1
41
1
41
1
10
133.24975788116456
20
-10.747950420379684
30
0
10
133.2423493782679
20
-10.747950420379684
30
0
10
133.23864583333332
20
-10.755360336303747
30
0
10
133.23494087537131
20
-10.770174516042111
30
0
0
SPLINE
5
174
100
AcDbEntity
8
0
100
AcDbSpline
70
4
71
3
72
8
73
4
74
0
42
0.000000001
43
0.0000000001
44
0.0000000001
40
0
40
0
40
0
40
0
40
1
40
1
40
1
40
1
41
1
41
1
41
1
41
1
10
133.23494087537131
20
-10.770174516042111
30
0
10
132.79414555072785
20
-10.510883979797407
30
0
10
132.41261542320251
20
-10.299743766784712
30
0
10
132.09405686378477
20
-10.13675952911381
30
0
0
SPLINE
5
175
100
AcDbEntity
8
0
100
AcDbSpline
70
4
71
3
72
8
73
4
74
0
42
0.000000001
43
0.0000000001
44
0.0000000001
40
0
40
0
40
0
40
0
40
1
40
1
40
1
40
1
41
1
41
1
41
1
41
1
10
132.09405686378477
20
-10.13675952911381
30
0
10
130.95687781016031
20
-9.5885444450378809
30
0
10
129.62708192030587
20
-8.9032713508606314
30
0
10
128.10466919422149
20
-8.0809458986918496
30
0
0
LINE
5
176
100
AcDbEntity
8
0
100
AcDbLine
10
128.10466919422149
20
-8.0809458986918496
30
0
11
126.77116975943247
21
-7.4179025522868187
31
0
0
SPLINE
5
177
100
AcDbEntity
8
0
100
AcDbSpline
70
4
71
3
72
8
73
4
74
0
42
0.000000001
43
0.0000000001
44
0.0000000001
40
0
40
0
40
0
40
0
40
1
40
1
40
1
40
1
41
1
41
1
41
1
41
1
10
126.77116975943247
20
-7.4179025522868187
30
0
10
125.68585022608438
20
-7.3252983856201492
30
0
10
124.54496621449789
20
-7.2401041348775568
30
0
10
123.34111204783122
20
-7.1660219319661795
30
0
0
SPLINE
5
178
100
AcDbEntity
8
0
100
AcDbSpline
70
4
71
3
72
8
73
4
74
0
42
0.000000001
43
0.0000000001
44
0.0000000001
40
0
40
0
40
0
40
0
40
1
40
1
40
1
40
1
41
1
41
1
41
1
41
1
10
123.34111204783122
20
-7.1660219319661795
30
0
10
122.36321227391559
20
-7.0660078493754419
30
0
10
121.8742623869578
20
-6.99562777837121
30
0
10
121.87796734491982
20
-6.9585895029704092
30
0
0
SPLINE
5
179
100
AcDbEntity
8
0
100
AcDbSpline
70
4
71
3
72
8
73
4
74
0
42
0.000000001
43
0.0000000001
44
0.0000000001
40
0
40
0
40
0
40
0
40
1
40
1
40
1
40
1
41
1
41
1
41
1
41
1
10
121.87796734491982
20
-6.9585895029704092
30
0
10
121.92982545216879
20
-6.1658980623881359
30
0
10
121.96686655362447
20
-5.6880630493164386
30
0
10
121.98168355941772
20
-5.5213710276286099
30
0
0
SPLINE
5
180
100
AcDbEntity
8
0
100
AcDbSpline
70
4
71
3
72
8
73
4
74
0
42
0.000000001
43
0.0000000001
44
0.0000000001
40
0
40
0
40
0
40
0
40
1
40
1
40
1
40
1
41
1
41
1
41
1
41
1
10
121.98168355941772
20
-5.5213710276286099
30
0
10
121.99279560724892
20
-5.3991328493754409
30
0
10
122.02613457679747
20
-5.0805742899577133
30
0
10
122.08910473187763
20
-4.5619932174682978
30
0
0
LINE
5
181
100
AcDbEntity
8
0
100
AcDbLine
10
122.08910473187763
20
-4.5619932174682951
30
0
11
122.12244087537128
21
-4.5545833015442252
31
0
0
LINE
5
182
100
AcDbEntity
8
0
100
AcDbLine
10
122.12244087537128
20
-4.5545833015442252
30
0
11
123.50039132754007
21
-4.6731193478902515
31
0
0
SPLINE
5
183
100
AcDbEntity
8
0
100
AcDbSpline
70
4
71
3
72
8
73
4
74
0
42
0.000000001
43
0.0000000001
44
0.0000000001
40
0
40
0
40
0
40
0
40
1
40
1
40
1
40
1
41
1
41
1
41
1
41
1
10
123.50039132754007
20
-4.673119347890248
30
0
10
124.54496621449789
20
-4.7805376942952806
30
0
10
125.1042961724599
20
-4.8361035855611503
30
0
10
125.17097128550211
20
-4.8398057174682929
30
0
0
SPLINE
5
184
100
AcDbEntity
8
0
100
AcDbSpline
70
4
71
3
72
8
73
4
74
0
42
0.000000001
43
0.0000000001
44
0.0000000001
40
0
40
0
40
0
40
0
40
1
40
1
40
1
40
1
41
1
41
1
41
1
41
1
10
125.17097128550211
20
-4.8398057174682929
30
0
10
125.85624155362447
20
-4.8990737406413061
30
0
10
126.46372607390086
20
-4.9435219319661812
30
0
10
126.99342060724895
20
-4.9768580754598313
30
0
0
SPLINE
5
185
100
AcDbEntity
8
0
100
AcDbSpline
70
4
71
3
72
8
73
4
74
0
42
0.000000001
43
0.0000000001
44
0.0000000001
40
0
40
0
40
0
40
0
40
1
40
1
40
1
40
1
41
1
41
1
41
1
41
1
10
126.99342060724895
20
-4.9768580754598313
30
0
10
127.59349521160125
20
-4.6397775522868159
30
0
10
128.57139639854429
20
-4.2915849812825826
30
0
10
129.93082488695782
20
-3.9211683146159162
30
0
0
SPLINE
5
186
100
AcDbEntity
8
0
100
AcDbSpline
70
4
71
3
72
8
73
4
74
0
42
0.000000001
43
0.0000000001
44
0.0000000001
40
0
40
0
40
0
40
0
40
1
40
1
40
1
40
1
41
1
41
1
41
1
41
1
10
129.93082488695782
20
-3.9211683146159162
30
0
10
130.63091216087341
20
-3.7100281016032213
30
0
10
131.53843327681221
20
-3.4729616610209502
30
0
10
132.64597973187765
20
-3.2099689928690922
30
0
0
SPLINE
5
187
100
AcDbEntity
8
0
100
AcDbSpline
70
4
71
3
72
8
73
4
74
0
42
0.000000001
43
0.0000000001
44
0.0000000001
40
0
40
0
40
0
40
0
40
1
40
1
40
1
40
1
41
1
41
1
41
1
41
1
10
132.64597973187765
20
-3.2099689928690922
30
0
10
133.63499155362447
20
-2.9099323972066582
30
0
10
134.1498719072342
20
-2.7580602073669755
30
0
10
134.18691300868988
20
-2.76176233927412
30
0
0
SPLINE
5
188
100
AcDbEntity
8
0
100
AcDbSpline
70
4
71
3
72
8
73
4
74
0
42
0.000000001
43
0.0000000001
44
0.0000000001
40
0
40
0
40
0
40
0
40
1
40
1
40
1
40
1
41
1
41
1
41
1
41
1
10
134.18691300868988
20
-2.76176233927412
30
0
10
134.40545889854431
20
-3.4025815900167178
30
0
10
134.56473817825321
20
-3.9841384696960791
30
0
10
134.66104588985442
20
-4.499017410278352
30
0
0
SPLINE
5
189
100
AcDbEntity
8
0
100
AcDbSpline
70
4
71
3
72
8
73
4
74
0
42
0.000000001
43
0.0000000001
44
0.0000000001
40
0
40
0
40
0
40
0
40
1
40
1
40
1
40
1
41
1
41
1
41
1
41
1
10
134.66104588985442
20
-4.499017410278352
30
0
10
134.72401604493459
20
-4.8064639218648608
30
0
10
134.75735360145569
20
-4.9731502914429058
30
0
10
134.75365005652111
20
-4.9953743871053371
30
0
0
LINE
5
190
100
AcDbEntity
8
0
100
AcDbLine
10
134.75365005652108
20
-4.9953743871053362
30
0
11
134.76105855941771
21
-5.0027956072489772
31
0
0
LINE
5
191
100
AcDbEntity
8
0
100
AcDbLine
10
124.0671283753713
20
28.105046455065388
30
0
11
123.89303208986918
21
27.208637386957783
31
0
0
SPLINE
5
192
100
AcDbEntity
8
0
100
AcDbSpline
70
4
71
3
72
8
73
4
74
0
42
0.000000001
43
0.0000000001
44
0.0000000001
40
0
40
0
40
0
40
0
40
1
40
1
40
1
40
1
41
1
41
1
41
1
41
1
10
123.89303208986918
20
27.208637386957783
30
0
10
123.53372747103373
20
27.07528716087339
30
0
10
122.45581644058228
20
26.867854731877621
30
0
10
120.65559121449789
20
26.586337273915586
30
0
0
SPLINE
5
193
100
AcDbEntity
8
0
100
AcDbSpline
70
4
71
3
72
8
73
4
74
0
42
0.000000001
43
0.0000000001
44
0.0000000001
40
0
40
0
40
0
40
0
40
1
40
1
40
1
40
1
41
1
41
1
41
1
41
1
10
120.65559121449789
20
26.586337273915586
30
0
10
120.02958614349366
20
26.49002956231433
30
0
10
118.31455799420674
20
26.301116271018962
30
0
10
115.50309402465821
20
26.012191723187744
30
0
0
SPLINE
5
194
100
AcDbEntity
8
0
100
AcDbSpline
70
4
71
3
72
8
73
4
74
0
42
0.000000001
43
0.0000000001
44
0.0000000001
40
0
40
0
40
0
40
0
40
1
40
1
40
1
40
1
41
1
41
1
41
1
41
1
10
115.50309402465821
20
26.012191723187744
30
0
10
113.78436091740924
20
25.841800395647667
30
0
10
112.27306023915608
20
25.597325452168764
30
0
10
110.96919481595357
20
25.275061934789001
30
0
0
SPLINE
5
195
100
AcDbEntity
8
0
100
AcDbSpline
70
4
71
3
72
8
73
4
74
0
42
0.000000001
43
0.0000000001
44
0.0000000001
40
0
40
0
40
0
40
0
40
1
40
1
40
1
40
1
41
1
41
1
41
1
41
1
10
110.96919481595357
20
25.275061934789001
30
0
10
110.95067285219827
20
25.249132881164531
30
0
10
110.79139357248941
20
25.208386821746807
30
0
10
110.49135697682699
20
25.152823756535831
30
0
0
LINE
5
196
100
AcDbEntity
8
0
100
AcDbLine
10
110.49135697682701
20
25.152823756535831
30
0
11
110.48394988695782
21
25.112077697118103
31
0
0
SPLINE
5
197
100
AcDbEntity
8
0
100
AcDbSpline
70
4
71
3
72
8
73
4
74
0
42
0.000000001
43
0.0000000001
44
0.0000000001
40
0
40
0
40
0
40
0
40
1
40
1
40
1
40
1
41
1
41
1
41
1
41
1
10
110.48394988695779
20
25.112077697118103
30
0
10
111.71373310724894
20
24.16751547972359
30
0
10
114.18070946375528
20
22.848831637700378
30
0
10
117.8885782623291
20
21.15973254203794
30
0
0
SPLINE
5
198
100
AcDbEntity
8
0
100
AcDbSpline
70
4
71
3
72
8
73
4
74
0
42
0.000000001
43
0.0000000001
44
0.0000000001
40
0
40
0
40
0
40
0
40
1
40
1
40
1
40
1
41
1
41
1
41
1
41
1
10
117.8885782623291
20
21.15973254203794
30
0
10
119.04798141161601
20
20.530025339126567
30
0
10
119.9480940246582
20
19.937356411615983
30
0
10
120.59262105941772
20
19.378029279708837
30
0
0
SPLINE
5
199
100
AcDbEntity
8
0
100
AcDbSpline
70
4
71
3
72
8
73
4
74
0
42
0.000000001
43
0.0000000001
44
0.0000000001
40
0
40
0
40
0
40
0
40
1
40
1
40
1
40
1
41
1
41
1
41
1
41
1
10
120.59262105941772
20
19.378029279708837
30
0
10
119.95550394058228
20
17.211092344919813
30
0
10
119.55915822029112
20
15.933153149286879
30
0
10
119.41099098841349
20
15.540512386957776
30
0
0
LINE
5
200
100
AcDbEntity
8
0
100
AcDbLine
10
119.41099098841349
20
15.540512386957776
30
0
11
111.36924549420675
21
16.892533785502092
31
0
0
SPLINE
5
201
100
AcDbEntity
8
0
100
AcDbSpline
70
4
71
3
72
8
73
4
74
0
42
0.000000001
43
0.0000000001
44
0.0000000001
40
0
40
0
40
0
40
0
40
1
40
1
40
1
40
1
41
1
41
1
41
1
41
1
10
111.36924549420675
20
16.892533785502092
30
0
10
109.99499999999999
20
17.159234237670869
30
0
10
106.97980855941772
20
17.740788291295353
30
0
10
102.32366834640503
20
18.633490988413474
30
0
0
SPLINE
5
202
100
AcDbEntity
8
0
100
AcDbSpline
70
4
71
3
72
8
73
4
74
0
42
0.000000001
43
0.0000000001
44
0.0000000001
40
0
40
0
40
0
40
0
40
1
40
1
40
1
40
1
41
1
41
1
41
1
41
1
10
102.32366834640503
20
18.633490988413474
30
0
10
99.360335013071676
20
19.255791101455671
30
0
10
97.886078262329079
20
19.607685804367044
30
0
10
97.900892442067459
20
19.689177923202497
30
0
0
SPLINE
5
203
100
AcDbEntity
8
0
100
AcDbSpline
70
4
71
3
72
8
73
4
74
0
42
0.000000001
43
0.0000000001
44
0.0000000001
40
0
40
0
40
0
40
0
40
1
40
1
40
1
40
1
41
1
41
1
41
1
41
1
10
97.900892442067459
20
19.689177923202497
30
0
10
97.926824321746835
20
20.418899208704609
30
0
10
98.004608656565338
20
21.104169476826968
30
0
10
98.126846834818508
20
21.741286595662416
30
0
0
SPLINE
5
204
100
AcDbEntity
8
0
100
AcDbSpline
70
4
71
3
72
8
73
4
74
0
42
0.000000001
43
0.0000000001
44
0.0000000001
40
0
40
0
40
0
40
0
40
1
40
1
40
1
40
1
41
1
41
1
41
1
41
1
10
98.126846834818508
20
21.741286595662416
30
0
10
98.371323191324862
20
22.774749434789005
30
0
10
98.54171169281004
20
23.282221285502096
30
0
10
98.641725775400772
20
23.263699321746813
30
0
0
SPLINE
5
205
100
AcDbEntity
8
0
100
AcDbSpline
70
4
71
3
72
8
73
4
74
0
42
0.000000001
43
0.0000000001
44
0.0000000001
40
0
40
0
40
0
40
0
40
1
40
1
40
1
40
1
41
1
41
1
41
1
41
1
10
98.641725775400772
20
23.263699321746813
30
0
10
102.63481698989867
20
22.600653149286885
30
0
10
105.47961710294088
20
22.104296172459897
30
0
10
107.17612611452736
20
21.774625565210957
30
0
0
LINE
5
206
100
AcDbEntity
8
0
100
AcDbLine
10
107.17612611452736
20
21.774625565210957
30
0
11
109.25786879857381
21
21.367167797088598
31
0
0
SPLINE
5
207
100
AcDbEntity
8
0
100
AcDbSpline
70
4
71
3
72
8
73
4
74
0
42
0.000000001
43
0.0000000001
44
0.0000000001
40
0
40
0
40
0
40
0
40
1
40
1
40
1
40
1
41
1
41
1
41
1
41
1
10
109.25786879857381
20
21.367167797088598
30
0
10
110.16168636957804
20
21.189366553624449
30
0
10
111.19144425074259
20
21.041202147801698
30
0
10
112.35084740002949
20
20.915259011586485
30
0
0
LINE
5
208
100
AcDbEntity
8
0
100
AcDbLine
10
112.35084740002949
20
20.915259011586485
30
0
11
112.35825448989868
21
20.956005071004213
31
0
0
SPLINE
5
209
100
AcDbEntity
8
0
100
AcDbSpline
70
4
71
3
72
8
73
4
74
0
42
0.000000001
43
0.0000000001
44
0.0000000001
40
0
40
0
40
0
40
0
40
1
40
1
40
1
40
1
41
1
41
1
41
1
41
1
10
112.35825448989868
20
20.956005071004213
30
0
10
110.78398365656534
20
21.911680749257382
30
0
10
109.32083895365398
20
22.685850226084369
30
0
10
107.96881755510965
20
23.282221285502093
30
0
0
SPLINE
5
210
100
AcDbEntity
8
0
100
AcDbSpline
70
4
71
3
72
8
73
4
74
0
42
0.000000001
43
0.0000000001
44
0.0000000001
40
0
40
0
40
0
40
0
40
1
40
1
40
1
40
1
41
1
41
1
41
1
41
1
10
107.96881755510965
20
23.282221285502093
30
0
10
106.32787160873413
20
24.263826017379738
30
0
10
104.80545888264973
20
25.145416666666648
30
0
10
103.40157937685647
20
25.923292514483116
30
0
0
SPLINE
5
211
100
AcDbEntity
8
0
100
AcDbSpline
70
4
71
3
72
8
73
4
74
0
42
0.000000001
43
0.0000000001
44
0.0000000001
40
0
40
0
40
0
40
0
40
1
40
1
40
1
40
1
41
1
41
1
41
1
41
1
10
103.40157937685647
20
25.923292514483116
30
0
10
103.1830349000295
20
26.052937782605468
30
0
10
102.98671169281006
20
26.197401469548524
30
0
10
102.81632036526997
20
26.360384294191977
30
0
0
LINE
5
212
100
AcDbEntity
8
0
100
AcDbLine
10
102.81632036526999
20
26.360384294191977
30
0
11
103.33490426381428
21
29.027384576797466
31
0
0
SPLINE
5
213
100
AcDbEntity
8
0
100
AcDbSpline
70
4
71
3
72
8
73
4
74
0
42
0.000000001
43
0.0000000001
44
0.0000000001
40
0
40
0
40
0
40
0
40
1
40
1
40
1
40
1
41
1
41
1
41
1
41
1
10
103.33490426381428
20
29.027384576797463
30
0
10
103.34231135368347
20
29.068130636215194
30
0
10
103.66827982902527
20
29.105171737670879
30
0
10
104.30909907976785
20
29.13850929419198
30
0
0
SPLINE
5
214
100
AcDbEntity
8
0
100
AcDbSpline
70
4
71
3
72
8
73
4
74
0
42
0.000000001
43
0.0000000001
44
0.0000000001
40
0
40
0
40
0
40
0
40
1
40
1
40
1
40
1
41
1
41
1
41
1
41
1
10
104.30909907976785
20
29.13850929419198
30
0
10
109.61717059135437
20
29.675613743464133
30
0
10
112.28046450297036
20
29.942314195632918
30
0
10
112.29528150876364
20
29.938609237670878
30
0
0
SPLINE
5
215
100
AcDbEntity
8
0
100
AcDbSpline
70
4
71
3
72
8
73
4
74
0
42
0.000000001
43
0.0000000001
44
0.0000000001
40
0
40
0
40
0
40
0
40
1
40
1
40
1
40
1
41
1
41
1
41
1
41
1
10
112.29528150876364
20
29.938609237670878
30
0
10
113.84732824643451
20
29.983058842023198
30
0
10
115.24750279426573
20
30.249759294191975
30
0
10
116.49580797831217
20
30.742412726084368
30
0
0
LINE
5
216
100
AcDbEntity
8
0
100
AcDbLine
10
116.49580797831217
20
30.742412726084375
30
0
11
106.30564468701679
21
32.835267457962019
31
0
0
LINE
5
217
100
AcDbEntity
8
0
100
AcDbLine
10
106.30564468701679
20
32.835267457962019
30
0
11
106.1426604493459
21
32.887125565210958
31
0
0
SPLINE
5
218
100
AcDbEntity
8
0
100
AcDbSpline
70
4
71
3
72
8
73
4
74
0
42
0.000000001
43
0.0000000001
44
0.0000000001
40
0
40
0
40
0
40
0
40
1
40
1
40
1
40
1
41
1
41
1
41
1
41
1
10
106.1426604493459
20
32.887125565210965
30
0
10
106.0278321870168
20
32.894534068107589
30
0
10
105.90929896672564
20
32.909351073900844
30
0
10
105.78335583051046
20
32.93528012752531
30
0
0
LINE
5
219
100
AcDbEntity
8
0
100
AcDbLine
10
105.78335583051046
20
32.93528012752531
30
0
11
105.69815875371297
21
32.950097133318565
31
0
0
SPLINE
5
220
100
AcDbEntity
8
0
100
AcDbSpline
70
4
71
3
72
8
73
4
74
0
42
0.000000001
43
0.0000000001
44
0.0000000001
40
0
40
0
40
0
40
0
40
1
40
1
40
1
40
1
41
1
41
1
41
1
41
1
10
105.69815875371297
20
32.950097133318565
30
0
10
104.69803488413493
20
33.146417514483119
30
0
10
102.73482542037965
20
33.468681031862879
30
0
10
99.81223814646404
20
33.924293362299586
30
0
0
SPLINE
5
221
100
AcDbEntity
8
0
100
AcDbSpline
70
4
71
3
72
8
73
4
74
0
42
0.000000001
43
0.0000000001
44
0.0000000001
40
0
40
0
40
0
40
0
40
1
40
1
40
1
40
1
41
1
41
1
41
1
41
1
10
99.81223814646404
20
33.924293362299586
30
0
10
98.593569800059001
20
34.261372472445153
30
0
10
98.004603004455561
20
34.528072924613937
30
0
10
98.041646931966142
20
34.724393305778491
30
0
0
SPLINE
5
222
100
AcDbEntity
8
0
100
AcDbSpline
70
4
71
3
72
8
73
4
74
0
42
0.000000001
43
0.0000000001
44
0.0000000001
40
0
40
0
40
0
40
0
40
1
40
1
40
1
40
1
41
1
41
1
41
1
41
1
10
98.041646931966142
20
34.724393305778491
30
0
10
98.119436918894451
20
35.502268447081235
30
0
10
98.241669445037843
20
36.30236839056014
30
0
10
98.40095155080158
20
37.120988884766881
30
0
0
LINE
5
223
100
AcDbEntity
8
0
100
AcDbLine
10
98.40095155080158
20
37.120988884766881
30
0
11
98.54171169281004
21
37.850709463755273
31
0
0
LINE
5
224
100
AcDbEntity
8
0
100
AcDbLine
10
98.54171169281004
20
37.850709463755273
30
0
11
98.571345704396563
21
37.887751271724682
31
0
0
SPLINE
5
225
100
AcDbEntity
8
0
100
AcDbSpline
70
4
71
3
72
8
73
4
74
0
42
0.000000001
43
0.0000000001
44
0.0000000001
40
0
40
0
40
0
40
0
40
1
40
1
40
1
40
1
41
1
41
1
41
1
41
1
10
98.571345704396563
20
37.887751271724689
30
0
10
99.341813049316414
20
37.780330099264766
30
0
10
100.09005629857381
20
37.658092627525313
30
0
10
100.81236766815184
20
37.517334605058025
30
0
0
SPLINE
5
226
100
AcDbEntity
8
0
100
AcDbSpline
70
4
71
3
72
8
73
4
74
0
42
0.000000001
43
0.0000000001
44
0.0000000001
40
0
40
0
40
0
40
0
40
1
40
1
40
1
40
1
41
1
41
1
41
1
41
1
10
100.81236766815184
20
37.517334605058025
30
0
10
102.68667509714763
20
37.150622189839673
30
0
10
108.9689442507426
20
35.831938347816447
30
0
10
119.65916947682699
20
33.561283785502091
30
0
0
SPLINE
5
227
100
AcDbEntity
8
0
100
AcDbSpline
70
4
71
3
72
8
73
4
74
0
42
0.000000001
43
0.0000000001
44
0.0000000001
40
0
40
0
40
0
40
0
40
1
40
1
40
1
40
1
41
1
41
1
41
1
41
1
10
119.65916947682699
20
33.561283785502091
30
0
10
123.02625562032064
20
32.861196511586485
30
0
10
124.70054053624472
20
32.464850791295348
30
0
10
124.68201857248943
20
32.364838121732056
30
0
0
LINE
5
228
100
AcDbEntity
8
0
100
AcDbLine
10
124.68201857248944
20
32.364838121732056
30
0
11
124.06712554931642
21
28.093934407234169
31
0
0
LINE
5
229
100
AcDbEntity
8
0
100
AcDbLine
10
124.06712554931642
20
28.093934407234169
30
0
11
124.0671283753713
21
28.105046455065388
31
0
0
SPLINE
5
230
100
AcDbEntity
8
0
100
AcDbSpline
70
4
71
3
72
8
73
4
74
0
42
0.000000001
43
0.0000000001
44
0.0000000001
40
0
40
0
40
0
40
0
40
1
40
1
40
1
40
1
41
1
41
1
41
1
41
1
10
117.34036317825317
20
11.051061369578015
30
0
10
117.29961711883546
20
9.0545157623290748
30
0
10
117.27739302317302
20
7.9580827681223276
30
0
10
117.27739302317302
20
7.7617623869577752
30
0
0
LINE
5
231
100
AcDbEntity
8
0
100
AcDbLine
10
117.27739302317302
20
7.7617623869577752
30
0
11
117.29961711883546
21
7.0172240956624066
31
0
0
SPLINE
5
232
100
AcDbEntity
8
0
100
AcDbSpline
70
4
71
3
72
8
73
4
74
0
42
0.000000001
43
0.0000000001
44
0.0000000001
40
0
40
0
40
0
40
0
40
1
40
1
40
1
40
1
41
1
41
1
41
1
41
1
10
117.29961711883546
20
7.0172240956624075
30
0
10
117.26998310724895
20
6.9875900840759009
30
0
10
116.20318412462871
20
6.7134825420379363
30
0
10
114.09551238695781
20
6.1874915536244446
30
0
0
SPLINE
5
233
100
AcDbEntity
8
0
100
AcDbSpline
70
4
71
3
72
8
73
4
74
0
42
0.000000001
43
0.0000000001
44
0.0000000001
40
0
40
0
40
0
40
0
40
1
40
1
40
1
40
1
41
1
41
1
41
1
41
1
10
114.09551238695781
20
6.1874915536244446
30
0
10
111.23589526812236
20
5.4096171188354187
30
0
10
108.68742961883544
20
4.7576829942067143
30
0
10
106.45381757100422
20
4.2353969637552664
30
0
0
SPLINE
5
234
100
AcDbEntity
8
0
100
AcDbSpline
70
4
71
3
72
8
73
4
74
0
42
0.000000001
43
0.0000000001
44
0.0000000001
40
0
40
0
40
0
40
0
40
1
40
1
40
1
40
1
41
1
41
1
41
1
41
1
10
106.45381757100422
20
4.2353969637552664
30
0
10
103.33861204783121
20
3.3723254521687593
30
0
10
100.19748029708862
20
2.5240709463755029
30
0
10
97.030416666666653
20
1.6869313144683584
30
0
0
SPLINE
5
235
100
AcDbEntity
8
0
100
AcDbSpline
70
4
71
3
72
8
73
4
74
0
42
0.000000001
43
0.0000000001
44
0.0000000001
40
0
40
0
40
0
40
0
40
1
40
1
40
1
40
1
41
1
41
1
41
1
41
1
10
97.030416666666653
20
1.6869313144683584
30
0
10
96.745194250742585
20
1.5721030521392576
30
0
10
96.278471285502093
20
1.431342910130794
30
0
10
95.63024211883544
20
1.2609515825907114
30
0
0
LINE
5
236
100
AcDbEntity
8
0
100
AcDbLine
10
95.630242118835454
20
1.2609515825907114
30
0
11
95.608018023173003
21
1.2609515825907114
31
0
0
LINE
5
237
100
AcDbEntity
8
0
100
AcDbLine
10
95.608018023173003
20
1.2609515825907114
30
0
11
95.056095155080143
21
5.5503772608438862
31
0
0
SPLINE
5
238
100
AcDbEntity
8
0
100
AcDbSpline
70
4
71
3
72
8
73
4
74
0
42
0.000000001
43
0.0000000001
44
0.0000000001
40
0
40
0
40
0
40
0
40
1
40
1
40
1
40
1
41
1
41
1
41
1
41
1
10
95.056095155080143
20
5.5503772608438897
30
0
10
95.959912726084383
20
5.8911599159240495
30
0
10
97.371199321746815
20
6.3060275999704771
30
0
10
99.278842894236234
20
6.8023845767974622
30
0
0
SPLINE
5
239
100
AcDbEntity
8
0
100
AcDbSpline
70
4
71
3
72
8
73
4
74
0
42
0.000000001
43
0.0000000001
44
0.0000000001
40
0
40
0
40
0
40
0
40
1
40
1
40
1
40
1
41
1
41
1
41
1
41
1
10
99.278842894236234
20
6.8023845767974622
30
0
10
99.619625549316396
20
6.9283248869577818
30
0
10
99.801131750742584
20
7.0024099159240514
30
0
10
99.830765762329094
20
7.0135219637552701
30
0
0
SPLINE
5
240
100
AcDbEntity
8
0
100
AcDbSpline
70
4
71
3
72
8
73
4
74
0
42
0.000000001
43
0.0000000001
44
0.0000000001
40
0
40
0
40
0
40
0
40
1
40
1
40
1
40
1
41
1
41
1
41
1
41
1
10
99.830765762329094
20
7.0135219637552701
30
0
10
99.875213953653969
20
7.8210304101307955
30
0
10
99.893735917409259
20
8.4914836724598999
30
0
10
99.893735917409259
20
9.0285895347594991
30
0
0
SPLINE
5
241
100
AcDbEntity
8
0
100
AcDbSpline
70
4
71
3
72
8
73
4
74
0
42
0.000000001
43
0.0000000001
44
0.0000000001
40
0
40
0
40
0
40
0
40
1
40
1
40
1
40
1
41
1
41
1
41
1
41
1
10
99.893735917409259
20
9.0285895347594991
30
0
10
99.893735917409259
20
9.4953153260548717
30
0
10
99.823355846405008
20
10.421356992721535
30
0
10
99.682595704396562
20
11.810419492721532
30
0
0
SPLINE
5
242
100
AcDbEntity
8
0
100
AcDbSpline
70
4
71
3
72
8
73
4
74
0
42
0.000000001
43
0.0000000001
44
0.0000000001
40
0
40
0
40
0
40
0
40
1
40
1
40
1
40
1
41
1
41
1
41
1
41
1
10
99.682595704396562
20
11.810419492721532
30
0
10
98.167592894236222
20
12.362339534759501
30
0
10
96.719262371063223
20
12.766095170974712
30
0
10
95.330199871063215
20
13.021680749257387
30
0
0
LINE
5
243
100
AcDbEntity
8
0
100
AcDbLine
10
95.330199871063215
20
13.021680749257385
30
0
11
94.841247158050521
21
13.129101921717306
31
0
0
SPLINE
5
244
100
AcDbEntity
8
0
100
AcDbSpline
70
4
71
3
72
8
73
4
74
0
42
0.000000001
43
0.0000000001
44
0.0000000001
40
0
40
0
40
0
40
0
40
1
40
1
40
1
40
1
41
1
41
1
41
1
41
1
10
94.841247158050521
20
13.129101921717306
30
0
10
95.026455491383857
20
14.544093475341775
30
0
10
95.322789955139143
20
15.747947642008446
30
0
10
95.733952681223542
20
16.736959463755273
30
0
0
SPLINE
5
245
100
AcDbEntity
8
0
100
AcDbSpline
70
4
71
3
72
8
73
4
74
0
42
0.000000001
43
0.0000000001
44
0.0000000001
40
0
40
0
40
0
40
0
40
1
40
1
40
1
40
1
41
1
41
1
41
1
41
1
10
95.733952681223542
20
16.736959463755273
30
0
10
96.822978585561103
20
16.496188065210958
30
0
10
100.55307147979735
20
15.596075452168762
30
0
10
106.92053488413492
20
14.040326582590721
30
0
0
SPLINE
5
246
100
AcDbEntity
8
0
100
AcDbSpline
70
4
71
3
72
8
73
4
74
0
42
0.000000001
43
0.0000000001
44
0.0000000001
40
0
40
0
40
0
40
0
40
1
40
1
40
1
40
1
41
1
41
1
41
1
41
1
10
106.92053488413492
20
14.040326582590721
30
0
10
109.05783780733744
20
13.529152599970473
30
0
10
112.52493803342183
20
12.554954957962007
30
0
10
117.3218355623881
20
11.110329392751028
30
0
0
LINE
5
247
100
AcDbEntity
8
0
100
AcDbLine
10
117.32183556238812
20
11.110329392751028
30
0
11
117.34405965805054
21
11.047359237670868
31
0
0
LINE
5
248
100
AcDbEntity
8
0
100
AcDbLine
10
117.34405965805054
20
11.047359237670868
30
0
11
117.34036317825317
21
11.051061369578015
31
0
0
SPLINE
5
249
100
AcDbEntity
8
0
100
AcDbSpline
70
4
71
3
72
8
73
4
74
0
42
0.000000001
43
0.0000000001
44
0.0000000001
40
0
40
0
40
0
40
0
40
1
40
1
40
1
40
1
41
1
41
1
41
1
41
1
10
111.22478322029113
20
9.6471846898396549
30
0
10
109.498643023173
20
10.254667797088594
30
0
10
108.05401745796202
20
10.710281540552749
30
0
10
106.89461148262023
20
11.006613178253151
30
0
0
SPLINE
5
250
100
AcDbEntity
8
0
100
AcDbSpline
70
4
71
3
72
8
73
4
74
0
42
0.000000001
43
0.0000000001
44
0.0000000001
40
0
40
0
40
0
40
0
40
1
40
1
40
1
40
1
41
1
41
1
41
1
41
1
10
106.89461148262023
20
11.006613178253151
30
0
10
105.89078265508014
20
11.262201582590716
30
0
10
104.76471564928688
20
11.53630912462868
30
0
10
103.52011542320253
20
11.836345720291115
30
0
0
SPLINE
5
251
100
AcDbEntity
8
0
100
AcDbSpline
70
4
71
3
72
8
73
4
74
0
42
0.000000001
43
0.0000000001
44
0.0000000001
40
0
40
0
40
0
40
0
40
1
40
1
40
1
40
1
41
1
41
1
41
1
41
1
10
103.52011542320253
20
11.836345720291115
30
0
10
103.33490708986916
20
11.891908785502096
30
0
10
103.08302364349365
20
11.954878940582251
30
0
10
102.75705799420675
20
12.028961143493628
30
0
0
SPLINE
5
252
100
AcDbEntity
8
0
100
AcDbSpline
70
4
71
3
72
8
73
4
74
0
42
0.000000001
43
0.0000000001
44
0.0000000001
40
0
40
0
40
0
40
0
40
1
40
1
40
1
40
1
41
1
41
1
41
1
41
1
10
102.75705799420675
20
12.028961143493628
30
0
10
102.71631193478902
20
11.80300675074257
30
0
10
102.69408783912658
20
11.362210013071671
30
0
10
102.69408783912658
20
10.713980846405008
30
0
0
LINE
5
253
100
AcDbEntity
8
0
100
AcDbLine
10
102.69408783912658
20
10.713980846405008
30
0
11
102.69408783912658
21
7.9543778101602944
31
0
0
SPLINE
5
254
100
AcDbEntity
8
0
100
AcDbSpline
70
4
71
3
72
8
73
4
74
0
42
0.000000001
43
0.0000000001
44
0.0000000001
40
0
40
0
40
0
40
0
40
1
40
1
40
1
40
1
41
1
41
1
41
1
41
1
10
102.69408783912658
20
7.9543778101602953
30
0
10
102.69408783912658
20
7.8284374999999766
30
0
10
102.70149492899576
20
7.6210022449493176
30
0
10
102.71631193478902
20
7.3394847869872848
30
0
0
SPLINE
5
255
100
AcDbEntity
8
0
100
AcDbSpline
70
4
71
3
72
8
73
4
74
0
42
0.000000001
43
0.0000000001
44
0.0000000001
40
0
40
0
40
0
40
0
40
1
40
1
40
1
40
1
41
1
41
1
41
1
41
1
10
102.71631193478902
20
7.3394847869872848
30
0
10
104.06092341740924
20
7.7061964956919127
30
0
10
105.82410754203795
20
8.1692173290252477
30
0
10
108.0021565246582
20
8.7211401971180962
30
0
0
SPLINE
5
256
100
AcDbEntity
8
0
100
AcDbSpline
70
4
71
3
72
8
73
4
74
0
42
0.000000001
43
0.0000000001
44
0.0000000001
40
0
40
0
40
0
40
0
40
1
40
1
40
1
40
1
41
1
41
1
41
1
41
1
10
108.0021565246582
20
8.7211401971180962
30
0
10
108.55407656669615
20
8.906348530451428
30
0
10
109.26157375653585
20
9.1026689116159805
30
0
10
110.12464526812236
20
9.3138062985737804
30
0
0
SPLINE
5
257
100
AcDbEntity
8
0
100
AcDbSpline
70
4
71
3
72
8
73
4
74
0
42
0.000000001
43
0.0000000001
44
0.0000000001
40
0
40
0
40
0
40
0
40
1
40
1
40
1
40
1
41
1
41
1
41
1
41
1
10
110.12464526812236
20
9.3138062985737804
30
0
10
110.15427927970887
20
9.3286233043670386
30
0
10
110.5209909884135
20
9.4323395188649215
30
0
10
111.22848817825317
20
9.632364857991508
30
0
0
LINE
5
258
100
AcDbEntity
8
0
100
AcDbLine
10
111.22848817825317
20
9.632364857991508
30
0
11
111.22848817825317
21
9.6545889536539438
31
0
0
LINE
5
259
100
AcDbEntity
8
0
100
AcDbLine
10
111.22848817825317
20
9.6545889536539438
30
0
11
111.22478322029113
21
9.6471846898396549
31
0
0
SPLINE
5
260
100
AcDbEntity
8
0
100
AcDbSpline
70
4
71
3
72
8
73
4
74
0
42
0.000000001
43
0.0000000001
44
0.0000000001
40
0
40
0
40
0
40
0
40
1
40
1
40
1
40
1
41
1
41
1
41
1
41
1
10
120.15182432174683
20
-6.3288879521688184
30
0
10
120.13330235799152
20
-6.4918721898397136
30
0
10
119.90734796524049
20
-7.3067877260844272
30
0
10
119.48137105941771
20
-8.7736402130127331
30
0
0
SPLINE
5
261
100
AcDbEntity
8
0
100
AcDbSpline
70
4
71
3
72
8
73
4
74
0
42
0.000000001
43
0.0000000001
44
0.0000000001
40
0
40
0
40
0
40
0
40
1
40
1
40
1
40
1
41
1
41
1
41
1
41
1
10
119.48137105941771
20
-8.7736402130127331
30
0
10
119.42580799420674
20
-8.9736627260844273
30
0
10
119.4035838985443
20
-9.0959009043375971
30
0
10
119.41469594637552
20
-9.136646963755318
30
0
0
LINE
5
262
100
AcDbEntity
8
0
100
AcDbLine
10
119.41469594637552
20
-9.136646963755318
30
0
11
119.33320382754006
21
-9.1551689275106067
31
0
0
SPLINE
5
263
100
AcDbEntity
8
0
100
AcDbSpline
70
4
71
3
72
8
73
4
74
0
42
0.000000001
43
0.0000000001
44
0.0000000001
40
0
40
0
40
0
40
0
40
1
40
1
40
1
40
1
41
1
41
1
41
1
41
1
10
119.33320382754006
20
-9.1551689275106103
30
0
10
118.06267454783122
20
-8.8143862724304523
30
0
10
116.80696227391562
20
-8.5180518086751622
30
0
10
115.57347409566242
20
-8.2698733202616719
30
0
0
LINE
5
264
100
AcDbEntity
8
0
100
AcDbLine
10
115.57347409566245
20
-8.2698733202616719
30
0
11
106.73903716087339
21
-5.8251210594177572
31
0
0
SPLINE
5
265
100
AcDbEntity
8
0
100
AcDbSpline
70
4
71
3
72
8
73
4
74
0
42
0.000000001
43
0.0000000001
44
0.0000000001
40
0
40
0
40
0
40
0
40
1
40
1
40
1
40
1
41
1
41
1
41
1
41
1
10
106.73903716087339
20
-5.8251210594177527
30
0
10
103.27934402465817
20
-9.236661046346061
30
0
10
100.49751689275105
20
-11.792533785502144
30
0
10
98.393547286987285
20
-13.489042797088658
30
0
0
SPLINE
5
266
100
AcDbEntity
8
0
100
AcDbSpline
70
4
71
3
72
8
73
4
74
0
42
0.000000001
43
0.0000000001
44
0.0000000001
40
0
40
0
40
0
40
0
40
1
40
1
40
1
40
1
41
1
41
1
41
1
41
1
10
98.393547286987285
20
-13.489042797088658
30
0
10
98.204636821746817
20
-13.677953262329128
30
0
10
98.078690859476723
20
-13.781669476827016
30
0
10
98.008316440582263
20
-13.796489308675152
30
0
0
SPLINE
5
267
100
AcDbEntity
8
0
100
AcDbSpline
70
4
71
3
72
8
73
4
74
0
42
0.000000001
43
0.0000000001
44
0.0000000001
40
0
40
0
40
0
40
0
40
1
40
1
40
1
40
1
41
1
41
1
41
1
41
1
10
98.008316440582263
20
-13.796489308675152
30
0
10
97.23043917973834
20
-11.770309689839706
30
0
10
96.774828262329066
20
-10.481261272430446
30
0
10
96.645185820261617
20
-9.9293384043375976
30
0
0
SPLINE
5
268
100
AcDbEntity
8
0
100
AcDbSpline
70
4
71
3
72
8
73
4
74
0
42
0.000000001
43
0.0000000001
44
0.0000000001
40
0
40
0
40
0
40
0
40
1
40
1
40
1
40
1
41
1
41
1
41
1
41
1
10
96.645185820261617
20
-9.9293384043375976
30
0
10
98.226866569519018
20
-8.5550900840759567
30
0
10
99.823361498514799
20
-7.2660416666666938
30
0
10
101.43096847534179
20
-6.0621875000000287
30
0
0
SPLINE
5
269
100
AcDbEntity
8
0
100
AcDbSpline
70
4
71
3
72
8
73
4
74
0
42
0.000000001
43
0.0000000001
44
0.0000000001
40
0
40
0
40
0
40
0
40
1
40
1
40
1
40
1
41
1
41
1
41
1
41
1
10
101.43096847534179
20
-6.0621875000000287
30
0
10
102.56815035502115
20
-5.0250197029114023
30
0
10
103.67569257100422
20
-3.9730377260844185
30
0
10
104.74990146954853
20
-2.9099437014262164
30
0
0
SPLINE
5
270
100
AcDbEntity
8
0
100
AcDbSpline
70
4
71
3
72
8
73
4
74
0
42
0.000000001
43
0.0000000001
44
0.0000000001
40
0
40
0
40
0
40
0
40
1
40
1
40
1
40
1
41
1
41
1
41
1
41
1
10
104.74990146954853
20
-2.9099437014262164
30
0
10
100.43084460576374
20
-3.8322832361857362
30
0
10
97.956458333333316
20
-4.3693862724304466
30
0
10
97.319341214497854
20
-4.5175506782531984
30
0
0
LINE
5
271
100
AcDbEntity
8
0
100
AcDbLine
10
97.319341214497854
20
-4.5175506782531958
30
0
11
97.282297286987287
21
-4.4582826550801835
31
0
0
SPLINE
5
272
100
AcDbEntity
8
0
100
AcDbSpline
70
4
71
3
72
8
73
4
74
0
42
0.000000001
43
0.0000000001
44
0.0000000001
40
0
40
0
40
0
40
0
40
1
40
1
40
1
40
1
41
1
41
1
41
1
41
1
10
97.282297286987287
20
-4.4582826550801844
30
0
10
97.052640762329077
20
-3.4211148579915642
30
0
10
96.867432428995755
20
-2.5950872739156328
30
0
10
96.722970155080148
20
-1.9727843348185459
30
0
0
LINE
5
273
100
AcDbEntity
8
0
100
AcDbLine
10
96.722970155080134
20
-1.9727843348185459
30
0
11
96.678521963755273
21
-1.7875760014852127
31
0
0
SPLINE
5
274
100
AcDbEntity
8
0
100
AcDbSpline
70
4
71
3
72
8
73
4
74
0
42
0.000000001
43
0.0000000001
44
0.0000000001
40
0
40
0
40
0
40
0
40
1
40
1
40
1
40
1
41
1
41
1
41
1
41
1
10
96.678521963755273
20
-1.7875760014852127
30
0
10
96.667409915924054
20
-1.7468299420674871
30
0
10
96.678521963755273
20
-1.7209037144979122
30
0
10
96.704453843434649
20
-1.7171959304809814
30
0
0
LINE
5
275
100
AcDbEntity
8
0
100
AcDbLine
10
96.704453843434649
20
-1.7171959304809814
30
0
11
97.323048998514793
21
-1.5727336565653716
31
0
0
SPLINE
5
276
100
AcDbEntity
8
0
100
AcDbSpline
70
4
71
3
72
8
73
4
74
0
42
0.000000001
43
0.0000000001
44
0.0000000001
40
0
40
0
40
0
40
0
40
1
40
1
40
1
40
1
41
1
41
1
41
1
41
1
10
97.323048998514793
20
-1.5727336565653738
30
0
10
98.534313081105523
20
-1.2875112406413025
30
0
10
99.604817021687793
20
-1.0096987406413005
30
0
10
100.52715090433753
20
-0.73559402465822932
30
0
0
SPLINE
5
277
100
AcDbEntity
8
0
100
AcDbSpline
70
4
71
3
72
8
73
4
74
0
42
0.000000001
43
0.0000000001
44
0.0000000001
40
0
40
0
40
0
40
0
40
1
40
1
40
1
40
1
41
1
41
1
41
1
41
1
10
100.52715090433753
20
-0.73559402465822932
30
0
10
103.22748874346415
20
-0.10218186378481264
30
0
10
106.45011261304219
20
0.53493525505063699
30
0
10
110.19502533912657
20
1.1757573318481107
30
0
0
SPLINE
5
278
100
AcDbEntity
8
0
100
AcDbSpline
70
4
71
3
72
8
73
4
74
0
42
0.000000001
43
0.0000000001
44
0.0000000001
40
0
40
0
40
0
40
0
40
1
40
1
40
1
40
1
41
1
41
1
41
1
41
1
10
110.19502533912657
20
1.1757573318481107
30
0
10
110.19502533912657
20
1.1609403260548605
30
0
10
110.74694538116454
20
1.2683614985147806
30
0
10
111.84337837537129
20
1.4943158912658383
30
0
0
SPLINE
5
279
100
AcDbEntity
8
0
100
AcDbSpline
70
4
71
3
72
8
73
4
74
0
42
0.000000001
43
0.0000000001
44
0.0000000001
40
0
40
0
40
0
40
0
40
1
40
1
40
1
40
1
41
1
41
1
41
1
41
1
10
111.84337837537129
20
1.4943158912658383
30
0
10
112.55828265508015
20
1.6610022608438835
30
0
10
114.325168911616
20
2.1314330101012873
30
0
10
117.13663288116456
20
2.9056024869282746
30
0
0
LINE
5
280
100
AcDbEntity
8
0
100
AcDbLine
10
117.13663288116456
20
2.9056024869282746
30
0
11
117.90339526812235
21
3.0834037303924267
31
0
0
SPLINE
5
281
100
AcDbEntity
8
0
100
AcDbSpline
70
0
71
2
72
6
73
3
74
0
42
0.000000001
43
0.0000000001
44
0.0000000001
40
0
40
0
40
0
40
1
40
1
40
1
10
117.90339526812234
20
3.0834037303924267
30
0
10
117.91450731595356
20
3.0648817666371384
30
0
10
117.92932432174682
20
3.0685867245991698
30
0
0
SPLINE
5
282
100
AcDbEntity
8
0
100
AcDbSpline
70
4
71
3
72
8
73
4
74
0
42
0.000000001
43
0.0000000001
44
0.0000000001
40
0
40
0
40
0
40
0
40
1
40
1
40
1
40
1
41
1
41
1
41
1
41
1
10
117.92932432174682
20
3.0685867245991698
30
0
10
118.05896958986918
20
2.3277533912658388
30
0
10
118.22195382754006
20
1.5461739985147827
30
0
10
118.41456925074257
20
0.72014641443885141
30
0
0
LINE
5
283
100
AcDbEntity
8
0
100
AcDbLine
10
118.41456925074256
20
0.72014641443885141
30
0
11
118.74423985799153
21
-0.68373026529951253
31
0
0
LINE
5
284
100
AcDbEntity
8
0
100
AcDbLine
10
118.74423985799153
20
-0.68373026529951253
30
0
11
118.71831080436705
21
-0.75411033630374158
31
0
0
SPLINE
5
285
100
AcDbEntity
8
0
100
AcDbSpline
70
4
71
3
72
8
73
4
74
0
42
0.000000001
43
0.0000000001
44
0.0000000001
40
0
40
0
40
0
40
0
40
1
40
1
40
1
40
1
41
1
41
1
41
1
41
1
10
118.71831080436706
20
-0.75411033630374158
30
0
10
116.84400337537129
20
-1.1356390508016256
30
0
10
115.31788569132488
20
-1.4319735145569157
30
0
10
114.13255348841348
20
-1.6542201232910481
30
0
0
SPLINE
5
286
100
AcDbEntity
8
0
100
AcDbSpline
70
4
71
3
72
8
73
4
74
0
42
0.000000001
43
0.0000000001
44
0.0000000001
40
0
40
0
40
0
40
0
40
1
40
1
40
1
40
1
41
1
41
1
41
1
41
1
10
114.13255348841348
20
-1.6542201232910481
30
0
10
111.91746057828267
20
-2.2468890508016282
30
0
10
109.90239583333333
20
-2.7951041348775574
30
0
10
108.08735360145567
20
-3.3099830754598303
30
0
0
SPLINE
5
287
100
AcDbEntity
8
0
100
AcDbSpline
70
4
71
3
72
8
73
4
74
0
42
0.000000001
43
0.0000000001
44
0.0000000001
40
0
40
0
40
0
40
0
40
1
40
1
40
1
40
1
41
1
41
1
41
1
41
1
10
108.08735360145567
20
-3.3099830754598303
30
0
10
108.60964245796202
20
-3.5507516479492507
30
0
10
109.84683276812234
20
-3.9026520029704104
30
0
10
111.79892735799152
20
-4.358262920379671
30
0
0
SPLINE
5
288
100
AcDbEntity
8
0
100
AcDbSpline
70
4
71
3
72
8
73
4
74
0
42
0.000000001
43
0.0000000001
44
0.0000000001
40
0
40
0
40
0
40
0
40
1
40
1
40
1
40
1
41
1
41
1
41
1
41
1
10
111.79892735799152
20
-4.358262920379671
30
0
10
112.88054334640503
20
-4.6286655044555971
30
0
10
114.73262667973835
20
-5.0361260986328453
30
0
10
117.36258727391559
20
-5.5843411827087746
30
0
0
LINE
5
289
100
AcDbEntity
8
0
100
AcDbLine
10
117.36258727391558
20
-5.5843411827087746
30
0
11
120.15182432174683
21
-6.3288879521688184
31
0
0
SPLINE
5
290
100
AcDbEntity
8
0
100
AcDbSpline
70
4
71
3
72
8
73
4
74
0
42
0.000000001
43
0.0000000001
44
0.0000000001
40
0
40
0
40
0
40
0
40
1
40
1
40
1
40
1
41
1
41
1
41
1
41
1
10
125.89328265508016
20
-12.355568701426236
30
0
10
125.79327139854431
20
-18.215557428995805
30
0
10
125.70807432174682
20
-21.145554618835497
30
0
10
125.63769425074257
20
-21.145554618835497
30
0
0
SPLINE
5
291
100
AcDbEntity
8
0
100
AcDbSpline
70
4
71
3
72
8
73
4
74
0
42
0.000000001
43
0.0000000001
44
0.0000000001
40
0
40
0
40
0
40
0
40
1
40
1
40
1
40
1
41
1
41
1
41
1
41
1
10
125.63769425074257
20
-21.145554618835497
30
0
10
125.34135978698728
20
-21.130740439097124
30
0
10
125.11911035219826
20
-21.12333052317306
30
0
10
124.97835303624471
20
-21.12333052317306
30
0
0
LINE
5
292
100
AcDbEntity
8
0
100
AcDbLine
10
124.97835303624468
20
-21.12333052317306
30
0
11
124.63757038116455
21
-21.12333052317306
31
0
0
SPLINE
5
293
100
AcDbEntity
8
0
100
AcDbSpline
70
4
71
3
72
8
73
4
74
0
42
0.000000001
43
0.0000000001
44
0.0000000001
40
0
40
0
40
0
40
0
40
1
40
1
40
1
40
1
41
1
41
1
41
1
41
1
10
124.63757038116455
20
-21.12333052317306
30
0
10
124.52274211883545
20
-21.12333052317306
30
0
10
124.10046734491982
20
-21.156666666666709
30
0
10
123.36333614349364
20
-21.230748869578093
30
0
0
SPLINE
5
294
100
AcDbEntity
8
0
100
AcDbSpline
70
4
71
3
72
8
73
4
74
0
42
0.000000001
43
0.0000000001
44
0.0000000001
40
0
40
0
40
0
40
0
40
1
40
1
40
1
40
1
41
1
41
1
41
1
41
1
10
123.36333614349364
20
-21.230748869578093
30
0
10
122.58546170870461
20
-21.215934689839735
30
0
10
122.06687781016031
20
-21.208524773915656
30
0
10
121.81499436378476
20
-21.208524773915642
30
0
0
SPLINE
5
295
100
AcDbEntity
8
0
100
AcDbSpline
70
4
71
3
72
8
73
4
74
0
42
0.000000001
43
0.0000000001
44
0.0000000001
40
0
40
0
40
0
40
0
40
1
40
1
40
1
40
1
41
1
41
1
41
1
41
1
10
121.81499436378476
20
-21.208524773915642
30
0
10
121.81499436378476
20
-21.178890762329132
30
0
10
121.80758727391562
20
-21.167778714497913
30
0
10
121.79277026812235
20
-21.167778714497913
30
0
0
SPLINE
5
296
100
AcDbEntity
8
0
100
AcDbSpline
70
4
71
3
72
8
73
4
74
0
42
0.000000001
43
0.0000000001
44
0.0000000001
40
0
40
0
40
0
40
0
40
1
40
1
40
1
40
1
41
1
41
1
41
1
41
1
10
121.79277026812235
20
-21.167778714497913
30
0
10
121.87796734491982
20
-20.771430168151891
30
0
10
121.97057151158651
20
-19.271247189839713
30
0
10
122.07058276812234
20
-16.667218475341844
30
0
0
SPLINE
5
297
100
AcDbEntity
8
0
100
AcDbSpline
70
4
71
3
72
8
73
4
74
0
42
0.000000001
43
0.0000000001
44
0.0000000001
40
0
40
0
40
0
40
0
40
1
40
1
40
1
40
1
41
1
41
1
41
1
41
1
10
122.07058276812234
20
-16.667218475341844
30
0
10
122.04094875653584
20
-16.04492118835454
30
0
10
122.01501970291136
20
-15.541154295603476
30
0
10
121.98538569132488
20
-15.159619928995802
30
0
0
SPLINE
5
298
100
AcDbEntity
8
0
100
AcDbSpline
70
4
71
3
72
8
73
4
74
0
42
0.000000001
43
0.0000000001
44
0.0000000001
40
0
40
0
40
0
40
0
40
1
40
1
40
1
40
1
41
1
41
1
41
1
41
1
10
121.98538569132488
20
-15.159619928995802
30
0
10
121.55940595944722
20
-15.204068120320663
30
0
10
121.16306023915607
20
-15.230000000000032
30
0
10
120.79634853045144
20
-15.244814179738398
30
0
0
SPLINE
5
299
100
AcDbEntity
8
0
100
AcDbSpline
70
4
71
3
72
8
73
4
74
0
42
0.000000001
43
0.0000000001
44
0.0000000001
40
0
40
0
40
0
40
0
40
1
40
1
40
1
40
1
41
1
41
1
41
1
41
1
10
120.79634853045144
20
-15.244814179738398
30
0
10
120.65559121449787
20
-15.244814179738398
30
0
10
120.26665258407591
20
-15.237404263814319
30
0
10
119.62953546524047
20
-15.222590084075961
30
0
0
SPLINE
5
300
100
AcDbEntity
8
0
100
AcDbSpline
70
4
71
3
72
8
73
4
74
0
42
0.000000001
43
0.0000000001
44
0.0000000001
40
0
40
0
40
0
40
0
40
1
40
1
40
1
40
1
41
1
41
1
41
1
41
1
10
119.62953546524047
20
-15.222590084075961
30
0
10
119.06279841740925
20
-15.222590084075961
30
0
10
118.32567004203796
20
-15.26333614349368
30
0
10
117.42185247103372
20
-15.348530394236271
30
0
0
SPLINE
5
301
100
AcDbEntity
8
0
100
AcDbSpline
70
4
71
3
72
8
73
4
74
0
42
0.000000001
43
0.0000000001
44
0.0000000001
40
0
40
0
40
0
40
0
40
1
40
1
40
1
40
1
41
1
41
1
41
1
41
1
10
117.42185247103372
20
-15.348530394236271
30
0
10
117.42185247103372
20
-16.396810239156125
30
0
10
117.34406531016032
20
-17.500650323232044
30
0
10
117.18849098841348
20
-18.660056298573849
30
0
0
LINE
5
302
100
AcDbEntity
8
0
100
AcDbLine
10
117.18849098841348
20
-18.660056298573849
30
0
11
117.18849098841348
21
-20.104679037729937
31
0
0
SPLINE
5
303
100
AcDbEntity
8
0
100
AcDbSpline
70
4
71
3
72
8
73
4
74
0
42
0.000000001
43
0.0000000001
44
0.0000000001
40
0
40
0
40
0
40
0
40
1
40
1
40
1
40
1
41
1
41
1
41
1
41
1
10
117.18849098841348
20
-20.104679037729937
30
0
10
117.18849098841348
20
-20.160239276886017
30
0
10
116.29578546524046
20
-20.297297286987334
30
0
10
114.51408220291137
20
-20.508431847890243
30
0
0
SPLINE
5
304
100
AcDbEntity
8
0
100
AcDbSpline
70
4
71
3
72
8
73
4
74
0
42
0.000000001
43
0.0000000001
44
0.0000000001
40
0
40
0
40
0
40
0
40
1
40
1
40
1
40
1
41
1
41
1
41
1
41
1
10
114.51408220291137
20
-20.508431847890243
30
0
10
114.47333614349363
20
-20.508431847890243
30
0
10
114.40666103045145
20
-20.515841763814318
30
0
10
114.32146677970886
20
-20.530655943552681
30
0
0
LINE
5
305
100
AcDbEntity
8
0
100
AcDbLine
10
114.32146677970889
20
-20.530655943552681
30
0
11
114.29924268404642
21
-20.486207752227813
31
0
0
SPLINE
5
306
100
AcDbEntity
8
0
100
AcDbSpline
70
4
71
3
72
8
73
4
74
0
42
0.000000001
43
0.0000000001
44
0.0000000001
40
0
40
0
40
0
40
0
40
1
40
1
40
1
40
1
41
1
41
1
41
1
41
1
10
114.29924268404642
20
-20.48620775222782
30
0
10
114.29924268404642
20
-20.401013501485224
30
0
10
114.29183559417723
20
-20.215805168151885
30
0
10
114.27701858838398
20
-19.934284884134957
30
0
0
SPLINE
5
307
100
AcDbEntity
8
0
100
AcDbSpline
70
4
71
3
72
8
73
4
74
0
42
0.000000001
43
0.0000000001
44
0.0000000001
40
0
40
0
40
0
40
0
40
1
40
1
40
1
40
1
41
1
41
1
41
1
41
1
10
114.27701858838398
20
-19.934284884134957
30
0
10
114.30665259997049
20
-19.497195930480991
30
0
10
114.31776464780171
20
-19.126779263814328
30
0
10
114.31776464780171
20
-18.830444800059038
30
0
0
LINE
5
308
100
AcDbEntity
8
0
100
AcDbLine
10
114.31776464780171
20
-18.830444800059038
30
0
11
114.31776464780171
21
-17.493240407307979
31
0
0
SPLINE
5
309
100
AcDbEntity
8
0
100
AcDbSpline
70
4
71
3
72
8
73
4
74
0
42
0.000000001
43
0.0000000001
44
0.0000000001
40
0
40
0
40
0
40
0
40
1
40
1
40
1
40
1
41
1
41
1
41
1
41
1
10
114.31776464780171
20
-17.493240407307972
30
0
10
114.2881306362152
20
-16.333834431966178
30
0
10
114.23256757100424
20
-15.752283204396594
30
0
10
114.14737332026162
20
-15.752283204396594
30
0
0
SPLINE
5
310
100
AcDbEntity
8
0
100
AcDbSpline
70
4
71
3
72
8
73
4
74
0
42
0.000000001
43
0.0000000001
44
0.0000000001
40
0
40
0
40
0
40
0
40
1
40
1
40
1
40
1
41
1
41
1
41
1
41
1
10
114.14737332026162
20
-15.752283204396594
30
0
10
113.68064752896626
20
-15.652269121805862
30
0
10
112.832393023173
20
-15.604118798573845
30
0
10
111.59890767097473
20
-15.604118798573845
30
0
0
SPLINE
5
311
100
AcDbEntity
8
0
100
AcDbSpline
70
4
71
3
72
8
73
4
74
0
42
0.000000001
43
0.0000000001
44
0.0000000001
40
0
40
0
40
0
40
0
40
1
40
1
40
1
40
1
41
1
41
1
41
1
41
1
10
111.59890767097473
20
-15.604118798573845
30
0
10
110.66545891443887
20
-15.618932978312206
30
0
10
109.98389077822365
20
-15.626342894236283
30
0
10
109.56161600430805
20
-15.626342894236283
30
0
0
SPLINE
5
312
100
AcDbEntity
8
0
100
AcDbSpline
70
4
71
3
72
8
73
4
74
0
42
0.000000001
43
0.0000000001
44
0.0000000001
40
0
40
0
40
0
40
0
40
1
40
1
40
1
40
1
41
1
41
1
41
1
41
1
10
109.56161600430805
20
-15.626342894236283
30
0
10
109.28009854634603
20
-15.626342894236283
30
0
10
108.72447354634602
20
-15.596708882649768
30
0
10
107.90585305213926
20
-15.541148643493688
30
0
0
SPLINE
5
313
100
AcDbEntity
8
0
100
AcDbSpline
70
4
71
3
72
8
73
4
74
0
42
0.000000001
43
0.0000000001
44
0.0000000001
40
0
40
0
40
0
40
0
40
1
40
1
40
1
40
1
41
1
41
1
41
1
41
1
10
107.90585305213926
20
-15.541148643493688
30
0
10
107.86510699272155
20
-15.867117118835479
30
0
10
107.82065597534178
20
-17.445090084075964
30
0
10
107.77991274197896
20
-20.275073191324896
30
0
0
SPLINE
5
314
100
AcDbEntity
8
0
100
AcDbSpline
70
4
71
3
72
8
73
4
74
0
42
0.000000001
43
0.0000000001
44
0.0000000001
40
0
40
0
40
0
40
0
40
1
40
1
40
1
40
1
41
1
41
1
41
1
41
1
10
107.77991274197896
20
-20.275073191324896
30
0
10
107.79472974777221
20
-20.826996059417763
30
0
10
107.8132488854726
20
-21.223338953654007
30
0
10
107.84288289705911
20
-21.464113178253204
30
0
0
SPLINE
5
315
100
AcDbEntity
8
0
100
AcDbSpline
70
4
71
3
72
8
73
4
74
0
42
0.000000001
43
0.0000000001
44
0.0000000001
40
0
40
0
40
0
40
0
40
1
40
1
40
1
40
1
41
1
41
1
41
1
41
1
10
107.84288289705911
20
-21.464113178253204
30
0
10
107.82806589126587
20
-21.464113178253204
30
0
10
107.82065880139668
20
-21.471523094177275
30
0
10
107.82065880139668
20
-21.486337273915641
30
0
0
SPLINE
5
316
100
AcDbEntity
8
0
100
AcDbSpline
70
4
71
3
72
8
73
4
74
0
42
0.000000001
43
0.0000000001
44
0.0000000001
40
0
40
0
40
0
40
0
40
1
40
1
40
1
40
1
41
1
41
1
41
1
41
1
10
107.82065880139668
20
-21.486337273915641
30
0
10
107.16872467676797
20
-21.471523094177275
30
0
10
106.67977478981017
20
-21.464113178253204
30
0
10
106.3575140984853
20
-21.464113178253204
30
0
0
LINE
5
317
100
AcDbEntity
8
0
100
AcDbLine
10
106.3575140984853
20
-21.464113178253204
30
0
11
104.57581083615619
21
-21.464113178253204
31
0
0
SPLINE
5
318
100
AcDbEntity
8
0
100
AcDbSpline
70
4
71
3
72
8
73
4
74
0
42
0.000000001
43
0.0000000001
44
0.0000000001
40
0
40
0
40
0
40
0
40
1
40
1
40
1
40
1
41
1
41
1
41
1
41
1
10
104.57581083615621
20
-21.464113178253204
30
0
10
104.42023651440937
20
-21.464113178253204
30
0
10
104.17946511586506
20
-21.471523094177275
30
0
10
103.85349946657814
20
-21.486337273915641
30
0
0
LINE
5
319
100
AcDbEntity
8
0
100
AcDbLine
10
103.85349946657813
20
-21.486337273915641
30
0
11
103.83127537091571
21
-21.445591214497917
31
0
0
LINE
5
320
100
AcDbEntity
8
0
100
AcDbLine
10
103.83127537091571
20
-21.445591214497917
30
0
11
103.83127537091573
21
-15.670796737670933
31
0
0
SPLINE
5
321
100
AcDbEntity
8
0
100
AcDbSpline
70
4
71
3
72
8
73
4
74
0
42
0.000000001
43
0.0000000001
44
0.0000000001
40
0
40
0
40
0
40
0
40
1
40
1
40
1
40
1
41
1
41
1
41
1
41
1
10
103.83127537091573
20
-15.670796737670933
30
0
10
103.83127537091573
20
-14.863291117350288
30
0
10
103.8386824607849
20
-13.907615439097116
30
0
10
103.85349946657814
20
-12.803769702911406
30
0
0
SPLINE
5
322
100
AcDbEntity
8
0
100
AcDbSpline
70
4
71
3
72
8
73
4
74
0
42
0.000000001
43
0.0000000001
44
0.0000000001
40
0
40
0
40
0
40
0
40
1
40
1
40
1
40
1
41
1
41
1
41
1
41
1
10
103.85349946657814
20
-12.803769702911406
30
0
10
103.8386824607849
20
-12.748209463755312
30
0
10
103.83127537091573
20
-12.322226905822779
30
0
10
103.83127537091573
20
-11.52953546524051
30
0
0
SPLINE
5
323
100
AcDbEntity
8
0
100
AcDbSpline
70
4
71
3
72
8
73
4
74
0
42
0.000000001
43
0.0000000001
44
0.0000000001
40
0
40
0
40
0
40
0
40
1
40
1
40
1
40
1
41
1
41
1
41
1
41
1
10
103.83127537091573
20
-11.52953546524051
30
0
10
103.84609237670898
20
-11.52953546524051
30
0
10
103.85349946657814
20
-11.522125549316435
30
0
10
103.85349946657814
20
-11.507311369578073
30
0
0
SPLINE
5
324
100
AcDbEntity
8
0
100
AcDbSpline
70
4
71
3
72
8
73
4
74
0
42
0.000000001
43
0.0000000001
44
0.0000000001
40
0
40
0
40
0
40
0
40
1
40
1
40
1
40
1
41
1
41
1
41
1
41
1
10
103.85349946657814
20
-11.507311369578073
30
0
10
104.24984518686929
20
-11.536945381164585
30
0
10
104.92770836512247
20
-11.577691440582305
30
0
10
105.89079113324482
20
-11.633251679738386
30
0
0
SPLINE
5
325
100
AcDbEntity
8
0
100
AcDbSpline
70
4
71
3
72
8
73
4
74
0
42
0.000000001
43
0.0000000001
44
0.0000000001
40
0
40
0
40
0
40
0
40
1
40
1
40
1
40
1
41
1
41
1
41
1
41
1
10
105.89079113324482
20
-11.633251679738386
30
0
10
110.66175678253173
20
-11.633251679738386
30
0
10
113.97328268686928
20
-11.570281524658231
30
0
10
115.82536602020262
20
-11.440633430480984
30
0
0
LINE
5
326
100
AcDbEntity
8
0
100
AcDbLine
10
115.82536602020262
20
-11.440633430480984
30
0
11
116.46248313903808
21
-11.440633430480984
31
0
0
SPLINE
5
327
100
AcDbEntity
8
0
100
AcDbSpline
70
4
71
3
72
8
73
4
74
0
42
0.000000001
43
0.0000000001
44
0.0000000001
40
0
40
0
40
0
40
0
40
1
40
1
40
1
40
1
41
1
41
1
41
1
41
1
10
116.46248313903808
20
-11.440633430480984
30
0
10
119.39248032887775
20
-11.455447610219347
30
0
10
121.01119935353597
20
-11.462857526143422
30
0
10
121.32235082308452
20
-11.462857526143422
30
0
0
SPLINE
5
328
100
AcDbEntity
8
0
100
AcDbSpline
70
4
71
3
72
8
73
4
74
0
42
0.000000001
43
0.0000000001
44
0.0000000001
40
0
40
0
40
0
40
0
40
1
40
1
40
1
40
1
41
1
41
1
41
1
41
1
10
121.32235082308452
20
-11.462857526143422
30
0
10
122.75215938250224
20
-11.448043346405072
30
0
10
124.25975510279336
20
-11.422111466725715
30
0
10
125.84513798395793
20
-11.37766327540084
30
0
0
LINE
5
329
100
AcDbEntity
8
0
100
AcDbLine
10
125.84513798395793
20
-11.37766327540084
30
0
11
125.86736207962036
21
-11.418409334818564
31
0
0
SPLINE
5
330
100
AcDbEntity
8
0
100
AcDbSpline
70
4
71
3
72
8
73
4
74
0
42
0.000000001
43
0.0000000001
44
0.0000000001
40
0
40
0
40
0
40
0
40
1
40
1
40
1
40
1
41
1
41
1
41
1
41
1
10
125.86736207962036
20
-11.418409334818559
30
0
10
125.86736207962036
20
-11.829572060902954
30
0
10
125.87476916948953
20
-12.140720704396609
30
0
10
125.88958617528277
20
-12.351860917409304
30
0
0
LINE
5
331
100
AcDbEntity
8
0
100
AcDbLine
10
125.88958617528277
20
-12.351860917409304
30
0
11
125.89328265508016
21
-12.355568701426236
31
0
0
LINE
5
332
100
AcDbEntity
8
0
100
AcDbLine
10
119.68139639854429
20
-32.228420607248978
30
0
11
119.107249434789
21
-34.295346285502148
31
0
0
SPLINE
5
333
100
AcDbEntity
8
0
100
AcDbSpline
70
4
71
3
72
8
73
4
74
0
42
0.000000001
43
0.0000000001
44
0.0000000001
40
0
40
0
40
0
40
0
40
1
40
1
40
1
40
1
41
1
41
1
41
1
41
1
10
119.107249434789
20
-34.295346285502156
30
0
10
118.64052364349364
20
-35.973333333333379
30
0
10
118.214543911616
20
-36.917896963755325
30
0
10
117.8330151971181
20
-37.136441440582303
30
0
0
SPLINE
5
334
100
AcDbEntity
8
0
100
AcDbSpline
70
4
71
3
72
8
73
4
74
0
42
0.000000001
43
0.0000000001
44
0.0000000001
40
0
40
0
40
0
40
0
40
1
40
1
40
1
40
1
41
1
41
1
41
1
41
1
10
117.8330151971181
20
-37.136441440582303
30
0
10
117.5737246608734
20
-37.48833614349369
30
0
10
117.14033501307169
20
-37.855050678253221
30
0
10
116.53655686378478
20
-38.229169476827025
30
0
0
SPLINE
5
335
100
AcDbEntity
8
0
100
AcDbSpline
70
4
71
3
72
8
73
4
74
0
42
0.000000001
43
0.0000000001
44
0.0000000001
40
0
40
0
40
0
40
0
40
1
40
1
40
1
40
1
41
1
41
1
41
1
41
1
10
116.53655686378478
20
-38.229169476827025
30
0
10
115.50679898262024
20
-38.866286595662473
30
0
10
114.09921451886493
20
-38.940368798573857
30
0
10
112.31380629857378
20
-38.440309689839722
30
0
0
SPLINE
5
336
100
AcDbEntity
8
0
100
AcDbSpline
70
4
71
3
72
8
73
4
74
0
42
0.000000001
43
0.0000000001
44
0.0000000001
40
0
40
0
40
0
40
0
40
1
40
1
40
1
40
1
41
1
41
1
41
1
41
1
10
112.31380629857378
20
-38.440309689839722
30
0
10
111.73595720291135
20
-38.295847415924115
30
0
10
111.12847409566241
20
-38.132863178253217
30
0
10
110.48765201886494
20
-37.955064760843946
30
0
0
LINE
5
337
100
AcDbEntity
8
0
100
AcDbLine
10
110.48765201886494
20
-37.955064760843946
30
0
11
109.95425111452738
21
-37.806900355021192
31
0
0
SPLINE
5
338
100
AcDbEntity
8
0
100
AcDbSpline
70
4
71
3
72
8
73
4
74
0
42
0.000000001
43
0.0000000001
44
0.0000000001
40
0
40
0
40
0
40
0
40
1
40
1
40
1
40
1
41
1
41
1
41
1
41
1
10
109.95425111452738
20
-37.806900355021192
30
0
10
108.72817285219826
20
-37.46611769994103
30
0
10
108.02808557828266
20
-37.103110949198445
30
0
10
107.85769425074258
20
-36.714172318776484
30
0
0
SPLINE
5
339
100
AcDbEntity
8
0
100
AcDbSpline
70
4
71
3
72
8
73
4
74
0
42
0.000000001
43
0.0000000001
44
0.0000000001
40
0
40
0
40
0
40
0
40
1
40
1
40
1
40
1
41
1
41
1
41
1
41
1
10
107.85769425074258
20
-36.714172318776484
30
0
10
107.18353603045145
20
-35.599220186869339
30
0
10
106.89090652465819
20
-34.888020865122513
30
0
10
106.97610360145568
20
-34.573164437611943
30
0
0
SPLINE
5
340
100
AcDbEntity
8
0
100
AcDbSpline
70
4
71
3
72
8
73
4
74
0
42
0.000000001
43
0.0000000001
44
0.0000000001
40
0
40
0
40
0
40
0
40
1
40
1
40
1
40
1
41
1
41
1
41
1
41
1
10
106.97610360145568
20
-34.573164437611943
30
0
10
106.93535754203793
20
-34.354619960784945
30
0
10
106.92054053624469
20
-34.195337855021194
30
0
10
106.93165258407591
20
-34.099031556447386
30
0
0
LINE
5
341
100
AcDbEntity
8
0
100
AcDbLine
10
106.93165258407592
20
-34.099031556447393
30
0
11
106.89090652465821
21
-34.087919508616167
31
0
0
SPLINE
5
342
100
AcDbEntity
8
0
100
AcDbSpline
70
4
71
3
72
8
73
4
74
0
42
0.000000001
43
0.0000000001
44
0.0000000001
40
0
40
0
40
0
40
0
40
1
40
1
40
1
40
1
41
1
41
1
41
1
41
1
10
106.89090652465819
20
-34.087919508616167
30
0
10
106.23156531016031
20
-34.769484818776483
30
0
10
105.60185528119403
20
-35.125087305704795
30
0
10
105.00918917973834
20
-35.151013533274373
30
0
0
SPLINE
5
343
100
AcDbEntity
8
0
100
AcDbSpline
70
4
71
3
72
8
73
4
74
0
42
0.000000001
43
0.0000000001
44
0.0000000001
40
0
40
0
40
0
40
0
40
1
40
1
40
1
40
1
41
1
41
1
41
1
41
1
10
105.00918917973834
20
-35.151013533274373
30
0
10
104.43504221598305
20
-35.254729747772259
30
0
10
103.67568974494932
20
-35.273251711527536
30
0
10
102.72742115656534
20
-35.199169508616166
30
0
0
SPLINE
5
344
100
AcDbEntity
8
0
100
AcDbSpline
70
4
71
3
72
8
73
4
74
0
42
0.000000001
43
0.0000000001
44
0.0000000001
40
0
40
0
40
0
40
0
40
1
40
1
40
1
40
1
41
1
41
1
41
1
41
1
10
102.72742115656534
20
-35.199169508616166
30
0
10
98.01942283630369
20
-34.695402615865106
30
0
10
95.304273643493644
20
-34.343507912953726
30
0
10
94.581956621805801
20
-34.143479747772247
30
0
0
SPLINE
5
345
100
AcDbEntity
8
0
100
AcDbSpline
70
4
71
3
72
8
73
4
74
0
42
0.000000001
43
0.0000000001
44
0.0000000001
40
0
40
0
40
0
40
0
40
1
40
1
40
1
40
1
41
1
41
1
41
1
41
1
10
94.581956621805801
20
-34.143479747772247
30
0
10
93.415146382649709
20
-33.8026970926921
30
0
10
92.837291634877502
20
-33.598966795603474
30
0
10
92.859521382649731
20
-33.532294508616161
30
0
0
SPLINE
5
346
100
AcDbEntity
8
0
100
AcDbSpline
70
4
71
3
72
8
73
4
74
0
42
0.000000001
43
0.0000000001
44
0.0000000001
40
0
40
0
40
0
40
0
40
1
40
1
40
1
40
1
41
1
41
1
41
1
41
1
10
92.859521382649731
20
-33.532294508616161
30
0
10
93.400332202911358
20
-31.743181330362994
30
0
10
93.700368798573791
20
-30.74675959269209
30
0
10
93.755929037729885
20
-30.543034947713245
30
0
0
LINE
5
347
100
AcDbEntity
8
0
100
AcDbLine
10
93.755929037729885
20
-30.543034947713245
30
0
11
93.818899192810051
21
-30.317080554962189
31
0
0
SPLINE
5
348
100
AcDbEntity
8
0
100
AcDbSpline
70
4
71
3
72
8
73
4
74
0
42
0.000000001
43
0.0000000001
44
0.0000000001
40
0
40
0
40
0
40
0
40
1
40
1
40
1
40
1
41
1
41
1
41
1
41
1
10
93.818899192810051
20
-30.317080554962189
30
0
10
93.844831072489399
20
-30.220774256388388
30
0
10
94.607888501485164
20
-30.339304650624626
30
0
10
96.100667215983037
20
-30.665273125966426
30
0
0
SPLINE
5
349
100
AcDbEntity
8
0
100
AcDbSpline
70
4
71
3
72
8
73
4
74
0
42
0.000000001
43
0.0000000001
44
0.0000000001
40
0
40
0
40
0
40
0
40
1
40
1
40
1
40
1
41
1
41
1
41
1
41
1
10
96.100667215983037
20
-30.665273125966426
30
0
10
97.063752810160295
20
-30.946787757873565
30
0
10
97.811990407307917
20
-31.165337886810338
30
0
10
98.345391311645486
20
-31.313502292633089
30
0
0
SPLINE
5
350
100
AcDbEntity
8
0
100
AcDbSpline
70
4
71
3
72
8
73
4
74
0
42
0.000000001
43
0.0000000001
44
0.0000000001
40
0
40
0
40
0
40
0
40
1
40
1
40
1
40
1
41
1
41
1
41
1
41
1
10
98.345391311645486
20
-31.313502292633089
30
0
10
99.35292509714759
20
-31.595016924540239
30
0
10
100.73087554931639
20
-31.683918959299753
30
0
10
102.47924266815183
20
-31.58390487670902
30
0
0
SPLINE
5
351
100
AcDbEntity
8
0
100
AcDbSpline
70
4
71
3
72
8
73
4
74
0
42
0.000000001
43
0.0000000001
44
0.0000000001
40
0
40
0
40
0
40
0
40
1
40
1
40
1
40
1
41
1
41
1
41
1
41
1
10
102.47924266815183
20
-31.58390487670902
30
0
10
103.24971001307168
20
-31.46166669845584
30
0
10
103.8571931203206
20
-31.117181911468546
30
0
10
104.30910190582273
20
-30.55044486363732
30
0
0
SPLINE
5
352
100
AcDbEntity
8
0
100
AcDbSpline
70
4
71
3
72
8
73
4
74
0
42
0.000000001
43
0.0000000001
44
0.0000000001
40
0
40
0
40
0
40
0
40
1
40
1
40
1
40
1
41
1
41
1
41
1
41
1
10
104.30910190582273
20
-30.55044486363732
30
0
10
104.57209740002949
20
-30.287446543375687
30
0
10
104.97955516815183
20
-29.379926840464311
30
0
10
105.53147803624469
20
-27.827880102793404
30
0
0
LINE
5
353
100
AcDbEntity
8
0
100
AcDbLine
10
105.53147803624469
20
-27.827880102793404
30
0
11
105.55370213190713
21
-27.746387983957955
31
0
0
LINE
5
354
100
AcDbEntity
8
0
100
AcDbLine
10
105.55370213190713
20
-27.746387983957955
30
0
11
105.65741834640502
21
-26.983330554962201
31
0
0
LINE
5
355
100
AcDbEntity
8
0
100
AcDbLine
10
105.65741834640502
20
-26.983330554962201
30
0
11
105.6388963826497
21
-26.975920639038122
31
0
0
SPLINE
5
356
100
AcDbEntity
8
0
100
AcDbSpline
70
4
71
3
72
8
73
4
74
0
42
0.000000001
43
0.0000000001
44
0.0000000001
40
0
40
0
40
0
40
0
40
1
40
1
40
1
40
1
41
1
41
1
41
1
41
1
10
105.63889638264973
20
-26.975920639038122
30
0
10
103.36083331743873
20
-26.66477199554447
30
0
10
101.42355290730792
20
-26.286945412953727
30
0
10
99.827057978312155
20
-25.84244654337569
30
0
0
SPLINE
5
357
100
AcDbEntity
8
0
100
AcDbSpline
70
4
71
3
72
8
73
4
74
0
42
0.000000001
43
0.0000000001
44
0.0000000001
40
0
40
0
40
0
40
0
40
1
40
1
40
1
40
1
41
1
41
1
41
1
41
1
10
99.827057978312155
20
-25.84244654337569
30
0
10
99.334403133392314
20
-25.705394185384144
30
0
10
98.60838963190713
20
-25.5461120796204
30
0
10
97.645304037729872
20
-25.368313662211136
30
0
0
SPLINE
5
358
100
AcDbEntity
8
0
100
AcDbSpline
70
4
71
3
72
8
73
4
74
0
42
0.000000001
43
0.0000000001
44
0.0000000001
40
0
40
0
40
0
40
0
40
1
40
1
40
1
40
1
41
1
41
1
41
1
41
1
10
97.645304037729872
20
-25.368313662211136
30
0
10
97.54528995513914
20
-25.253485399882027
30
0
10
97.737908204396561
20
-24.320033817291296
30
0
10
98.223153133392316
20
-22.575374482472775
30
0
0
SPLINE
5
359
100
AcDbEntity
8
0
100
AcDbSpline
70
4
71
3
72
8
73
4
74
0
42
0.000000001
43
0.0000000001
44
0.0000000001
40
0
40
0
40
0
40
0
40
1
40
1
40
1
40
1
41
1
41
1
41
1
41
1
10
98.223153133392316
20
-22.575374482472775
30
0
10
98.208338953653964
20
-22.575374482472775
30
0
10
98.260197060902911
20
-22.282747802734406
30
0
10
98.375025323232009
20
-21.716005102793407
30
0
0
SPLINE
5
360
100
AcDbEntity
8
0
100
AcDbSpline
70
4
71
3
72
8
73
4
74
0
42
0.000000001
43
0.0000000001
44
0.0000000001
40
0
40
0
40
0
40
0
40
1
40
1
40
1
40
1
41
1
41
1
41
1
41
1
10
98.375025323232009
20
-21.716005102793407
30
0
10
99.249208882649725
20
-21.841945412953731
30
0
10
100.21229447682698
20
-22.053085625966425
30
0
10
101.26427645365396
20
-22.342010173797643
30
0
0
LINE
5
361
100
AcDbEntity
8
0
100
AcDbLine
10
101.26427645365396
20
-22.342010173797643
30
0
11
101.4494847869873
21
-22.393868281046583
31
0
0
SPLINE
5
362
100
AcDbEntity
8
0
100
AcDbSpline
70
4
71
3
72
8
73
4
74
0
42
0.000000001
43
0.0000000001
44
0.0000000001
40
0
40
0
40
0
40
0
40
1
40
1
40
1
40
1
41
1
41
1
41
1
41
1
10
101.4494847869873
20
-22.393868281046579
30
0
10
102.11623591740924
20
-22.579076614379918
30
0
10
102.73483107248941
20
-22.760582815806103
30
0
10
103.30527307828265
20
-22.930971317291288
30
0
0
SPLINE
5
363
100
AcDbEntity
8
0
100
AcDbSpline
70
4
71
3
72
8
73
4
74
0
42
0.000000001
43
0.0000000001
44
0.0000000001
40
0
40
0
40
0
40
0
40
1
40
1
40
1
40
1
41
1
41
1
41
1
41
1
10
103.30527307828265
20
-22.930971317291288
30
0
10
103.57938062032062
20
-23.005053520202665
30
0
10
107.22057713190713
20
-23.823676840464305
30
0
10
114.23626970291137
20
-25.379425710042355
30
0
0
SPLINE
5
364
100
AcDbEntity
8
0
100
AcDbSpline
70
4
71
3
72
8
73
4
74
0
42
0.000000001
43
0.0000000001
44
0.0000000001
40
0
40
0
40
0
40
0
40
1
40
1
40
1
40
1
41
1
41
1
41
1
41
1
10
114.23626970291137
20
-25.379425710042355
30
0
10
117.09959177970885
20
-26.175819282531766
30
0
10
119.27023084640503
20
-26.7351520665487
30
0
10
120.75189751307167
20
-27.061114889780718
30
0
0
SPLINE
5
365
100
AcDbEntity
8
0
100
AcDbSpline
70
4
71
3
72
8
73
4
74
0
42
0.000000001
43
0.0000000001
44
0.0000000001
40
0
40
0
40
0
40
0
40
1
40
1
40
1
40
1
41
1
41
1
41
1
41
1
10
120.75189751307167
20
-27.061114889780718
30
0
10
120.37777588844298
20
-29.305838985443149
30
0
10
120.02217622756957
20
-31.028279876709021
30
0
10
119.68880066235857
20
-32.228426259358763
30
0
0
LINE
5
366
100
AcDbEntity
8
0
100
AcDbLine
10
119.6888006623586
20
-32.228426259358763
30
0
11
119.68139639854429
21
-32.228420607248978
31
0
0
SPLINE
5
367
100
AcDbEntity
8
0
100
AcDbSpline
70
4
71
3
72
8
73
4
74
0
42
0.000000001
43
0.0000000001
44
0.0000000001
40
0
40
0
40
0
40
0
40
1
40
1
40
1
40
1
41
1
41
1
41
1
41
1
10
116.74399211883542
20
-30.042964534759559
30
0
10
115.89573761304217
20
-29.820712273915646
30
0
10
115.26603041013081
20
-29.654025904337601
30
0
10
114.85486768404641
20
-29.539197642008492
30
0
0
LINE
5
368
100
AcDbEntity
8
0
100
AcDbLine
10
114.85486768404641
20
-29.539197642008492
30
0
11
114.36591779708861
21
-29.402145284016953
31
0
0
SPLINE
5
369
100
AcDbEntity
8
0
100
AcDbSpline
70
4
71
3
72
8
73
4
74
0
42
0.000000001
43
0.0000000001
44
0.0000000001
40
0
40
0
40
0
40
0
40
1
40
1
40
1
40
1
41
1
41
1
41
1
41
1
10
114.36591779708861
20
-29.402145284016964
30
0
10
113.6176773738861
20
-29.194712855021198
30
0
10
112.04340654055275
20
-28.909490439097127
30
0
10
109.64310529708861
20
-28.550185820261667
30
0
0
SPLINE
5
370
100
AcDbEntity
8
0
100
AcDbSpline
70
4
71
3
72
8
73
4
74
0
42
0.000000001
43
0.0000000001
44
0.0000000001
40
0
40
0
40
0
40
0
40
1
40
1
40
1
40
1
41
1
41
1
41
1
41
1
10
109.64310529708861
20
-28.550185820261667
30
0
10
109.26898367245991
20
-29.635503940582307
30
0
10
109.00969313621519
20
-30.424493249257445
30
0
10
108.8763429101308
20
-30.913445962270135
30
0
0
SPLINE
5
371
100
AcDbEntity
8
0
100
AcDbSpline
70
4
71
3
72
8
73
4
74
0
42
0.000000001
43
0.0000000001
44
0.0000000001
40
0
40
0
40
0
40
0
40
1
40
1
40
1
40
1
41
1
41
1
41
1
41
1
10
108.8763429101308
20
-30.913445962270135
30
0
10
108.72076858838398
20
-31.472773094177281
30
0
10
108.82077984491983
20
-32.117300128936805
30
0
10
109.17637950579325
20
-32.847021414438927
30
0
0
SPLINE
5
372
100
AcDbEntity
8
0
100
AcDbSpline
70
4
71
3
72
8
73
4
74
0
42
0.000000001
43
0.0000000001
44
0.0000000001
40
0
40
0
40
0
40
0
40
1
40
1
40
1
40
1
41
1
41
1
41
1
41
1
10
109.17637950579325
20
-32.847021414438927
30
0
10
109.37269988695778
20
-32.991483688354535
30
0
10
109.65421734491983
20
-33.113721866607705
30
0
10
110.02092905362446
20
-33.213735949198437
30
0
0
LINE
5
373
100
AcDbEntity
8
0
100
AcDbLine
10
110.02092905362444
20
-33.213735949198437
30
0
11
110.40986768404642
21
-33.321154295603471
31
0
0
SPLINE
5
374
100
AcDbEntity
8
0
100
AcDbSpline
70
4
71
3
72
8
73
4
74
0
42
0.000000001
43
0.0000000001
44
0.0000000001
40
0
40
0
40
0
40
0
40
1
40
1
40
1
40
1
41
1
41
1
41
1
41
1
10
110.40986768404639
20
-33.321154295603471
30
0
10
113.08798142751057
20
-33.991607557932582
30
0
10
114.44740991592406
20
-34.254605878194212
30
0
10
114.48815597534178
20
-34.102733688354533
30
0
0
SPLINE
5
375
100
AcDbEntity
8
0
100
AcDbSpline
70
4
71
3
72
8
73
4
74
0
42
0.000000001
43
0.0000000001
44
0.0000000001
40
0
40
0
40
0
40
0
40
1
40
1
40
1
40
1
41
1
41
1
41
1
41
1
10
114.48815597534178
20
-34.102733688354533
30
0
10
114.94376971880592
20
-34.099031556447386
30
0
10
115.34011543909706
20
-33.94345723470056
30
0
10
115.67348817825317
20
-33.639712855021195
30
0
0
SPLINE
5
376
100
AcDbEntity
8
0
100
AcDbSpline
70
4
71
3
72
8
73
4
74
0
42
0.000000001
43
0.0000000001
44
0.0000000001
40
0
40
0
40
0
40
0
40
1
40
1
40
1
40
1
41
1
41
1
41
1
41
1
10
115.67348817825317
20
-33.639712855021195
30
0
10
116.07353885650632
20
-33.206326033274372
30
0
10
116.35505348841347
20
-32.698857008616159
30
0
10
116.51803772608439
20
-32.113597997029657
30
0
0
SPLINE
5
377
100
AcDbEntity
8
0
100
AcDbSpline
70
4
71
3
72
8
73
4
74
0
42
0.000000001
43
0.0000000001
44
0.0000000001
40
0
40
0
40
0
40
0
40
1
40
1
40
1
40
1
41
1
41
1
41
1
41
1
10
116.51803772608439
20
-32.113597997029657
30
0
10
116.66620495796202
20
-31.580197092692089
30
0
10
116.74028716087341
20
-30.891221866607697
30
0
10
116.74399211883542
20
-30.039262402852415
30
0
0
LINE
5
378
100
AcDbEntity
8
0
100
AcDbLine
10
116.74399211883542
20
-30.039262402852415
30
0
11
116.74399211883542
21
-30.042964534759559
31
0
0
LWPOLYLINE
5
379
100
AcDbEntity
8
0
100
AcDbPolyline
90
7
70
1
43
0.0
10
-134.52261540730805
20
29.057017175356584
10
-131.75190597534191
20
29.057017175356584
10
-131.75190597534191
20
27.349396115938859
10
-132.12973821004243
20
27.349396115938859
10
-132.12973821004238
20
28.642150904337601
10
-134.21889363606778
20
28.642150904337601
10
-134.52263801574713
20
28.642150904337601
0
LWPOLYLINE
5
380
100
AcDbEntity
8
0
100
AcDbPolyline
90
4
70
1
43
0.0
10
-132.92612047831227
20
28.675487047831254
10
-132.92612047831227
20
27.567940592765847
10
-133.30395271301279
20
27.567940592765844
10
-133.30395271301282
20
28.675487047831254
0
LWPOLYLINE
5
381
100
AcDbEntity
8
0
100
AcDbPolyline
90
4
70
1
43
0.0
10
-134.52261540730805
20
26.8456292231878
10
-131.75190597534191
20
26.8456292231878
10
-131.75190597534191
20
26.43076295216882
10
-134.52261540730805
20
26.43076295216882
0
LWPOLYLINE
5
382
100
AcDbEntity
8
0
100
AcDbPolyline
90
15
70
1
43
0.0
10
-134.52261540730805
20
25.641775056521134
10
-131.75190597534191
20
25.641775056521134
10
-131.75190597534191
20
25.241724378267957
10
-133.96328262329112
20
23.674862047831251
10
-133.97809115091971
20
23.77487471739455
10
-132.05562774658213
20
23.77487471739455
10
-131.75188336690275
20
23.77487471739455
10
-131.75188336690275
20
23.371120494206785
10
-134.52259279886889
20
23.371120494206785
10
-134.52259279886889
20
23.77487471739455
10
-132.33344024658211
20
25.323216497103409
10
-132.31863171895353
20
25.245429336229996
10
-134.21887102762864
20
25.245429336229996
10
-134.52261540730805
20
25.245429336229996
10
-134.52261540730805
20
25.645480014483173
0
LINE
5
383
100
AcDbEntity
8
0
100
AcDbLine
10
-134.52261540730805
20
22.585836143493687
30
0
11
-131.75190597534191
21
22.585836143493687
31
0
0
LINE
5
384
100
AcDbEntity
8
0
100
AcDbLine
10
-131.75190597534191
20
22.585836143493687
30
0
11
-131.75190597534191
21
21.637570381164586
31
0
0
SPLINE
5
385
100
AcDbEntity
8
0
100
AcDbSpline
70
4
71
3
72
8
73
4
74
0
42
0.000000001
43
0.0000000001
44
0.0000000001
40
0
40
0
40
0
40
0
40
1
40
1
40
1
40
1
41
1
41
1
41
1
41
1
10
-131.75190597534191
20
21.637570381164586
30
0
10
-131.75190597534191
20
21.374574886957838
30
0
10
-131.80747751871752
20
21.133803488413527
30
0
10
-131.91489021301277
20
20.922666101455725
30
0
0
SPLINE
5
386
100
AcDbEntity
8
0
100
AcDbSpline
70
4
71
3
72
8
73
4
74
0
42
0.000000001
43
0.0000000001
44
0.0000000001
40
0
40
0
40
0
40
0
40
1
40
1
40
1
40
1
41
1
41
1
41
1
41
1
10
-131.91489021301277
20
20.922666101455725
30
0
10
-132.02230290730802
20
20.707823756535888
30
0
10
-132.18157936096196
20
20.541137386957843
30
0
10
-132.38903439839689
20
20.41519425074263
30
0
0
SPLINE
5
387
100
AcDbEntity
8
0
100
AcDbSpline
70
4
71
3
72
8
73
4
74
0
42
0.000000001
43
0.0000000001
44
0.0000000001
40
0
40
0
40
0
40
0
40
1
40
1
40
1
40
1
41
1
41
1
41
1
41
1
10
-132.38903439839689
20
20.41519425074263
30
0
10
-132.59646682739267
20
20.289253940582309
30
0
10
-132.84834744771331
20
20.226280959447259
30
0
10
-133.13728329976411
20
20.226280959447259
30
0
0
SPLINE
5
388
100
AcDbEntity
8
0
100
AcDbSpline
70
4
71
3
72
8
73
4
74
0
42
0.000000001
43
0.0000000001
44
0.0000000001
40
0
40
0
40
0
40
0
40
1
40
1
40
1
40
1
41
1
41
1
41
1
41
1
10
-133.13728329976411
20
20.226280959447259
30
0
10
-133.42621915181485
20
20.226280959447259
30
0
10
-133.67809977213551
20
20.289251114527424
30
0
10
-133.88553220113127
20
20.41519425074263
30
0
0
SPLINE
5
389
100
AcDbEntity
8
0
100
AcDbSpline
70
4
71
3
72
8
73
4
74
0
42
0.000000001
43
0.0000000001
44
0.0000000001
40
0
40
0
40
0
40
0
40
1
40
1
40
1
40
1
41
1
41
1
41
1
41
1
10
-133.88553220113127
20
20.41519425074263
30
0
10
-134.09296463012703
20
20.54113456090295
30
0
10
-134.252241083781
20
20.71152871449792
30
0
10
-134.35967638651536
20
20.922666101455725
30
0
0
SPLINE
5
390
100
AcDbEntity
8
0
100
AcDbSpline
70
4
71
3
72
8
73
4
74
0
42
0.000000001
43
0.0000000001
44
0.0000000001
40
0
40
0
40
0
40
0
40
1
40
1
40
1
40
1
41
1
41
1
41
1
41
1
10
-134.35967638651536
20
20.922666101455725
30
0
10
-134.46708908081064
20
21.137508446375563
30
0
10
-134.5226606241863
20
21.374574886957838
30
0
10
-134.5226606241863
20
21.637570381164586
30
0
0
LINE
5
391
100
AcDbEntity
8
0
100
AcDbLine
10
-134.5226606241863
20
21.637570381164586
30
0
11
-134.52261540730805
21
22.585836143493687
31
0
0
SPLINE
5
392
100
AcDbEntity
8
0
100
AcDbSpline
70
4
71
3
72
8
73
4
74
0
42
0.000000001
43
0.0000000001
44
0.0000000001
40
0
40
0
40
0
40
0
40
1
40
1
40
1
40
1
41
1
41
1
41
1
41
1
10
-132.57792790730801
20
20.793020833333369
30
0
10
-132.42606702168789
20
20.885625000000037
30
0
10
-132.31123875935882
20
21.004158220291174
30
0
10
-132.23715090433762
20
21.156030410130853
30
0
0
SPLINE
5
393
100
AcDbEntity
8
0
100
AcDbSpline
70
4
71
3
72
8
73
4
74
0
42
0.000000001
43
0.0000000001
44
0.0000000001
40
0
40
0
40
0
40
0
40
1
40
1
40
1
40
1
41
1
41
1
41
1
41
1
10
-132.23715090433762
20
21.156030410130853
30
0
10
-132.16306304931646
20
21.307902599970532
30
0
10
-132.12603042602547
20
21.470884011586541
30
0
10
-132.12603042602547
20
21.648685255050694
30
0
0
LINE
5
394
100
AcDbEntity
8
0
100
AcDbLine
10
-132.12603042602547
20
21.64868525505069
30
0
11
-132.12603042602547
21
22.289507331848178
31
0
0
LINE
5
395
100
AcDbEntity
8
0
100
AcDbLine
10
-132.12603042602547
20
22.289507331848178
30
0
11
-132.04823478698736
21
22.17097411155704
31
0
0
LINE
5
396
100
AcDbEntity
8
0
100
AcDbLine
10
-132.04823478698736
20
22.17097411155704
30
0
11
-134.24109512329113
21
22.17097411155704
31
0
0
LINE
5
397
100
AcDbEntity
8
0
100
AcDbLine
10
-134.24109512329113
20
22.17097411155704
30
0
11
-134.15219874064138
21
22.289507331848178
31
0
0
LINE
5
398
100
AcDbEntity
8
0
100
AcDbLine
10
-134.15219874064138
20
22.289507331848178
30
0
11
-134.15219874064138
21
21.648685255050694
31
0
0
SPLINE
5
399
100
AcDbEntity
8
0
100
AcDbSpline
70
4
71
3
72
8
73
4
74
0
42
0.000000001
43
0.0000000001
44
0.0000000001
40
0
40
0
40
0
40
0
40
1
40
1
40
1
40
1
41
1
41
1
41
1
41
1
10
-134.15219874064138
20
21.648685255050694
30
0
10
-134.15219874064138
20
21.470884011586541
30
0
10
-134.11516611735036
20
21.307902599970532
30
0
10
-134.04107826232919
20
21.156030410130853
30
0
0
SPLINE
5
400
100
AcDbEntity
8
0
100
AcDbSpline
70
4
71
3
72
8
73
4
74
0
42
0.000000001
43
0.0000000001
44
0.0000000001
40
0
40
0
40
0
40
0
40
1
40
1
40
1
40
1
41
1
41
1
41
1
41
1
10
-134.04107826232919
20
21.156030410130853
30
0
10
-133.96699040730806
20
21.004158220291174
30
0
10
-133.85216214497893
20
20.881922868092889
30
0
10
-133.70030125935881
20
20.793020833333369
30
0
0
SPLINE
5
401
100
AcDbEntity
8
0
100
AcDbSpline
70
4
71
3
72
8
73
4
74
0
42
0.000000001
43
0.0000000001
44
0.0000000001
40
0
40
0
40
0
40
0
40
1
40
1
40
1
40
1
41
1
41
1
41
1
41
1
10
-133.70030125935881
20
20.793020833333369
30
0
10
-133.54844037373869
20
20.704118798573848
30
0
10
-133.36323204040536
20
20.655965649286941
30
0
10
-133.14096847534188
20
20.655965649286941
30
0
0
SPLINE
5
402
100
AcDbEntity
8
0
100
AcDbSpline
70
4
71
3
72
8
73
4
74
0
42
0.000000001
43
0.0000000001
44
0.0000000001
40
0
40
0
40
0
40
0
40
1
40
1
40
1
40
1
41
1
41
1
41
1
41
1
10
-133.14096847534188
20
20.655965649286941
30
0
10
-132.91870491027839
20
20.655965649286941
30
0
10
-132.73720436096201
20
20.700416666666701
30
0
10
-132.58163569132495
20
20.793020833333369
30
0
0
LINE
5
403
100
AcDbEntity
8
0
100
AcDbLine
10
-132.58163569132495
20
20.793020833333369
30
0
11
-132.57792790730801
21
20.793020833333369
31
0
0
LWPOLYLINE
5
404
100
AcDbEntity
8
0
100
AcDbPolyline
90
4
70
1
43
0.0
10
-131.75190597534191
20
19.029836708704664
10
-131.75190597534191
20
16.799929618835485
10
-132.14083895365408
20
16.799929618835485
10
-132.14083895365403
20
19.029836708704668
0
LWPOLYLINE
5
405
100
AcDbEntity
8
0
100
AcDbPolyline
90
4
70
1
43
0.0
10
-134.52261540730805
20
18.122317005793288
10
-131.785230814616
20
18.122317005793288
10
-131.785230814616
20
17.7111542797089
10
-134.52261540730805
20
17.7111542797089
0
LWPOLYLINE
5
406
100
AcDbEntity
8
0
100
AcDbPolyline
90
4
70
1
43
0.0
10
-134.52261540730805
20
16.322091779708899
10
-131.75190597534191
20
16.322091779708899
10
-131.75190597534191
20
15.907224095662473
10
-134.52261540730805
20
15.907224095662471
0
LWPOLYLINE
5
407
100
AcDbEntity
8
0
100
AcDbPolyline
90
4
70
1
43
0.0
10
-132.87796450297046
20
15.962787160873448
10
-132.87796450297046
20
14.447781524658236
10
-133.26689748128263
20
14.447781524658243
10
-133.26689748128263
20
15.962784334818561
0
LWPOLYLINE
5
408
100
AcDbEntity
8
0
100
AcDbPolyline
90
4
70
1
43
0.0
10
-134.52261540730805
20
14.507049547831254
10
-131.75190597534191
20
14.507049547831254
10
-131.75190597534191
20
14.092181863784827
10
-134.52261540730805
20
14.092181863784825
0
LWPOLYLINE
5
409
100
AcDbEntity
8
0
100
AcDbPolyline
90
8
70
1
43
0.0
10
-134.52261540730805
20
13.310605297088658
10
-131.75190597534191
20
13.310605297088658
10
-131.75190597534191
20
11.599279279708895
10
-132.12973821004243
20
11.599279279708901
10
-132.12973821004238
20
12.895737613042236
10
-134.14851356506352
20
12.895737613042231
10
-134.14851356506352
20
11.599279279708895
10
-134.52263801574713
20
11.599279279708901
0
LWPOLYLINE
5
410
100
AcDbEntity
8
0
100
AcDbPolyline
90
4
70
1
43
0.0
10
-132.88908785502124
20
12.925371624628736
10
-132.88908785502124
20
11.817826582590772
10
-133.26692008972176
20
11.817826582590772
10
-133.26692008972174
20
12.925371624628736
0
SPLINE
5
411
100
AcDbEntity
8
0
100
AcDbSpline
70
4
71
3
72
8
73
4
74
0
42
0.000000001
43
0.0000000001
44
0.0000000001
40
0
40
0
40
0
40
0
40
1
40
1
40
1
40
1
41
1
41
1
41
1
41
1
10
-132.12603042602547
20
10.25096283912662
30
0
10
-132.04823478698739
20
10.273186934789058
30
0
10
-131.98527028401702
20
10.291708898544346
30
0
10
-131.94082209269214
20
10.302820946375565
30
0
0
SPLINE
5
412
100
AcDbEntity
8
0
100
AcDbSpline
70
4
71
3
72
8
73
4
74
0
42
0.000000001
43
0.0000000001
44
0.0000000001
40
0
40
0
40
0
40
0
40
1
40
1
40
1
40
1
41
1
41
1
41
1
41
1
10
-131.94082209269214
20
10.302820946375565
30
0
10
-131.89637390136727
20
10.317637952168814
30
0
10
-131.8334093983969
20
10.336157089869214
30
0
10
-131.75561375935882
20
10.358384011586539
30
0
0
LINE
5
413
100
AcDbEntity
8
0
100
AcDbLine
10
-131.75561375935882
20
10.358384011586539
30
0
11
-131.75561375935882
21
9.9175872739156414
31
0
0
LINE
5
414
100
AcDbEntity
8
0
100
AcDbLine
10
-131.75561375935882
20
9.9175872739156414
30
0
11
-131.7630293273927
21
9.9175872739156432
31
0
0
SPLINE
5
415
100
AcDbEntity
8
0
100
AcDbSpline
70
4
71
3
72
8
73
4
74
0
42
0.000000001
43
0.0000000001
44
0.0000000001
40
0
40
0
40
0
40
0
40
1
40
1
40
1
40
1
41
1
41
1
41
1
41
1
10
-131.76302932739264
20
9.9175872739156432
30
0
10
-131.82228604634611
20
9.8953631782532057
30
0
10
-131.87044202168789
20
9.8805461724599546
30
0
10
-131.90008168538418
20
9.8731362565358793
30
0
0
SPLINE
5
416
100
AcDbEntity
8
0
100
AcDbSpline
70
4
71
3
72
8
73
4
74
0
42
0.000000001
43
0.0000000001
44
0.0000000001
40
0
40
0
40
0
40
0
40
1
40
1
40
1
40
1
41
1
41
1
41
1
41
1
10
-131.90008168538418
20
9.8731362565358793
30
0
10
-131.92972134908049
20
9.8657291666667
30
0
10
-131.95933840433764
20
9.85831925074263
30
0
10
-131.98897806803393
20
9.8509121608734489
30
0
0
SPLINE
5
417
100
AcDbEntity
8
0
100
AcDbSpline
70
4
71
3
72
8
73
4
74
0
42
0.000000001
43
0.0000000001
44
0.0000000001
40
0
40
0
40
0
40
0
40
1
40
1
40
1
40
1
41
1
41
1
41
1
41
1
10
-131.98897806803393
20
9.8509121608734489
30
0
10
-132.01861773173025
20
9.8435050710042677
30
0
10
-132.066773707072
20
9.8323901971181549
30
0
10
-132.12973821004238
20
9.8138710594177603
30
0
0
LINE
5
418
100
AcDbEntity
8
0
100
AcDbLine
10
-132.12973821004238
20
9.8138710594177603
30
0
11
-134.11516611735033
21
9.25083896954858
31
0
0
LINE
5
419
100
AcDbEntity
8
0
100
AcDbLine
10
-134.11516611735033
20
9.25083896954858
30
0
11
-134.11516611735036
21
9.3471480941772782
31
0
0
LINE
5
420
100
AcDbEntity
8
0
100
AcDbLine
10
-134.11516611735036
20
9.3471480941772782
30
0
11
-131.75190597534191
21
8.6137218507131301
31
0
0
LINE
5
421
100
AcDbEntity
8
0
100
AcDbLine
10
-131.75190597534191
20
8.6137218507131301
30
0
11
-131.75190597534191
21
8.198854166666699
31
0
0
LINE
5
422
100
AcDbEntity
8
0
100
AcDbLine
10
-131.75190597534191
20
8.198854166666699
30
0
11
-134.11516611735036
21
7.461725791295402
31
0
0
LINE
5
423
100
AcDbEntity
8
0
100
AcDbLine
10
-134.11516611735036
20
7.461725791295402
30
0
11
-134.11516611735036
21
7.5506250000000357
31
0
0
LINE
5
424
100
AcDbEntity
8
0
100
AcDbLine
10
-134.11516611735036
20
7.5506250000000357
30
0
11
-132.11490707397471
21
6.9912950420379989
31
0
0
SPLINE
5
425
100
AcDbEntity
8
0
100
AcDbSpline
70
4
71
3
72
8
73
4
74
0
42
0.000000001
43
0.0000000001
44
0.0000000001
40
0
40
0
40
0
40
0
40
1
40
1
40
1
40
1
41
1
41
1
41
1
41
1
10
-132.11490707397471
20
6.9912950420379953
30
0
10
-132.05565035502127
20
6.9727730782827066
30
0
10
-132.01117955525723
20
6.9579588985443444
30
0
10
-131.98156250000008
20
6.9505489826202744
30
0
0
SPLINE
5
426
100
AcDbEntity
8
0
100
AcDbSpline
70
4
71
3
72
8
73
4
74
0
42
0.000000001
43
0.0000000001
44
0.0000000001
40
0
40
0
40
0
40
0
40
1
40
1
40
1
40
1
41
1
41
1
41
1
41
1
10
-131.98156250000008
20
6.9505489826202744
30
0
10
-131.95192283630379
20
6.9431418927510951
30
0
10
-131.92230578104665
20
6.9357319768270189
30
0
10
-131.89266611735033
20
6.9283248869578369
30
0
0
SPLINE
5
427
100
AcDbEntity
8
0
100
AcDbSpline
70
4
71
3
72
8
73
4
74
0
42
0.000000001
43
0.0000000001
44
0.0000000001
40
0
40
0
40
0
40
0
40
1
40
1
40
1
40
1
41
1
41
1
41
1
41
1
10
-131.89266611735033
20
6.9283248869578369
30
0
10
-131.86302645365404
20
6.9209177970886575
30
0
10
-131.8185782623292
20
6.90980292320255
30
0
10
-131.75932154337571
20
6.89128378550215
30
0
0
LINE
5
428
100
AcDbEntity
8
0
100
AcDbLine
10
-131.75932154337571
20
6.89128378550215
30
0
11
-131.75561375935877
21
6.4578969637553225
31
0
0
SPLINE
5
429
100
AcDbEntity
8
0
100
AcDbSpline
70
4
71
3
72
8
73
4
74
0
42
0.000000001
43
0.0000000001
44
0.0000000001
40
0
40
0
40
0
40
0
40
1
40
1
40
1
40
1
41
1
41
1
41
1
41
1
10
-131.75561375935882
20
6.4578969637553216
30
0
10
-131.84821792602546
20
6.4875309753418282
30
0
10
-131.91859799702971
20
6.5097550710042658
30
0
10
-131.96304618835458
20
6.5208671188354845
30
0
0
SPLINE
5
430
100
AcDbEntity
8
0
100
AcDbSpline
70
4
71
3
72
8
73
4
74
0
42
0.000000001
43
0.0000000001
44
0.0000000001
40
0
40
0
40
0
40
0
40
1
40
1
40
1
40
1
41
1
41
1
41
1
41
1
10
-131.96304618835458
20
6.5208671188354845
30
0
10
-132.0112021636964
20
6.5356841246287347
30
0
10
-132.07787445068368
20
6.5542032623291346
30
0
10
-132.1667708333334
20
6.5801351420084977
30
0
0
LINE
5
431
100
AcDbEntity
8
0
100
AcDbLine
10
-132.1667708333334
20
6.5801351420084977
30
0
11
-134.52632319132493
21
7.2913344637553248
31
0
0
LINE
5
432
100
AcDbEntity
8
0
100
AcDbLine
10
-134.52632319132493
20
7.2913344637553248
30
0
11
-134.52632319132499
21
7.7024971898397148
31
0
0
LINE
5
433
100
AcDbEntity
8
0
100
AcDbLine
10
-134.52632319132499
20
7.7024971898397148
30
0
11
-132.17787157694511
21
8.4544425710042646
31
0
0
LINE
5
434
100
AcDbEntity
8
0
100
AcDbLine
10
-132.17787157694511
20
8.4544425710042646
30
0
11
-132.17787157694511
21
8.3507263565063798
31
0
0
LINE
5
435
100
AcDbEntity
8
0
100
AcDbLine
10
-132.17787157694511
20
8.3507263565063798
30
0
11
-134.52632319132499
21
9.1063766956329673
31
0
0
LINE
5
436
100
AcDbEntity
8
0
100
AcDbLine
10
-134.52632319132499
20
9.1063766956329673
30
0
11
-134.52632319132499
21
9.517539421717359
31
0
0
LINE
5
437
100
AcDbEntity
8
0
100
AcDbLine
10
-134.52632319132499
20
9.517539421717359
30
0
11
-132.14825452168793
21
10.23244370142622
31
0
0
SPLINE
5
438
100
AcDbEntity
8
0
100
AcDbSpline
70
0
71
2
72
6
73
3
74
0
42
0.000000001
43
0.0000000001
44
0.0000000001
40
0
40
0
40
0
40
1
40
1
40
1
10
-132.14825452168787
20
10.23244370142622
30
0
10
-132.13344599405931
20
10.236148659388258
30
0
10
-132.12973821004238
20
10.239850791295401
30
0
0
LINE
5
439
100
AcDbEntity
8
0
100
AcDbLine
10
-132.12973821004238
20
10.239850791295401
30
0
11
-132.12603042602547
21
10.25096283912662
31
0
0
SPLINE
5
440
100
AcDbEntity
8
0
100
AcDbSpline
70
4
71
3
72
8
73
4
74
0
42
0.000000001
43
0.0000000001
44
0.0000000001
40
0
40
0
40
0
40
0
40
1
40
1
40
1
40
1
41
1
41
1
41
1
41
1
10
-134.31518297831224
20
6.4245579942067774
30
0
10
-134.27073478698736
20
6.4060360304514896
30
0
10
-134.20035471598317
20
6.3801069768270207
30
0
10
-134.11145833333342
20
6.3430658753713329
30
0
0
LINE
5
441
100
AcDbEntity
8
0
100
AcDbLine
10
-134.11145833333342
20
6.3430658753713329
30
0
11
-131.75190597534191
21
5.4059121608734468
31
0
0
LINE
5
442
100
AcDbEntity
8
0
100
AcDbLine
10
-131.75190597534191
20
5.4059121608734468
30
0
11
-131.75190597534191
21
4.9873423449198713
31
0
0
LINE
5
443
100
AcDbEntity
8
0
100
AcDbLine
10
-131.75190597534191
20
4.9873423449198713
30
0
11
-134.1225816853842
21
4.046483672459952
31
0
0
SPLINE
5
444
100
AcDbEntity
8
0
100
AcDbSpline
70
4
71
3
72
8
73
4
74
0
42
0.000000001
43
0.0000000001
44
0.0000000001
40
0
40
0
40
0
40
0
40
1
40
1
40
1
40
1
41
1
41
1
41
1
41
1
10
-134.1225816853842
20
4.046483672459952
30
0
10
-134.21147806803393
20
4.0094425710042643
30
0
10
-134.27815035502124
20
3.9835135173797953
30
0
10
-134.32259854634611
20
3.9649915536245013
30
0
0
SPLINE
5
445
100
AcDbEntity
8
0
100
AcDbSpline
70
4
71
3
72
8
73
4
74
0
42
0.000000001
43
0.0000000001
44
0.0000000001
40
0
40
0
40
0
40
0
40
1
40
1
40
1
40
1
41
1
41
1
41
1
41
1
10
-134.32259854634611
20
3.9649915536245013
30
0
10
-134.36704673767099
20
3.9464695898692135
30
0
10
-134.4337190246583
20
3.9205405362447445
30
0
10
-134.51893023173022
20
3.8872043927510882
30
0
0
LINE
5
446
100
AcDbEntity
8
0
100
AcDbLine
10
-134.51893023173022
20
3.8872043927510882
30
0
11
-134.51893023173022
21
4.3391131782532044
31
0
0
SPLINE
5
447
100
AcDbEntity
8
0
100
AcDbSpline
70
4
71
3
72
8
73
4
74
0
42
0.000000001
43
0.0000000001
44
0.0000000001
40
0
40
0
40
0
40
0
40
1
40
1
40
1
40
1
41
1
41
1
41
1
41
1
10
-134.51893023173022
20
4.3391131782532044
30
0
10
-134.45596572875982
20
4.361337273915642
30
0
10
-134.40780975341806
20
4.3798592376709298
30
0
10
-134.37817008972178
20
4.3909712855021485
30
0
0
SPLINE
5
448
100
AcDbEntity
8
0
100
AcDbSpline
70
4
71
3
72
8
73
4
74
0
42
0.000000001
43
0.0000000001
44
0.0000000001
40
0
40
0
40
0
40
0
40
1
40
1
40
1
40
1
41
1
41
1
41
1
41
1
10
-134.37817008972178
20
4.3909712855021485
30
0
10
-134.34853042602549
20
4.4020833333333673
30
0
10
-134.31891337076831
20
4.4131953811645861
30
0
10
-134.28556592305509
20
4.4243074289957987
30
0
0
SPLINE
5
449
100
AcDbEntity
8
0
100
AcDbSpline
70
4
71
3
72
8
73
4
74
0
42
0.000000001
43
0.0000000001
44
0.0000000001
40
0
40
0
40
0
40
0
40
1
40
1
40
1
40
1
41
1
41
1
41
1
41
1
10
-134.28556592305509
20
4.4243074289957987
30
0
10
-134.2559262593588
20
4.4354194768270174
30
0
10
-134.20777028401704
20
4.4539414405823052
30
0
10
-134.14851356506352
20
4.4761655362447428
30
0
0
LINE
5
450
100
AcDbEntity
8
0
100
AcDbLine
10
-134.14851356506352
20
4.4761655362447428
30
0
11
-132.03713404337572
21
5.2577449289958
31
0
0
LINE
5
451
100
AcDbEntity
8
0
100
AcDbLine
10
-132.03713404337572
20
5.2577449289958
30
0
11
-132.03713404337574
21
5.1392117087046616
31
0
0
LINE
5
452
100
AcDbEntity
8
0
100
AcDbLine
10
-132.03713404337574
20
5.1392117087046616
30
0
11
-134.15590652465829
21
5.9281981913249009
31
0
0
SPLINE
5
453
100
AcDbEntity
8
0
100
AcDbSpline
70
4
71
3
72
8
73
4
74
0
42
0.000000001
43
0.0000000001
44
0.0000000001
40
0
40
0
40
0
40
0
40
1
40
1
40
1
40
1
41
1
41
1
41
1
41
1
10
-134.15590652465829
20
5.9281981913249044
30
0
10
-134.21516324361176
20
5.9504222869873358
30
0
10
-134.25963404337574
20
5.9652392927805922
30
0
10
-134.28925109863289
20
5.9763513406118109
30
0
0
SPLINE
5
454
100
AcDbEntity
8
0
100
AcDbSpline
70
4
71
3
72
8
73
4
74
0
42
0.000000001
43
0.0000000001
44
0.0000000001
40
0
40
0
40
0
40
0
40
1
40
1
40
1
40
1
41
1
41
1
41
1
41
1
10
-134.28925109863289
20
5.9763513406118109
30
0
10
-134.31889076232918
20
5.9874633884430235
30
0
10
-134.34850781758638
20
5.9985754362742423
30
0
10
-134.37814748128264
20
6.0096874841054611
30
0
0
SPLINE
5
455
100
AcDbEntity
8
0
100
AcDbSpline
70
4
71
3
72
8
73
4
74
0
42
0.000000001
43
0.0000000001
44
0.0000000001
40
0
40
0
40
0
40
0
40
1
40
1
40
1
40
1
41
1
41
1
41
1
41
1
10
-134.37814748128264
20
6.0096874841054611
30
0
10
-134.40778714497893
20
6.0207995319366798
30
0
10
-134.45594312032074
20
6.0393214956919667
30
0
10
-134.5151998392742
20
6.0578406333923676
30
0
0
LINE
5
456
100
AcDbEntity
8
0
100
AcDbLine
10
-134.5151998392742
20
6.0578406333923676
30
0
11
-134.5151998392742
21
6.506044460932447
31
0
0
SPLINE
5
457
100
AcDbEntity
8
0
100
AcDbSpline
70
4
71
3
72
8
73
4
74
0
42
0.000000001
43
0.0000000001
44
0.0000000001
40
0
40
0
40
0
40
0
40
1
40
1
40
1
40
1
41
1
41
1
41
1
41
1
10
-134.5151998392742
20
6.5060444609324461
30
0
10
-134.42259567260751
20
6.4690033594767584
30
0
10
-134.35221560160326
20
6.4430743058522904
30
0
10
-134.30776741027844
20
6.4245523420969954
30
0
0
LINE
5
458
100
AcDbEntity
8
0
100
AcDbLine
10
-134.30776741027844
20
6.4245523420969954
30
0
11
-134.31518297831224
21
6.4245579942067774
31
0
0
LWPOLYLINE
5
459
100
AcDbEntity
8
0
100
AcDbPolyline
90
5
70
1
43
0.0
10
-133.41136540730801
20
5.8467088985443416
10
-133.41136540730801
20
4.5428434753418268
10
-133.78178207397468
20
4.4835754521688171
10
-133.78178207397468
20
5.9096790536245072
10
-133.41136540730801
20
5.8504110304514896
0
LINE
5
460
100
AcDbEntity
8
0
100
AcDbLine
10
-134.52261540730805
20
3.1278490956624694
30
0
11
-133.30395271301282
21
3.1278490956624694
31
0
0
LINE
5
461
100
AcDbEntity
8
0
100
AcDbLine
10
-133.30395271301282
20
3.1278490956624694
30
0
11
-132.17418640136731
21
3.8353462855021503
31
0
0
SPLINE
5
462
100
AcDbEntity
8
0
100
AcDbSpline
70
4
71
3
72
8
73
4
74
0
42
0.000000001
43
0.0000000001
44
0.0000000001
40
0
40
0
40
0
40
0
40
1
40
1
40
1
40
1
41
1
41
1
41
1
41
1
10
-132.17418640136725
20
3.8353462855021503
30
0
10
-132.07787445068368
20
3.8946143086751634
30
0
10
-132.00749437967946
20
3.9390625000000323
30
0
10
-131.96304618835458
20
3.9686965115865389
30
0
0
SPLINE
5
463
100
AcDbEntity
8
0
100
AcDbSpline
70
4
71
3
72
8
73
4
74
0
42
0.000000001
43
0.0000000001
44
0.0000000001
40
0
40
0
40
0
40
0
40
1
40
1
40
1
40
1
41
1
41
1
41
1
41
1
10
-131.96304618835458
20
3.9686965115865389
30
0
10
-131.91859799702971
20
3.9983305231730455
30
0
10
-131.84821792602546
20
4.0427787144979144
30
0
10
-131.75561375935882
20
4.0983417797088961
30
0
0
LINE
5
464
100
AcDbEntity
8
0
100
AcDbLine
10
-131.75561375935885
20
4.0983417797088961
30
0
11
-131.75561375935882
21
3.6205039405823092
31
0
0
SPLINE
5
465
100
AcDbEntity
8
0
100
AcDbSpline
70
4
71
3
72
8
73
4
74
0
42
0.000000001
43
0.0000000001
44
0.0000000001
40
0
40
0
40
0
40
0
40
1
40
1
40
1
40
1
41
1
41
1
41
1
41
1
10
-131.75561375935882
20
3.6205039405823047
30
0
10
-131.82599383036302
20
3.5797578811645856
30
0
10
-131.87414980570483
20
3.5464217376709293
30
0
10
-131.90747464497892
20
3.5241948159536038
30
0
0
SPLINE
5
466
100
AcDbEntity
8
0
100
AcDbSpline
70
4
71
3
72
8
73
4
74
0
42
0.000000001
43
0.0000000001
44
0.0000000001
40
0
40
0
40
0
40
0
40
1
40
1
40
1
40
1
41
1
41
1
41
1
41
1
10
-131.90747464497892
20
3.5241948159536038
30
0
10
-131.94082209269214
20
3.5019707202911725
30
0
10
-131.98895545959482
20
3.4723367087046597
30
0
10
-132.05565035502127
20
3.4315906492869406
30
0
0
SPLINE
5
467
100
AcDbEntity
8
0
100
AcDbSpline
70
4
71
3
72
8
73
4
74
0
42
0.000000001
43
0.0000000001
44
0.0000000001
40
0
40
0
40
0
40
0
40
1
40
1
40
1
40
1
41
1
41
1
41
1
41
1
10
-132.05565035502127
20
3.4315906492869406
30
0
10
-132.07787445068368
20
3.4167736434936846
30
0
10
-132.09639076232921
20
3.4056615956624658
30
0
10
-132.11122189839688
20
3.3982545057932843
30
0
0
SPLINE
5
468
100
AcDbEntity
8
0
100
AcDbSpline
70
4
71
3
72
8
73
4
74
0
42
0.000000001
43
0.0000000001
44
0.0000000001
40
0
40
0
40
0
40
0
40
1
40
1
40
1
40
1
41
1
41
1
41
1
41
1
10
-132.11122189839688
20
3.3982545057932843
30
0
10
-132.1260530344646
20
3.3908474159241031
30
0
10
-132.1445693461101
20
3.3797325420379964
30
0
10
-132.16679344177254
20
3.3649183622996341
30
0
0
LINE
5
469
100
AcDbEntity
8
0
100
AcDbLine
10
-132.16679344177254
20
3.3649183622996341
30
0
11
-133.05580248514821
21
2.8167004521688153
31
0
0
LINE
5
470
100
AcDbEntity
8
0
100
AcDbLine
10
-133.05580248514821
20
2.8167004521688153
30
0
11
-133.05580248514821
21
3.0093158753713318
31
0
0
LINE
5
471
100
AcDbEntity
8
0
100
AcDbLine
10
-133.05580248514821
20
3.0093158753713318
30
0
11
-132.14827713012704
21
2.4425788275401135
31
0
0
SPLINE
5
472
100
AcDbEntity
8
0
100
AcDbSpline
70
4
71
3
72
8
73
4
74
0
42
0.000000001
43
0.0000000001
44
0.0000000001
40
0
40
0
40
0
40
0
40
1
40
1
40
1
40
1
41
1
41
1
41
1
41
1
10
-132.14827713012704
20
2.4425788275401139
30
0
10
-132.1260530344646
20
2.4277618217468575
30
0
10
-132.10753672281911
20
2.4203547318776764
30
0
10
-132.09641337076832
20
2.4092426840464576
30
0
0
SPLINE
5
473
100
AcDbEntity
8
0
100
AcDbSpline
70
4
71
3
72
8
73
4
74
0
42
0.000000001
43
0.0000000001
44
0.0000000001
40
0
40
0
40
0
40
0
40
1
40
1
40
1
40
1
41
1
41
1
41
1
41
1
10
-132.09641337076832
20
2.4092426840464576
30
0
10
-132.0852900187175
20
2.4018355941772769
30
0
10
-132.066773707072
20
2.3907207202911702
30
0
10
-132.04454961140956
20
2.3759065405528075
30
0
0
SPLINE
5
474
100
AcDbEntity
8
0
100
AcDbSpline
70
4
71
3
72
8
73
4
74
0
42
0.000000001
43
0.0000000001
44
0.0000000001
40
0
40
0
40
0
40
0
40
1
40
1
40
1
40
1
41
1
41
1
41
1
41
1
10
-132.04454961140956
20
2.3759065405528075
30
0
10
-131.97787732442231
20
2.3351604811350821
30
0
10
-131.92972134908049
20
2.301824337641432
30
0
10
-131.89637390136727
20
2.283302373886138
30
0
0
SPLINE
5
475
100
AcDbEntity
8
0
100
AcDbSpline
70
4
71
3
72
8
73
4
74
0
42
0.000000001
43
0.0000000001
44
0.0000000001
40
0
40
0
40
0
40
0
40
1
40
1
40
1
40
1
41
1
41
1
41
1
41
1
10
-131.89637390136727
20
2.283302373886138
30
0
10
-131.86302645365404
20
2.2647804101308506
30
0
10
-131.81489308675137
20
2.2351492245992315
30
0
10
-131.75190597534191
20
2.1944031651815128
30
0
0
LINE
5
476
100
AcDbEntity
8
0
100
AcDbLine
10
-131.75190597534188
20
2.1944031651815123
30
0
11
-131.75190597534191
21
1.7276773738861428
31
0
0
SPLINE
5
477
100
AcDbEntity
8
0
100
AcDbSpline
70
4
71
3
72
8
73
4
74
0
42
0.000000001
43
0.0000000001
44
0.0000000001
40
0
40
0
40
0
40
0
40
1
40
1
40
1
40
1
41
1
41
1
41
1
41
1
10
-131.75190597534191
20
1.7276773738861402
30
0
10
-131.84451014200852
20
1.7869453970591531
30
0
10
-131.91118242899586
20
1.8276886304219908
30
0
10
-131.95933840433764
20
1.8573226420084969
30
0
0
SPLINE
5
478
100
AcDbEntity
8
0
100
AcDbSpline
70
4
71
3
72
8
73
4
74
0
42
0.000000001
43
0.0000000001
44
0.0000000001
40
0
40
0
40
0
40
0
40
1
40
1
40
1
40
1
41
1
41
1
41
1
41
1
10
-131.95933840433764
20
1.8573226420084969
30
0
10
-132.00378659566252
20
1.886956653595004
30
0
10
-132.07045888264983
20
1.9277027130127289
30
0
10
-132.15935526529958
20
1.9832629521688165
30
0
0
LINE
5
479
100
AcDbEntity
8
0
100
AcDbLine
10
-132.15935526529958
20
1.9832629521688165
30
0
11
-133.30395271301282
21
2.6981672318776795
31
0
0
LINE
5
480
100
AcDbEntity
8
0
100
AcDbLine
10
-133.30395271301282
20
2.6981672318776795
30
0
11
-134.21887102762869
21
2.6981672318776795
31
0
0
LINE
5
481
100
AcDbEntity
8
0
100
AcDbLine
10
-134.21887102762869
20
2.6981672318776795
30
0
11
-134.52261540730805
21
2.6981672318776786
31
0
0
LINE
5
482
100
AcDbEntity
8
0
100
AcDbLine
10
-134.52261540730805
20
2.6981672318776786
30
0
11
-134.52261540730805
21
3.1167370478312515
31
0
0
LINE
5
483
100
AcDbEntity
8
0
100
AcDbLine
10
-134.52261540730805
20
3.1167370478312515
30
0
11
-134.52261540730805
21
3.1278490956624694
31
0
0
SPLINE
5
484
100
AcDbEntity
8
0
100
AcDbSpline
70
4
71
3
72
8
73
4
74
0
42
0.000000001
43
0.0000000001
44
0.0000000001
40
0
40
0
40
0
40
0
40
1
40
1
40
1
40
1
41
1
41
1
41
1
41
1
10
-134.85970723470058
20
1.623958333333364
30
0
10
-134.7596875000001
20
1.5498761304219881
30
0
10
-134.64856702168791
20
1.5091300710042632
30
0
10
-134.52263801574713
20
1.501720155080194
30
0
0
SPLINE
5
485
100
AcDbEntity
8
0
100
AcDbSpline
70
4
71
3
72
8
73
4
74
0
42
0.000000001
43
0.0000000001
44
0.0000000001
40
0
40
0
40
0
40
0
40
1
40
1
40
1
40
1
41
1
41
1
41
1
41
1
10
-134.52263801574713
20
1.501720155080194
30
0
10
-134.53005358378101
20
1.5239442507426255
30
0
10
-134.53744654337572
20
1.5424662144979129
30
0
10
-134.54115432739263
20
1.5572832202911697
30
0
0
SPLINE
5
486
100
AcDbEntity
8
0
100
AcDbSpline
70
4
71
3
72
8
73
4
74
0
42
0.000000001
43
0.0000000001
44
0.0000000001
40
0
40
0
40
0
40
0
40
1
40
1
40
1
40
1
41
1
41
1
41
1
41
1
10
-134.54115432739263
20
1.5572832202911697
30
0
10
-134.54115432739263
20
1.5721002260844197
30
0
10
-134.54856989542651
20
1.5906193637848198
30
0
10
-134.54856989542651
20
1.6128462855021453
30
0
0
SPLINE
5
487
100
AcDbEntity
8
0
100
AcDbSpline
70
4
71
3
72
8
73
4
74
0
42
0.000000001
43
0.0000000001
44
0.0000000001
40
0
40
0
40
0
40
0
40
1
40
1
40
1
40
1
41
1
41
1
41
1
41
1
10
-134.54856989542651
20
1.6128462855021453
30
0
10
-134.54856989542651
20
1.6832263565063772
30
0
10
-134.52263801574713
20
1.7461965115865397
30
0
10
-134.46708908081064
20
1.8017595767975152
30
0
0
SPLINE
5
488
100
AcDbEntity
8
0
100
AcDbSpline
70
4
71
3
72
8
73
4
74
0
42
0.000000001
43
0.0000000001
44
0.0000000001
40
0
40
0
40
0
40
0
40
1
40
1
40
1
40
1
41
1
41
1
41
1
41
1
10
-134.46708908081064
20
1.8017595767975152
30
0
10
-134.41151753743495
20
1.8573226420084969
30
0
10
-134.34484525044769
20
1.8832516956329659
30
0
10
-134.27075739542653
20
1.8832516956329659
30
0
0
SPLINE
5
489
100
AcDbEntity
8
0
100
AcDbSpline
70
4
71
3
72
8
73
4
74
0
42
0.000000001
43
0.0000000001
44
0.0000000001
40
0
40
0
40
0
40
0
40
1
40
1
40
1
40
1
41
1
41
1
41
1
41
1
10
-134.27075739542653
20
1.8832516956329659
30
0
10
-134.18556879679369
20
1.8832516956329659
30
0
10
-134.11889650980638
20
1.8536176840464598
30
0
10
-134.06332496643077
20
1.798054618835478
30
0
0
SPLINE
5
490
100
AcDbEntity
8
0
100
AcDbSpline
70
4
71
3
72
8
73
4
74
0
42
0.000000001
43
0.0000000001
44
0.0000000001
40
0
40
0
40
0
40
0
40
1
40
1
40
1
40
1
41
1
41
1
41
1
41
1
10
-134.06332496643077
20
1.798054618835478
30
0
10
-134.00775342305511
20
1.7424915536245023
30
0
10
-133.98552932739267
20
1.6721143086751644
30
0
10
-133.98552932739267
20
1.5906221898397139
30
0
0
SPLINE
5
491
100
AcDbEntity
8
0
100
AcDbSpline
70
4
71
3
72
8
73
4
74
0
42
0.000000001
43
0.0000000001
44
0.0000000001
40
0
40
0
40
0
40
0
40
1
40
1
40
1
40
1
41
1
41
1
41
1
41
1
10
-133.98552932739267
20
1.5906221898397139
30
0
10
-133.98552932739267
20
1.4832010173797938
30
0
10
-134.02256195068367
20
1.3943018086751624
30
0
10
-134.1003575897218
20
1.3276266956329681
30
0
0
SPLINE
5
492
100
AcDbEntity
8
0
100
AcDbSpline
70
4
71
3
72
8
73
4
74
0
42
0.000000001
43
0.0000000001
44
0.0000000001
40
0
40
0
40
0
40
0
40
1
40
1
40
1
40
1
41
1
41
1
41
1
41
1
10
-134.1003575897218
20
1.3276266956329681
30
0
10
-134.17815322875984
20
1.2609515825907676
30
0
10
-134.27815035502124
20
1.2276154390971172
30
0
10
-134.40780975341806
20
1.2276154390971172
30
0
0
SPLINE
5
493
100
AcDbEntity
8
0
100
AcDbSpline
70
4
71
3
72
8
73
4
74
0
42
0.000000001
43
0.0000000001
44
0.0000000001
40
0
40
0
40
0
40
0
40
1
40
1
40
1
40
1
41
1
41
1
41
1
41
1
10
-134.40780975341806
20
1.2276154390971172
30
0
10
-134.53746915181486
20
1.2276154390971172
30
0
10
-134.65598258972176
20
1.257249450683624
30
0
10
-134.76341789245612
20
1.3165146478017493
30
0
0
SPLINE
5
494
100
AcDbEntity
8
0
100
AcDbSpline
70
4
71
3
72
8
73
4
74
0
42
0.000000001
43
0.0000000001
44
0.0000000001
40
0
40
0
40
0
40
0
40
1
40
1
40
1
40
1
41
1
41
1
41
1
41
1
10
-134.76341789245612
20
1.3165146478017493
30
0
10
-134.87085319519051
20
1.3757798449198744
30
0
10
-134.95604179382332
20
1.4609769217173563
30
0
10
-135.0227140808106
20
1.5683980941772764
30
0
0
SPLINE
5
495
100
AcDbEntity
8
0
100
AcDbSpline
70
4
71
3
72
8
73
4
74
0
42
0.000000001
43
0.0000000001
44
0.0000000001
40
0
40
0
40
0
40
0
40
1
40
1
40
1
40
1
41
1
41
1
41
1
41
1
10
-135.0227140808106
20
1.5683980941772764
30
0
10
-135.08938636779791
20
1.6758192666371956
30
0
10
-135.12644159952811
20
1.8017595767975152
30
0
10
-135.13754234313976
20
1.9425197188059795
30
0
0
SPLINE
5
496
100
AcDbEntity
8
0
100
AcDbSpline
70
4
71
3
72
8
73
4
74
0
42
0.000000001
43
0.0000000001
44
0.0000000001
40
0
40
0
40
0
40
0
40
1
40
1
40
1
40
1
41
1
41
1
41
1
41
1
10
-135.13754234313976
20
1.9425197188059795
30
0
10
-135.05606152852386
20
1.8017624028524093
30
0
10
-134.96345736185717
20
1.6943412303924898
30
0
10
-134.86714541117362
20
1.6202562014262201
30
0
0
LINE
5
497
100
AcDbEntity
8
0
100
AcDbLine
10
-134.86714541117362
20
1.6202562014262201
30
0
11
-134.85970723470058
21
1.623958333333364
31
0
0
LWPOLYLINE
5
498
100
AcDbEntity
8
0
100
AcDbPolyline
90
17
70
1
43
0.0
10
-134.52261540730805
20
-0.38369932174679544
10
-131.75190597534191
20
-0.38369932174679655
10
-131.75190597534191
20
-0.7393018086751002
10
-133.34840090433767
20
-1.8431418927510268
10
-133.33359237670905
20
-1.6542314275105485
10
-131.75561375935879
20
-2.7469594637552621
10
-131.75561375935882
20
-3.1025619506835636
10
-134.52632319132499
20
-3.1025619506835622
10
-134.52632319132499
20
-2.7025112724303888
10
-132.30382319132499
20
-2.7025112724303901
10
-132.34085581461596
20
-2.7914133071899117
10
-133.89290255228687
20
-1.746835594177214
10
-132.32604728698738
20
-0.68744370142615585
10
-132.30753097534188
20
-0.78745778401689392
10
-134.22628659566251
20
-0.78745778401689281
10
-134.5300309753419
20
-0.78745778401689392
10
-134.53003097534184
20
-0.38740710576371962
0
SPLINE
5
499
100
AcDbEntity
8
0
100
AcDbSpline
70
4
71
3
72
8
73
4
74
0
42
0.000000001
43
0.0000000001
44
0.0000000001
40
0
40
0
40
0
40
0
40
1
40
1
40
1
40
1
41
1
41
1
41
1
41
1
10
-134.31518297831224
20
-3.6026210594176966
30
0
10
-134.27073478698736
20
-3.6211430231729844
30
0
10
-134.20035471598317
20
-3.6470692507425664
30
0
10
-134.11145833333342
20
-3.6841131782531411
30
0
0
LINE
5
500
100
AcDbEntity
8
0
100
AcDbLine
10
-134.11145833333342
20
-3.6841131782531411
30
0
11
-131.75190597534191
21
-4.6212668927510272
31
0
0
LINE
5
501
100
AcDbEntity
8
0
100
AcDbLine
10
-131.75190597534191
20
-4.6212668927510272
30
0
11
-131.75190597534191
21
-5.0398395347594942
31
0
0
LINE
5
502
100
AcDbEntity
8
0
100
AcDbLine
10
-131.75190597534191
20
-5.0398395347594942
30
0
11
-134.1225816853842
21
-5.9806953811645176
31
0
0
SPLINE
5
503
100
AcDbEntity
8
0
100
AcDbSpline
70
4
71
3
72
8
73
4
74
0
42
0.000000001
43
0.0000000001
44
0.0000000001
40
0
40
0
40
0
40
0
40
1
40
1
40
1
40
1
41
1
41
1
41
1
41
1
10
-134.1225816853842
20
-5.9806953811645229
30
0
10
-134.21147806803393
20
-6.017739308675103
30
0
10
-134.27815035502124
20
-6.0436655362446778
30
0
10
-134.32259854634611
20
-6.0621874999999736
30
0
0
SPLINE
5
504
100
AcDbEntity
8
0
100
AcDbSpline
70
4
71
3
72
8
73
4
74
0
42
0.000000001
43
0.0000000001
44
0.0000000001
40
0
40
0
40
0
40
0
40
1
40
1
40
1
40
1
41
1
41
1
41
1
41
1
10
-134.32259854634611
20
-6.0621874999999736
30
0
10
-134.36704673767099
20
-6.0807094637552606
30
0
10
-134.4337190246583
20
-6.1066356913248416
30
0
10
-134.51893023173022
20
-6.1399774869282737
30
0
0
LINE
5
505
100
AcDbEntity
8
0
100
AcDbLine
10
-134.51893023173022
20
-6.1399774869282737
30
0
11
-134.51893023173022
21
-5.6880687014261566
31
0
0
SPLINE
5
506
100
AcDbEntity
8
0
100
AcDbSpline
70
4
71
3
72
8
73
4
74
0
42
0.000000001
43
0.0000000001
44
0.0000000001
40
0
40
0
40
0
40
0
40
1
40
1
40
1
40
1
41
1
41
1
41
1
41
1
10
-134.51893023173022
20
-5.6880687014261566
30
0
10
-134.45596572875982
20
-5.6658446057637253
30
0
10
-134.40780975341806
20
-5.6473226420084321
30
0
10
-134.37817008972178
20
-5.6362105941772196
30
0
0
SPLINE
5
507
100
AcDbEntity
8
0
100
AcDbSpline
70
4
71
3
72
8
73
4
74
0
42
0.000000001
43
0.0000000001
44
0.0000000001
40
0
40
0
40
0
40
0
40
1
40
1
40
1
40
1
41
1
41
1
41
1
41
1
10
-134.37817008972178
20
-5.6362105941772196
30
0
10
-134.34853042602549
20
-5.6250985463460008
30
0
10
-134.31891337076831
20
-5.613986498514782
30
0
10
-134.28556592305509
20
-5.6028744506835633
30
0
0
SPLINE
5
508
100
AcDbEntity
8
0
100
AcDbSpline
70
4
71
3
72
8
73
4
74
0
42
0.000000001
43
0.0000000001
44
0.0000000001
40
0
40
0
40
0
40
0
40
1
40
1
40
1
40
1
41
1
41
1
41
1
41
1
10
-134.28556592305509
20
-5.6028744506835633
30
0
10
-134.2559262593588
20
-5.5917624028523445
30
0
10
-134.20777028401704
20
-5.5732404390970558
30
0
10
-134.14851356506352
20
-5.5510163434346254
30
0
0
LINE
5
509
100
AcDbEntity
8
0
100
AcDbLine
10
-134.14851356506352
20
-5.5510163434346254
30
0
11
-132.03713404337572
21
-4.7694369506835681
31
0
0
LINE
5
510
100
AcDbEntity
8
0
100
AcDbLine
10
-132.03713404337572
20
-4.7694369506835681
30
0
11
-132.03713404337574
21
-4.8879729970295926
31
0
0
LINE
5
511
100
AcDbEntity
8
0
100
AcDbLine
10
-132.03713404337574
20
-4.8879729970295926
30
0
11
-134.15590652465829
21
-4.0989836883544637
31
0
0
SPLINE
5
512
100
AcDbEntity
8
0
100
AcDbSpline
70
4
71
3
72
8
73
4
74
0
42
0.000000001
43
0.0000000001
44
0.0000000001
40
0
40
0
40
0
40
0
40
1
40
1
40
1
40
1
41
1
41
1
41
1
41
1
10
-134.15590652465829
20
-4.0989836883544637
30
0
10
-134.21516324361176
20
-4.0767595926920261
30
0
10
-134.25963404337574
20
-4.0619397608438828
30
0
10
-134.28925109863289
20
-4.050827713012664
30
0
0
SPLINE
5
513
100
AcDbEntity
8
0
100
AcDbSpline
70
4
71
3
72
8
73
4
74
0
42
0.000000001
43
0.0000000001
44
0.0000000001
40
0
40
0
40
0
40
0
40
1
40
1
40
1
40
1
41
1
41
1
41
1
41
1
10
-134.28925109863289
20
-4.050827713012664
30
0
10
-134.31889076232918
20
-4.0397156651814505
30
0
10
-134.34850781758638
20
-4.0286036173502318
30
0
10
-134.37814748128264
20
-4.017491569519013
30
0
0
SPLINE
5
514
100
AcDbEntity
8
0
100
AcDbSpline
70
4
71
3
72
8
73
4
74
0
42
0.000000001
43
0.0000000001
44
0.0000000001
40
0
40
0
40
0
40
0
40
1
40
1
40
1
40
1
41
1
41
1
41
1
41
1
10
-134.37814748128264
20
-4.017491569519013
30
0
10
-134.40778714497893
20
-4.0063795216877942
30
0
10
-134.45594312032074
20
-3.9878575579325073
30
0
10
-134.5151998392742
20
-3.969335594177219
30
0
0
LINE
5
515
100
AcDbEntity
8
0
100
AcDbLine
10
-134.5151998392742
20
-3.969335594177219
30
0
11
-134.5151998392742
21
-3.5211289405822477
31
0
0
SPLINE
5
516
100
AcDbEntity
8
0
100
AcDbSpline
70
4
71
3
72
8
73
4
74
0
42
0.000000001
43
0.0000000001
44
0.0000000001
40
0
40
0
40
0
40
0
40
1
40
1
40
1
40
1
41
1
41
1
41
1
41
1
10
-134.5151998392742
20
-3.5211289405822468
30
0
10
-134.42259567260751
20
-3.5581728680928282
30
0
10
-134.35221560160326
20
-3.584099095662403
30
0
10
-134.30776741027844
20
-3.6026210594176966
30
0
0
LINE
5
517
100
AcDbEntity
8
0
100
AcDbLine
10
-134.30776741027844
20
-3.6026210594176966
30
0
11
-134.31518297831224
21
-3.6026210594176966
31
0
0
LWPOLYLINE
5
518
100
AcDbEntity
8
0
100
AcDbPolyline
90
5
70
1
43
0.0
10
-133.41136540730801
20
-4.1767680231729827
10
-133.41136540730801
20
-5.4806362724303881
10
-133.78178207397468
20
-5.5399042956034084
10
-133.78178207397468
20
-4.1137978680928269
10
-133.41136540730801
20
-4.1730658912658409
0
LWPOLYLINE
5
519
100
AcDbEntity
8
0
100
AcDbPolyline
90
4
70
1
43
0.0
10
-134.52261540730805
20
-6.5622522608438842
10
-131.75190597534191
20
-6.5622522608438842
10
-131.75190597534191
20
-6.9771171188354186
10
-134.52261540730805
20
-6.9771171188354186
0
LINE
5
520
100
AcDbEntity
8
0
100
AcDbLine
10
-133.05207209269213
20
-6.9215568796793363
30
0
11
-132.19270271301275
21
-7.795740439097063
31
0
0
SPLINE
5
521
100
AcDbEntity
8
0
100
AcDbSpline
70
4
71
3
72
8
73
4
74
0
42
0.000000001
43
0.0000000001
44
0.0000000001
40
0
40
0
40
0
40
0
40
1
40
1
40
1
40
1
41
1
41
1
41
1
41
1
10
-132.19270271301275
20
-7.7957404390970559
30
0
10
-132.11861485799164
20
-7.8698226420084367
30
0
10
-132.06306592305506
20
-7.9253885332743064
30
0
10
-132.02601069132496
20
-7.9587246767679565
30
0
0
SPLINE
5
522
100
AcDbEntity
8
0
100
AcDbSpline
70
4
71
3
72
8
73
4
74
0
42
0.000000001
43
0.0000000001
44
0.0000000001
40
0
40
0
40
0
40
0
40
1
40
1
40
1
40
1
41
1
41
1
41
1
41
1
10
-132.02601069132496
20
-7.9587246767679565
30
0
10
-131.98897806803393
20
-7.9957686042785392
30
0
10
-131.95192283630379
20
-8.0291047477721893
30
0
10
-131.91859799702971
20
-8.0661430231729891
30
0
0
SPLINE
5
523
100
AcDbEntity
8
0
100
AcDbSpline
70
4
71
3
72
8
73
4
74
0
42
0.000000001
43
0.0000000001
44
0.0000000001
40
0
40
0
40
0
40
0
40
1
40
1
40
1
40
1
41
1
41
1
41
1
41
1
10
-131.91859799702971
20
-8.0661430231729891
30
0
10
-131.88156537373868
20
-8.1031869506835648
30
0
10
-131.82970161437996
20
-8.1587471898396515
30
0
10
-131.75561375935882
20
-8.2291272608438852
30
0
0
LINE
5
524
100
AcDbEntity
8
0
100
AcDbLine
10
-131.75561375935879
20
-8.229127260843887
30
0
11
-131.75561375935882
21
-8.7588203811645222
31
0
0
SPLINE
5
525
100
AcDbEntity
8
0
100
AcDbSpline
70
4
71
3
72
8
73
4
74
0
42
0.000000001
43
0.0000000001
44
0.0000000001
40
0
40
0
40
0
40
0
40
1
40
1
40
1
40
1
41
1
41
1
41
1
41
1
10
-131.75561375935882
20
-8.7588203811645258
30
0
10
-131.80747751871752
20
-8.7106644058227261
30
0
10
-131.84821792602546
20
-8.669918346404998
30
0
10
-131.88156537373868
20
-8.6402843348184923
30
0
0
SPLINE
5
526
100
AcDbEntity
8
0
100
AcDbSpline
70
4
71
3
72
8
73
4
74
0
42
0.000000001
43
0.0000000001
44
0.0000000001
40
0
40
0
40
0
40
0
40
1
40
1
40
1
40
1
41
1
41
1
41
1
41
1
10
-131.88156537373868
20
-8.6402843348184923
30
0
10
-131.911205037435
20
-8.6069481913248431
30
0
10
-131.94452987670905
20
-8.5736120478311868
30
0
10
-131.98158510843919
20
-8.5328659884134677
30
0
0
SPLINE
5
527
100
AcDbEntity
8
0
100
AcDbSpline
70
4
71
3
72
8
73
4
74
0
42
0.000000001
43
0.0000000001
44
0.0000000001
40
0
40
0
40
0
40
0
40
1
40
1
40
1
40
1
41
1
41
1
41
1
41
1
10
-131.98158510843919
20
-8.5328659884134677
30
0
10
-132.01493255615242
20
-8.4995298449198113
30
0
10
-132.0482573954265
20
-8.4661937014261603
30
0
10
-132.07789705912279
20
-8.4402618217467982
30
0
0
SPLINE
5
528
100
AcDbEntity
8
0
100
AcDbSpline
70
4
71
3
72
8
73
4
74
0
42
0.000000001
43
0.0000000001
44
0.0000000001
40
0
40
0
40
0
40
0
40
1
40
1
40
1
40
1
41
1
41
1
41
1
41
1
10
-132.07789705912279
20
-8.4402618217467982
30
0
10
-132.10753672281911
20
-8.414329942067436
30
0
10
-132.14086156209319
20
-8.3772916666666415
30
0
10
-132.18530975341807
20
-8.3328434753417664
30
0
0
LINE
5
529
100
AcDbEntity
8
0
100
AcDbLine
10
-132.1853097534181
20
-8.3328434753417646
30
0
11
-133.16321517944343
21
-7.3253096898396493
31
0
0
LINE
5
530
100
AcDbEntity
8
0
100
AcDbLine
10
-133.16321517944343
20
-7.3253096898396493
30
0
11
-132.91875012715667
21
-7.3327196057637245
31
0
0
LINE
5
531
100
AcDbEntity
8
0
100
AcDbLine
10
-132.91875012715667
20
-7.3327196057637245
30
0
11
-134.18186101277678
21
-8.5106418927510319
31
0
0
SPLINE
5
532
100
AcDbEntity
8
0
100
AcDbSpline
70
4
71
3
72
8
73
4
74
0
42
0.000000001
43
0.0000000001
44
0.0000000001
40
0
40
0
40
0
40
0
40
1
40
1
40
1
40
1
41
1
41
1
41
1
41
1
10
-134.18186101277678
20
-8.5106418927510301
30
0
10
-134.24111773173021
20
-8.5699099159240433
30
0
10
-134.29298149108894
20
-8.6143581072489113
30
0
10
-134.3337218983969
20
-8.651402034759494
30
0
0
SPLINE
5
533
100
AcDbEntity
8
0
100
AcDbSpline
70
4
71
3
72
8
73
4
74
0
42
0.000000001
43
0.0000000001
44
0.0000000001
40
0
40
0
40
0
40
0
40
1
40
1
40
1
40
1
41
1
41
1
41
1
41
1
10
-134.3337218983969
20
-8.651402034759494
30
0
10
-134.37446230570484
20
-8.6884459622700749
30
0
10
-134.42261828104665
20
-8.7328941535949447
30
0
10
-134.4818976084392
20
-8.7884543927510332
30
0
0
LINE
5
534
100
AcDbEntity
8
0
100
AcDbLine
10
-134.4818976084392
20
-8.7884543927510332
30
0
11
-134.53005358378101
21
-8.832902584075903
31
0
0
LINE
5
535
100
AcDbEntity
8
0
100
AcDbLine
10
-134.53005358378101
20
-8.832902584075903
30
0
11
-134.53005358378101
21
-8.273575452168755
31
0
0
LINE
5
536
100
AcDbEntity
8
0
100
AcDbLine
10
-134.53005358378101
20
-8.273575452168755
30
0
11
-133.05951026916512
21
-6.9178490956624046
31
0
0
LINE
5
537
100
AcDbEntity
8
0
100
AcDbLine
10
-133.05951026916512
20
-6.9178490956624046
30
0
11
-133.05207209269213
21
-6.9215568796793363
31
0
0
LWPOLYLINE
5
538
100
AcDbEntity
8
0
100
AcDbPolyline
90
8
70
1
43
0.0
10
-134.52261540730805
20
-9.2736993217467969
10
-131.75190597534191
20
-9.2736993217467969
10
-131.75190597534191
20
-10.985022513071669
10
-132.12973821004243
20
-10.985022513071673
10
-132.12973821004238
20
-9.6885641797383393
10
-134.14851356506352
20
-9.6885641797383393
10
-134.14851356506352
20
-10.985022513071673
10
-134.52263801574713
20
-10.985022513071673
0
LWPOLYLINE
5
539
100
AcDbEntity
8
0
100
AcDbPolyline
90
4
70
1
43
0.0
10
-132.88908785502124
20
-9.6589358202616147
10
-132.88908785502124
20
-10.766483688354471
10
-133.26692008972176
20
-10.766483688354466
10
-133.26692008972174
20
-9.6589358202616111
0
LWPOLYLINE
5
540
100
AcDbEntity
8
0
100
AcDbPolyline
90
4
70
1
43
0.0
10
-131.75190597534191
20
-12.181472415924052
10
-131.75190597534191
20
-14.411382331848127
10
-132.14083895365408
20
-14.411382331848122
10
-132.14083895365403
20
-12.181472415924048
0
LWPOLYLINE
5
541
100
AcDbEntity
8
0
100
AcDbPolyline
90
4
70
1
43
0.0
10
-134.52261540730805
20
-13.092694250742573
10
-131.785230814616
20
-13.092694250742573
10
-131.785230814616
20
-13.503856976826965
10
-134.52261540730805
20
-13.503856976826969
0
LWPOLYLINE
5
542
100
AcDbEntity
8
0
100
AcDbPolyline
90
4
70
1
43
0.0
10
-134.52261540730805
20
-14.892919476826963
10
-131.75190597534191
20
-14.892919476826963
10
-131.75190597534191
20
-15.307784334818502
10
-134.52261540730805
20
-15.307784334818502
0
LWPOLYLINE
5
543
100
AcDbEntity
8
0
100
AcDbPolyline
90
4
70
1
43
0.0
10
-132.87796450297046
20
-15.248521963755266
10
-132.87796450297046
20
-16.763524773915584
10
-133.26689748128263
20
-16.763524773915584
10
-133.26689748128263
20
-15.248521963755266
0
LWPOLYLINE
5
544
100
AcDbEntity
8
0
100
AcDbPolyline
90
4
70
1
43
0.0
10
-134.52261540730805
20
-16.704256750742573
10
-131.75190597534191
20
-16.704256750742573
10
-131.75190597534191
20
-17.119121608734108
10
-134.52261540730805
20
-17.119121608734108
0
LWPOLYLINE
5
545
100
AcDbEntity
8
0
100
AcDbPolyline
90
8
70
1
43
0.0
10
-134.52261540730805
20
-17.904408785502092
10
-131.75190597534191
20
-17.904408785502092
10
-131.75190597534191
20
-19.615731976826964
10
-132.12973821004243
20
-19.615731976826968
10
-132.12973821004238
20
-18.319273643493634
10
-134.14851356506352
20
-18.319273643493634
10
-134.14851356506352
20
-19.615731976826968
10
-134.52263801574713
20
-19.615731976826968
0
LWPOLYLINE
5
546
100
AcDbEntity
8
0
100
AcDbPolyline
90
4
70
1
43
0.0
10
-132.88908785502124
20
-18.285937499999978
10
-132.88908785502124
20
-19.393485368092836
10
-133.26692008972176
20
-19.393485368092843
10
-133.26692008972174
20
-18.285937499999989
0
SPLINE
5
547
100
AcDbEntity
8
0
100
AcDbSpline
70
4
71
3
72
8
73
4
74
0
42
0.000000001
43
0.0000000001
44
0.0000000001
40
0
40
0
40
0
40
0
40
1
40
1
40
1
40
1
41
1
41
1
41
1
41
1
10
-132.12603042602547
20
-20.960346285502101
30
0
10
-132.04823478698739
20
-20.938122189839664
30
0
10
-131.98527028401702
20
-20.919600226084381
30
0
10
-131.94082209269214
20
-20.908488178253162
30
0
0
SPLINE
5
548
100
AcDbEntity
8
0
100
AcDbSpline
70
4
71
3
72
8
73
4
74
0
42
0.000000001
43
0.0000000001
44
0.0000000001
40
0
40
0
40
0
40
0
40
1
40
1
40
1
40
1
41
1
41
1
41
1
41
1
10
-131.94082209269214
20
-20.908488178253162
30
0
10
-131.89637390136727
20
-20.893673998514796
30
0
10
-131.8334093983969
20
-20.875152034759505
30
0
10
-131.75561375935882
20
-20.852927939097068
30
0
0
LINE
5
549
100
AcDbEntity
8
0
100
AcDbLine
10
-131.75561375935882
20
-20.852927939097068
30
0
11
-131.75561375935882
21
-21.293724676767965
31
0
0
LINE
5
550
100
AcDbEntity
8
0
100
AcDbLine
10
-131.75561375935882
20
-21.293724676767965
30
0
11
-131.7630293273927
21
-21.293724676767965
31
0
0
SPLINE
5
551
100
AcDbEntity
8
0
100
AcDbSpline
70
4
71
3
72
8
73
4
74
0
42
0.000000001
43
0.0000000001
44
0.0000000001
40
0
40
0
40
0
40
0
40
1
40
1
40
1
40
1
41
1
41
1
41
1
41
1
10
-131.76302932739264
20
-21.293724676767965
30
0
10
-131.82228604634611
20
-21.315948772430403
30
0
10
-131.87044202168789
20
-21.330768604278553
30
0
10
-131.90008168538418
20
-21.33817286809284
30
0
0
SPLINE
5
552
100
AcDbEntity
8
0
100
AcDbSpline
70
4
71
3
72
8
73
4
74
0
42
0.000000001
43
0.0000000001
44
0.0000000001
40
0
40
0
40
0
40
0
40
1
40
1
40
1
40
1
41
1
41
1
41
1
41
1
10
-131.90008168538418
20
-21.33817286809284
30
0
10
-131.92972134908049
20
-21.345582784016916
30
0
10
-131.95933840433764
20
-21.352987047831199
30
0
10
-131.98897806803393
20
-21.360396963755278
30
0
0
SPLINE
5
553
100
AcDbEntity
8
0
100
AcDbSpline
70
4
71
3
72
8
73
4
74
0
42
0.000000001
43
0.0000000001
44
0.0000000001
40
0
40
0
40
0
40
0
40
1
40
1
40
1
40
1
41
1
41
1
41
1
41
1
10
-131.98897806803393
20
-21.360396963755278
30
0
10
-132.01861773173025
20
-21.367806879679343
30
0
10
-132.066773707072
20
-21.378918927510561
30
0
10
-132.12973821004238
20
-21.397440891265852
30
0
0
LINE
5
554
100
AcDbEntity
8
0
100
AcDbLine
10
-132.12973821004238
20
-21.397440891265852
30
0
11
-134.11516611735033
21
-21.960475807189926
31
0
0
LINE
5
555
100
AcDbEntity
8
0
100
AcDbLine
10
-134.11516611735033
20
-21.960475807189926
30
0
11
-134.11516611735036
21
-21.864169508616108
31
0
0
LINE
5
556
100
AcDbEntity
8
0
100
AcDbLine
10
-134.11516611735036
20
-21.864169508616108
30
0
11
-131.75190597534191
21
-22.597592926025367
31
0
0
LINE
5
557
100
AcDbEntity
8
0
100
AcDbLine
10
-131.75190597534191
20
-22.597592926025367
30
0
11
-131.75190597534191
21
-23.01245778401691
31
0
0
LINE
5
558
100
AcDbEntity
8
0
100
AcDbLine
10
-131.75190597534191
20
-23.01245778401691
30
0
11
-134.11516611735036
21
-23.749588985443104
31
0
0
LINE
5
559
100
AcDbEntity
8
0
100
AcDbLine
10
-134.11516611735036
20
-23.749588985443104
30
0
11
-134.11516611735036
21
-23.660686950683584
31
0
0
LINE
5
560
100
AcDbEntity
8
0
100
AcDbLine
10
-134.11516611735036
20
-23.660686950683584
30
0
11
-132.11490707397471
21
-24.220014082590726
31
0
0
SPLINE
5
561
100
AcDbEntity
8
0
100
AcDbSpline
70
4
71
3
72
8
73
4
74
0
42
0.000000001
43
0.0000000001
44
0.0000000001
40
0
40
0
40
0
40
0
40
1
40
1
40
1
40
1
41
1
41
1
41
1
41
1
10
-132.11490707397471
20
-24.220014082590726
30
0
10
-132.05565035502127
20
-24.23853604634601
30
0
10
-132.01117955525723
20
-24.253350226084368
30
0
10
-131.98156250000008
20
-24.260760142008447
30
0
0
SPLINE
5
562
100
AcDbEntity
8
0
100
AcDbSpline
70
4
71
3
72
8
73
4
74
0
42
0.000000001
43
0.0000000001
44
0.0000000001
40
0
40
0
40
0
40
0
40
1
40
1
40
1
40
1
41
1
41
1
41
1
41
1
10
-131.98156250000008
20
-24.260760142008447
30
0
10
-131.95192283630379
20
-24.268170057932519
30
0
10
-131.92230578104665
20
-24.275574321746806
30
0
10
-131.89266611735033
20
-24.282984237670885
30
0
0
SPLINE
5
563
100
AcDbEntity
8
0
100
AcDbSpline
70
4
71
3
72
8
73
4
74
0
42
0.000000001
43
0.0000000001
44
0.0000000001
40
0
40
0
40
0
40
0
40
1
40
1
40
1
40
1
41
1
41
1
41
1
41
1
10
-131.89266611735033
20
-24.282984237670885
30
0
10
-131.86302645365404
20
-24.290394153594956
30
0
10
-131.8185782623292
20
-24.301506201426175
30
0
10
-131.75932154337571
20
-24.320028165181458
30
0
0
LINE
5
564
100
AcDbEntity
8
0
100
AcDbLine
10
-131.75932154337571
20
-24.320028165181458
30
0
11
-131.75561375935877
21
-24.753414986928284
31
0
0
SPLINE
5
565
100
AcDbEntity
8
0
100
AcDbSpline
70
4
71
3
72
8
73
4
74
0
42
0.000000001
43
0.0000000001
44
0.0000000001
40
0
40
0
40
0
40
0
40
1
40
1
40
1
40
1
41
1
41
1
41
1
41
1
10
-131.75561375935882
20
-24.753414986928291
30
0
10
-131.84821792602546
20
-24.723780975341782
30
0
10
-131.91859799702971
20
-24.701556879679345
30
0
10
-131.96304618835458
20
-24.690444831848126
30
0
0
SPLINE
5
566
100
AcDbEntity
8
0
100
AcDbSpline
70
4
71
3
72
8
73
4
74
0
42
0.000000001
43
0.0000000001
44
0.0000000001
40
0
40
0
40
0
40
0
40
1
40
1
40
1
40
1
41
1
41
1
41
1
41
1
10
-131.96304618835458
20
-24.690444831848126
30
0
10
-132.0112021636964
20
-24.67563065210976
30
0
10
-132.07787445068368
20
-24.65710868835448
30
0
10
-132.1667708333334
20
-24.631176808675107
30
0
0
LINE
5
567
100
AcDbEntity
8
0
100
AcDbLine
10
-132.1667708333334
20
-24.631176808675107
30
0
11
-134.52632319132493
21
-23.919977486928286
31
0
0
LINE
5
568
100
AcDbEntity
8
0
100
AcDbLine
10
-134.52632319132493
20
-23.919977486928286
30
0
11
-134.52632319132499
21
-23.508814760843897
31
0
0
LINE
5
569
100
AcDbEntity
8
0
100
AcDbLine
10
-134.52632319132499
20
-23.508814760843897
30
0
11
-132.17787157694511
21
-22.756869379679344
31
0
0
LINE
5
570
100
AcDbEntity
8
0
100
AcDbLine
10
-132.17787157694511
20
-22.756869379679344
30
0
11
-132.17787157694511
21
-22.86058559417723
31
0
0
LINE
5
571
100
AcDbEntity
8
0
100
AcDbLine
10
-132.17787157694511
20
-22.86058559417723
30
0
11
-134.52632319132499
21
-22.104938081105537
31
0
0
LINE
5
572
100
AcDbEntity
8
0
100
AcDbLine
10
-134.52632319132499
20
-22.104938081105537
30
0
11
-134.52632319132499
21
-21.693775355021138
31
0
0
LINE
5
573
100
AcDbEntity
8
0
100
AcDbLine
10
-134.52632319132499
20
-21.693775355021138
30
0
11
-132.14825452168793
21
-20.978873901367173
31
0
0
SPLINE
5
574
100
AcDbEntity
8
0
100
AcDbSpline
70
0
71
2
72
6
73
3
74
0
42
0.000000001
43
0.0000000001
44
0.0000000001
40
0
40
0
40
0
40
1
40
1
40
1
10
-132.14825452168787
20
-20.978873901367166
30
0
10
-132.13344599405931
20
-20.975171769460026
30
0
10
-132.12973821004238
20
-20.971463985443094
30
0
0
LINE
5
575
100
AcDbEntity
8
0
100
AcDbLine
10
-132.12973821004238
20
-20.971463985443094
30
0
11
-132.12603042602547
21
-20.960346285502101
31
0
0
SPLINE
5
576
100
AcDbEntity
8
0
100
AcDbSpline
70
4
71
3
72
8
73
4
74
0
42
0.000000001
43
0.0000000001
44
0.0000000001
40
0
40
0
40
0
40
0
40
1
40
1
40
1
40
1
41
1
41
1
41
1
41
1
10
-134.31518297831224
20
-24.790453262329081
30
0
10
-134.27073478698736
20
-24.808975226084375
30
0
10
-134.20035471598317
20
-24.834901453653956
30
0
10
-134.11145833333342
20
-24.871945381164529
30
0
0
LINE
5
577
100
AcDbEntity
8
0
100
AcDbLine
10
-134.11145833333342
20
-24.871945381164529
30
0
11
-131.75190597534191
21
-25.809099095662411
31
0
0
LINE
5
578
100
AcDbEntity
8
0
100
AcDbLine
10
-131.75190597534191
20
-25.809099095662411
30
0
11
-131.75190597534191
21
-26.227671737670882
31
0
0
LINE
5
579
100
AcDbEntity
8
0
100
AcDbLine
10
-131.75190597534191
20
-26.227671737670882
30
0
11
-134.1225816853842
21
-27.168527584075903
31
0
0
SPLINE
5
580
100
AcDbEntity
8
0
100
AcDbSpline
70
4
71
3
72
8
73
4
74
0
42
0.000000001
43
0.0000000001
44
0.0000000001
40
0
40
0
40
0
40
0
40
1
40
1
40
1
40
1
41
1
41
1
41
1
41
1
10
-134.1225816853842
20
-27.16852758407591
30
0
10
-134.21147806803393
20
-27.205571511586484
30
0
10
-134.27815035502124
20
-27.231497739156069
30
0
10
-134.32259854634611
20
-27.250019702911359
30
0
0
SPLINE
5
581
100
AcDbEntity
8
0
100
AcDbSpline
70
4
71
3
72
8
73
4
74
0
42
0.000000001
43
0.0000000001
44
0.0000000001
40
0
40
0
40
0
40
0
40
1
40
1
40
1
40
1
41
1
41
1
41
1
41
1
10
-134.32259854634611
20
-27.250019702911359
30
0
10
-134.36704673767099
20
-27.268541666666657
30
0
10
-134.4337190246583
20
-27.294467894236234
30
0
10
-134.51893023173022
20
-27.327809689839668
30
0
0
LINE
5
582
100
AcDbEntity
8
0
100
AcDbLine
10
-134.51893023173022
20
-27.327809689839668
30
0
11
-134.51893023173022
21
-26.875900904337552
31
0
0
SPLINE
5
583
100
AcDbEntity
8
0
100
AcDbSpline
70
4
71
3
72
8
73
4
74
0
42
0.000000001
43
0.0000000001
44
0.0000000001
40
0
40
0
40
0
40
0
40
1
40
1
40
1
40
1
41
1
41
1
41
1
41
1
10
-134.51893023173022
20
-26.875900904337552
30
0
10
-134.45596572875982
20
-26.853676808675115
30
0
10
-134.40780975341806
20
-26.835154844919821
30
0
10
-134.37817008972178
20
-26.824042797088602
30
0
0
SPLINE
5
584
100
AcDbEntity
8
0
100
AcDbSpline
70
4
71
3
72
8
73
4
74
0
42
0.000000001
43
0.0000000001
44
0.0000000001
40
0
40
0
40
0
40
0
40
1
40
1
40
1
40
1
41
1
41
1
41
1
41
1
10
-134.37817008972178
20
-26.824042797088602
30
0
10
-134.34853042602549
20
-26.812930749257397
30
0
10
-134.31891337076831
20
-26.801818701426178
30
0
10
-134.28556592305509
20
-26.79070665359496
30
0
0
SPLINE
5
585
100
AcDbEntity
8
0
100
AcDbSpline
70
4
71
3
72
8
73
4
74
0
42
0.000000001
43
0.0000000001
44
0.0000000001
40
0
40
0
40
0
40
0
40
1
40
1
40
1
40
1
41
1
41
1
41
1
41
1
10
-134.28556592305509
20
-26.79070665359496
30
0
10
-134.2559262593588
20
-26.779594605763741
30
0
10
-134.20777028401704
20
-26.761072642008447
30
0
10
-134.14851356506352
20
-26.738848546346009
30
0
0
LINE
5
586
100
AcDbEntity
8
0
100
AcDbLine
10
-134.14851356506352
20
-26.738848546346009
30
0
11
-132.03713404337572
21
-25.957269153594954
31
0
0
LINE
5
587
100
AcDbEntity
8
0
100
AcDbLine
10
-132.03713404337572
20
-25.957269153594954
30
0
11
-132.03713404337574
21
-26.075805199940984
31
0
0
LINE
5
588
100
AcDbEntity
8
0
100
AcDbLine
10
-132.03713404337574
20
-26.075805199940984
30
0
11
-134.15590652465829
21
-25.286815891265853
31
0
0
SPLINE
5
589
100
AcDbEntity
8
0
100
AcDbSpline
70
4
71
3
72
8
73
4
74
0
42
0.000000001
43
0.0000000001
44
0.0000000001
40
0
40
0
40
0
40
0
40
1
40
1
40
1
40
1
41
1
41
1
41
1
41
1
10
-134.15590652465829
20
-25.28681589126586
30
0
10
-134.21516324361176
20
-25.264591795603422
30
0
10
-134.25963404337574
20
-25.249771963755272
30
0
10
-134.28925109863289
20
-25.238659915924053
30
0
0
SPLINE
5
590
100
AcDbEntity
8
0
100
AcDbSpline
70
4
71
3
72
8
73
4
74
0
42
0.000000001
43
0.0000000001
44
0.0000000001
40
0
40
0
40
0
40
0
40
1
40
1
40
1
40
1
41
1
41
1
41
1
41
1
10
-134.28925109863289
20
-25.238659915924053
30
0
10
-134.31889076232918
20
-25.227547868092834
30
0
10
-134.34850781758638
20
-25.21643582026163
30
0
10
-134.37814748128264
20
-25.205323772430411
30
0
0
SPLINE
5
591
100
AcDbEntity
8
0
100
AcDbSpline
70
4
71
3
72
8
73
4
74
0
42
0.000000001
43
0.0000000001
44
0.0000000001
40
0
40
0
40
0
40
0
40
1
40
1
40
1
40
1
41
1
41
1
41
1
41
1
10
-134.37814748128264
20
-25.205323772430411
30
0
10
-134.40778714497893
20
-25.194211724599192
30
0
10
-134.45594312032074
20
-25.175689760843895
30
0
10
-134.5151998392742
20
-25.157167797088601
30
0
0
LINE
5
592
100
AcDbEntity
8
0
100
AcDbLine
10
-134.5151998392742
20
-25.157167797088601
30
0
11
-134.5151998392742
21
-24.708961143493632
31
0
0
SPLINE
5
593
100
AcDbEntity
8
0
100
AcDbSpline
70
4
71
3
72
8
73
4
74
0
42
0.000000001
43
0.0000000001
44
0.0000000001
40
0
40
0
40
0
40
0
40
1
40
1
40
1
40
1
41
1
41
1
41
1
41
1
10
-134.5151998392742
20
-24.708961143493639
30
0
10
-134.42259567260751
20
-24.74600507100422
30
0
10
-134.35221560160326
20
-24.771931298573797
30
0
10
-134.30776741027844
20
-24.790453262329081
30
0
0
LINE
5
594
100
AcDbEntity
8
0
100
AcDbLine
10
-134.30776741027844
20
-24.790453262329081
30
0
11
-134.31518297831224
21
-24.790453262329081
31
0
0
LWPOLYLINE
5
595
100
AcDbEntity
8
0
100
AcDbPolyline
90
5
70
1
43
0.0
10
-133.41136540730801
20
-25.364600226084377
10
-133.41136540730801
20
-26.668468475341783
10
-133.78178207397468
20
-26.72773649851479
10
-133.78178207397468
20
-25.301630071004219
10
-133.41136540730801
20
-25.360898094177237
0
LINE
5
596
100
AcDbEntity
8
0
100
AcDbLine
10
-134.52261540730805
20
-28.083457202911362
30
0
11
-133.30395271301282
21
-28.083457202911362
31
0
0
LINE
5
597
100
AcDbEntity
8
0
100
AcDbLine
10
-133.30395271301282
20
-28.083457202911362
30
0
11
-132.17418640136731
21
-27.37596001307168
31
0
0
SPLINE
5
598
100
AcDbEntity
8
0
100
AcDbSpline
70
4
71
3
72
8
73
4
74
0
42
0.000000001
43
0.0000000001
44
0.0000000001
40
0
40
0
40
0
40
0
40
1
40
1
40
1
40
1
41
1
41
1
41
1
41
1
10
-132.17418640136725
20
-27.375960013071676
30
0
10
-132.07787445068368
20
-27.316691989898661
30
0
10
-132.00749437967946
20
-27.272243798573797
30
0
10
-131.96304618835458
20
-27.242609786987288
30
0
0
SPLINE
5
599
100
AcDbEntity
8
0
100
AcDbSpline
70
4
71
3
72
8
73
4
74
0
42
0.000000001
43
0.0000000001
44
0.0000000001
40
0
40
0
40
0
40
0
40
1
40
1
40
1
40
1
41
1
41
1
41
1
41
1
10
-131.96304618835458
20
-27.242609786987288
30
0
10
-131.91859799702971
20
-27.212975775400785
30
0
10
-131.84821792602546
20
-27.16852758407591
30
0
10
-131.75561375935882
20
-27.112961692810043
30
0
0
LINE
5
600
100
AcDbEntity
8
0
100
AcDbLine
10
-131.75561375935885
20
-27.112961692810043
30
0
11
-131.75561375935882
21
-27.590796705881736
31
0
0
SPLINE
5
601
100
AcDbEntity
8
0
100
AcDbSpline
70
4
71
3
72
8
73
4
74
0
42
0.000000001
43
0.0000000001
44
0.0000000001
40
0
40
0
40
0
40
0
40
1
40
1
40
1
40
1
41
1
41
1
41
1
41
1
10
-131.75561375935882
20
-27.590796705881736
30
0
10
-131.82599383036302
20
-27.631542765299457
30
0
10
-131.87414980570483
20
-27.664878908793114
30
0
10
-131.90747464497892
20
-27.687103004455551
30
0
0
SPLINE
5
602
100
AcDbEntity
8
0
100
AcDbSpline
70
4
71
3
72
8
73
4
74
0
42
0.000000001
43
0.0000000001
44
0.0000000001
40
0
40
0
40
0
40
0
40
1
40
1
40
1
40
1
41
1
41
1
41
1
41
1
10
-131.90747464497892
20
-27.687103004455551
30
0
10
-131.94082209269214
20
-27.709327100117989
30
0
10
-131.98895545959482
20
-27.738961111704491
30
0
10
-132.05565035502127
20
-27.779707171122222
30
0
0
SPLINE
5
603
100
AcDbEntity
8
0
100
AcDbSpline
70
4
71
3
72
8
73
4
74
0
42
0.000000001
43
0.0000000001
44
0.0000000001
40
0
40
0
40
0
40
0
40
1
40
1
40
1
40
1
41
1
41
1
41
1
41
1
10
-132.05565035502127
20
-27.779707171122222
30
0
10
-132.07787445068368
20
-27.794521350860585
30
0
10
-132.09639076232921
20
-27.805639050801577
30
0
10
-132.11122189839688
20
-27.813043314615868
30
0
0
SPLINE
5
604
100
AcDbEntity
8
0
100
AcDbSpline
70
4
71
3
72
8
73
4
74
0
42
0.000000001
43
0.0000000001
44
0.0000000001
40
0
40
0
40
0
40
0
40
1
40
1
40
1
40
1
41
1
41
1
41
1
41
1
10
-132.11122189839688
20
-27.813043314615868
30
0
10
-132.1260530344646
20
-27.820447578430162
30
0
10
-132.1445693461101
20
-27.831565278371158
30
0
10
-132.16679344177254
20
-27.846379458109524
30
0
0
LINE
5
605
100
AcDbEntity
8
0
100
AcDbLine
10
-132.16679344177254
20
-27.846379458109524
30
0
11
-133.05580248514821
21
-28.394594542185452
31
0
0
LINE
5
606
100
AcDbEntity
8
0
100
AcDbLine
10
-133.05580248514821
20
-28.394594542185452
30
0
11
-133.05580248514821
21
-28.201976292928045
31
0
0
LINE
5
607
100
AcDbEntity
8
0
100
AcDbLine
10
-133.05580248514821
20
-28.201976292928045
30
0
11
-132.14827713012704
21
-28.768713340759263
31
0
0
SPLINE
5
608
100
AcDbEntity
8
0
100
AcDbSpline
70
4
71
3
72
8
73
4
74
0
42
0.000000001
43
0.0000000001
44
0.0000000001
40
0
40
0
40
0
40
0
40
1
40
1
40
1
40
1
41
1
41
1
41
1
41
1
10
-132.14827713012704
20
-28.768713340759259
30
0
10
-132.1260530344646
20
-28.783527520497621
30
0
10
-132.10753672281911
20
-28.790937436421697
30
0
10
-132.09641337076832
20
-28.802049484252915
30
0
0
SPLINE
5
609
100
AcDbEntity
8
0
100
AcDbSpline
70
4
71
3
72
8
73
4
74
0
42
0.000000001
43
0.0000000001
44
0.0000000001
40
0
40
0
40
0
40
0
40
1
40
1
40
1
40
1
41
1
41
1
41
1
41
1
10
-132.09641337076832
20
-28.802049484252915
30
0
10
-132.0852900187175
20
-28.809459400176994
30
0
10
-132.066773707072
20
-28.820571448008213
30
0
10
-132.04454961140956
20
-28.835385627746572
30
0
0
SPLINE
5
610
100
AcDbEntity
8
0
100
AcDbSpline
70
4
71
3
72
8
73
4
74
0
42
0.000000001
43
0.0000000001
44
0.0000000001
40
0
40
0
40
0
40
0
40
1
40
1
40
1
40
1
41
1
41
1
41
1
41
1
10
-132.04454961140956
20
-28.835385627746572
30
0
10
-131.97787732442231
20
-28.876131687164293
30
0
10
-131.92972134908049
20
-28.909467830657949
30
0
10
-131.89637390136727
20
-28.927989794413232
30
0
0
SPLINE
5
611
100
AcDbEntity
8
0
100
AcDbSpline
70
4
71
3
72
8
73
4
74
0
42
0.000000001
43
0.0000000001
44
0.0000000001
40
0
40
0
40
0
40
0
40
1
40
1
40
1
40
1
41
1
41
1
41
1
41
1
10
-131.89637390136727
20
-28.927989794413232
30
0
10
-131.86302645365404
20
-28.946511758168523
30
0
10
-131.81489308675137
20
-28.976145769755036
30
0
10
-131.75190597534191
20
-29.016891829172756
30
0
0
LINE
5
612
100
AcDbEntity
8
0
100
AcDbLine
10
-131.75190597534188
20
-29.016891829172756
30
0
11
-131.75190597534191
21
-29.483614794413235
31
0
0
SPLINE
5
613
100
AcDbEntity
8
0
100
AcDbSpline
70
4
71
3
72
8
73
4
74
0
42
0.000000001
43
0.0000000001
44
0.0000000001
40
0
40
0
40
0
40
0
40
1
40
1
40
1
40
1
41
1
41
1
41
1
41
1
10
-131.75190597534191
20
-29.483614794413235
30
0
10
-131.84451014200852
20
-29.424346771240224
30
0
10
-131.91118242899586
20
-29.383600711822503
30
0
10
-131.95933840433764
20
-29.353966700235986
30
0
0
SPLINE
5
614
100
AcDbEntity
8
0
100
AcDbSpline
70
4
71
3
72
8
73
4
74
0
42
0.000000001
43
0.0000000001
44
0.0000000001
40
0
40
0
40
0
40
0
40
1
40
1
40
1
40
1
41
1
41
1
41
1
41
1
10
-131.95933840433764
20
-29.353966700235986
30
0
10
-132.00378659566252
20
-29.324332688649477
30
0
10
-132.07045888264983
20
-29.283586629231756
30
0
10
-132.15935526529958
20
-29.228026390075662
30
0
0
LINE
5
615
100
AcDbEntity
8
0
100
AcDbLine
10
-132.15935526529958
20
-29.228026390075662
30
0
11
-133.30395271301282
21
-28.51312493642169
31
0
0
LINE
5
616
100
AcDbEntity
8
0
100
AcDbLine
10
-133.30395271301282
20
-28.51312493642169
30
0
11
-134.21887102762869
21
-28.513124936421704
31
0
0
LINE
5
617
100
AcDbEntity
8
0
100
AcDbLine
10
-134.21887102762869
20
-28.513124936421704
30
0
11
-134.52261540730805
21
-28.513124936421704
31
0
0
LINE
5
618
100
AcDbEntity
8
0
100
AcDbLine
10
-134.52261540730805
20
-28.513124936421704
30
0
11
-134.52261540730805
21
-28.094552294413234
31
0
0
LINE
5
619
100
AcDbEntity
8
0
100
AcDbLine
10
-134.52261540730805
20
-28.094552294413234
30
0
11
-134.52261540730805
21
-28.083457202911362
31
0
0
SPLINE
5
620
100
AcDbEntity
8
0
100
AcDbSpline
70
4
71
3
72
8
73
4
74
0
42
0.000000001
43
0.0000000001
44
0.0000000001
40
0
40
0
40
0
40
0
40
1
40
1
40
1
40
1
41
1
41
1
41
1
41
1
10
-134.49299835205085
20
-29.416959463755276
30
0
10
-134.43374163309738
20
-29.357691440582258
30
0
10
-134.36336156209319
20
-29.328057428995763
30
0
10
-134.27815035502124
20
-29.328057428995763
30
0
0
SPLINE
5
621
100
AcDbEntity
8
0
100
AcDbSpline
70
4
71
3
72
8
73
4
74
0
42
0.000000001
43
0.0000000001
44
0.0000000001
40
0
40
0
40
0
40
0
40
1
40
1
40
1
40
1
41
1
41
1
41
1
41
1
10
-134.27815035502124
20
-29.328057428995763
30
0
10
-134.19293914794932
20
-29.328057428995763
30
0
10
-134.1225816853842
20
-29.357691440582258
30
0
10
-134.06330235799163
20
-29.416959463755276
30
0
0
SPLINE
5
622
100
AcDbEntity
8
0
100
AcDbSpline
70
4
71
3
72
8
73
4
74
0
42
0.000000001
43
0.0000000001
44
0.0000000001
40
0
40
0
40
0
40
0
40
1
40
1
40
1
40
1
41
1
41
1
41
1
41
1
10
-134.06330235799163
20
-29.416959463755276
30
0
10
-134.00404563903817
20
-29.476227486928288
30
0
10
-133.97440597534188
20
-29.546607557932521
30
0
10
-133.97440597534188
20
-29.63180180867511
30
0
0
SPLINE
5
623
100
AcDbEntity
8
0
100
AcDbSpline
70
4
71
3
72
8
73
4
74
0
42
0.000000001
43
0.0000000001
44
0.0000000001
40
0
40
0
40
0
40
0
40
1
40
1
40
1
40
1
41
1
41
1
41
1
41
1
10
-133.97440597534188
20
-29.63180180867511
30
0
10
-133.97440597534188
20
-29.716996059417706
30
0
10
-134.00404563903817
20
-29.78737613042194
30
0
10
-134.06330235799163
20
-29.842942021687811
30
0
0
SPLINE
5
624
100
AcDbEntity
8
0
100
AcDbSpline
70
4
71
3
72
8
73
4
74
0
42
0.000000001
43
0.0000000001
44
0.0000000001
40
0
40
0
40
0
40
0
40
1
40
1
40
1
40
1
41
1
41
1
41
1
41
1
10
-134.06330235799163
20
-29.842942021687811
30
0
10
-134.12255907694507
20
-29.898502260843905
30
0
10
-134.19293914794932
20
-29.9281362724304
30
0
10
-134.28185813903815
20
-29.9281362724304
30
0
0
SPLINE
5
625
100
AcDbEntity
8
0
100
AcDbSpline
70
4
71
3
72
8
73
4
74
0
42
0.000000001
43
0.0000000001
44
0.0000000001
40
0
40
0
40
0
40
0
40
1
40
1
40
1
40
1
41
1
41
1
41
1
41
1
10
-134.28185813903815
20
-29.9281362724304
30
0
10
-134.36333895365405
20
-29.9281362724304
30
0
10
-134.4337190246583
20
-29.898502260843905
30
0
10
-134.49299835205085
20
-29.842942021687811
30
0
0
SPLINE
5
626
100
AcDbEntity
8
0
100
AcDbSpline
70
4
71
3
72
8
73
4
74
0
42
0.000000001
43
0.0000000001
44
0.0000000001
40
0
40
0
40
0
40
0
40
1
40
1
40
1
40
1
41
1
41
1
41
1
41
1
10
-134.49299835205085
20
-29.842942021687811
30
0
10
-134.55227767944345
20
-29.787381782531725
30
0
10
-134.57818695068366
20
-29.717001711527494
30
0
10
-134.57818695068366
20
-29.63180180867511
30
0
0
SPLINE
5
627
100
AcDbEntity
8
0
100
AcDbSpline
70
4
71
3
72
8
73
4
74
0
42
0.000000001
43
0.0000000001
44
0.0000000001
40
0
40
0
40
0
40
0
40
1
40
1
40
1
40
1
41
1
41
1
41
1
41
1
10
-134.57818695068366
20
-29.63180180867511
30
0
10
-134.57818695068366
20
-29.546601905822744
30
0
10
-134.5485472869874
20
-29.476227486928288
30
0
10
-134.49299835205085
20
-29.416959463755276
30
0
0
SPLINE
5
628
100
AcDbEntity
8
0
100
AcDbSpline
70
4
71
3
72
8
73
4
74
0
42
0.000000001
43
0.0000000001
44
0.0000000001
40
0
40
0
40
0
40
0
40
1
40
1
40
1
40
1
41
1
41
1
41
1
41
1
10
16.283916117350227
20
38.295833394160617
30
0
10
17.795211143493614
20
34.247179114451747
30
0
10
17.50999437967933
20
30.372621120245
30
0
10
15.183778165181462
20
26.72401751878931
30
0
0
SPLINE
5
629
100
AcDbEntity
8
0
100
AcDbSpline
70
4
71
3
72
8
73
4
74
0
42
0.000000001
43
0.0000000001
44
0.0000000001
40
0
40
0
40
0
40
0
40
1
40
1
40
1
40
1
41
1
41
1
41
1
41
1
10
15.183778165181462
20
26.72401751878931
30
0
10
14.609636853535939
20
25.823904905747114
30
0
10
13.879915568033825
20
24.997875908643739
30
0
10
13.105746091206839
20
24.260746120244999
30
0
0
SPLINE
5
630
100
AcDbEntity
8
0
100
AcDbSpline
70
4
71
3
72
8
73
4
74
0
42
0.000000001
43
0.0000000001
44
0.0000000001
40
0
40
0
40
0
40
0
40
1
40
1
40
1
40
1
41
1
41
1
41
1
41
1
10
13.105746091206839
20
24.260746120244999
30
0
10
10.127592926025365
20
21.419650965164841
30
0
10
8.3977534230549828
20
17.974774834742881
30
0
10
7.9013964462279906
20
13.892784411540369
30
0
0
SPLINE
5
631
100
AcDbEntity
8
0
100
AcDbSpline
70
4
71
3
72
8
73
4
74
0
42
0.000000001
43
0.0000000001
44
0.0000000001
40
0
40
0
40
0
40
0
40
1
40
1
40
1
40
1
41
1
41
1
41
1
41
1
10
7.9013964462279906
20
13.892784411540369
30
0
10
7.608764114379845
20
11.496188126038248
30
0
10
6.5345580418904241
20
9.5477956680762137
30
0
10
4.4343018722533891
20
8.2772692144222422
30
0
0
SPLINE
5
632
100
AcDbEntity
8
0
100
AcDbSpline
70
4
71
3
72
8
73
4
74
0
42
0.000000001
43
0.0000000001
44
0.0000000001
40
0
40
0
40
0
40
0
40
1
40
1
40
1
40
1
41
1
41
1
41
1
41
1
10
4.4343018722533891
20
8.2772692144222422
30
0
10
0.53381482442217687
20
5.9140118984686669
30
0
10
-4.7261063639323169
20
7.1549071665910216
30
0
10
-7.3449436060588047
20
11.018353112966553
30
0
0
SPLINE
5
633
100
AcDbEntity
8
0
100
AcDbSpline
70
4
71
3
72
8
73
4
74
0
42
0.000000001
43
0.0000000001
44
0.0000000001
40
0
40
0
40
0
40
0
40
1
40
1
40
1
40
1
41
1
41
1
41
1
41
1
10
-7.3449436060588047
20
11.018353112966553
30
0
10
-8.8858782958984683
20
13.292711220215496
30
0
10
-9.3081474177043066
20
15.741165612966558
30
0
10
-8.5302814610799409
20
18.378533297012986
30
0
0
SPLINE
5
634
100
AcDbEntity
8
0
100
AcDbSpline
70
4
71
3
72
8
73
4
74
0
42
0.000000001
43
0.0000000001
44
0.0000000001
40
0
40
0
40
0
40
0
40
1
40
1
40
1
40
1
41
1
41
1
41
1
41
1
10
-8.5302814610799409
20
18.378533297012986
30
0
10
-7.7375843683878953
20
21.064054130346321
30
0
10
-7.3227195103963671
20
23.790321023097381
30
0
10
-7.7561119842529784
20
26.586966573825226
30
0
0
SPLINE
5
635
100
AcDbEntity
8
0
100
AcDbSpline
70
4
71
3
72
8
73
4
74
0
42
0.000000001
43
0.0000000001
44
0.0000000001
40
0
40
0
40
0
40
0
40
1
40
1
40
1
40
1
41
1
41
1
41
1
41
1
10
-7.7561119842529784
20
26.586966573825226
30
0
10
-8.2784008407593124
20
29.979983183970798
30
0
10
-9.9415680567423834
20
32.758108183970798
30
0
10
-12.486328748067246
20
35.006537237595268
30
0
0
SPLINE
5
636
100
AcDbEntity
8
0
100
AcDbSpline
70
4
71
3
72
8
73
4
74
0
42
0.000000001
43
0.0000000001
44
0.0000000001
40
0
40
0
40
0
40
0
40
1
40
1
40
1
40
1
41
1
41
1
41
1
41
1
10
-12.486328748067246
20
35.006537237595268
30
0
10
-13.493862533569379
20
35.895537096292529
30
0
10
-14.608820317586295
20
36.66970798614696
30
0
10
-15.697846221923868
20
37.458695528537774
30
0
0
LINE
5
637
100
AcDbEntity
8
0
100
AcDbLine
10
16.287623901367159
20
38.299541884691259
30
0
11
16.283916117350227
21
38.295833394160617
31
0
0
SPLINE
5
638
100
AcDbEntity
8
0
100
AcDbSpline
70
4
71
3
72
8
73
4
74
0
42
0.000000001
43
0.0000000001
44
0.0000000001
40
0
40
0
40
0
40
0
40
1
40
1
40
1
40
1
41
1
41
1
41
1
41
1
10
31.671016311645488
20
28.757604227493939
30
0
10
29.61890481313068
20
27.953800739080442
30
0
10
27.522345123291
20
27.82045051299605
30
0
10
25.388752810160288
20
28.353850004306175
30
0
0
SPLINE
5
639
100
AcDbEntity
8
0
100
AcDbSpline
70
4
71
3
72
8
73
4
74
0
42
0.000000001
43
0.0000000001
44
0.0000000001
40
0
40
0
40
0
40
0
40
1
40
1
40
1
40
1
41
1
41
1
41
1
41
1
10
25.388752810160288
20
28.353850004306175
30
0
10
21.888310788472474
20
29.228033563723905
30
0
10
20.721500549316374
20
32.569192066620531
30
0
10
22.914372189839668
20
35.425104227493939
30
0
0
SPLINE
5
640
100
AcDbEntity
8
0
100
AcDbSpline
70
4
71
3
72
8
73
4
74
0
42
0.000000001
43
0.0000000001
44
0.0000000001
40
0
40
0
40
0
40
0
40
1
40
1
40
1
40
1
41
1
41
1
41
1
41
1
10
22.914372189839668
20
35.425104227493939
30
0
10
25.636936950683559
20
38.969991614451743
30
0
10
30.300481427510562
20
40.533150046697003
30
0
10
34.62324890136717
20
39.344112532566726
30
0
0
SPLINE
5
641
100
AcDbEntity
8
0
100
AcDbSpline
70
4
71
3
72
8
73
4
74
0
42
0.000000001
43
0.0000000001
44
0.0000000001
40
0
40
0
40
0
40
0
40
1
40
1
40
1
40
1
41
1
41
1
41
1
41
1
10
34.62324890136717
20
39.344112532566726
30
0
10
37.50138233184812
20
38.551420738727586
30
0
10
38.657091827392556
20
35.354724863003433
30
0
10
36.975396995544415
20
32.8803414166279
30
0
0
SPLINE
5
642
100
AcDbEntity
8
0
100
AcDbSpline
70
4
71
3
72
8
73
4
74
0
42
0.000000001
43
0.0000000001
44
0.0000000001
40
0
40
0
40
0
40
0
40
1
40
1
40
1
40
1
41
1
41
1
41
1
41
1
10
36.975396995544415
20
32.8803414166279
30
0
10
35.649310302734357
20
30.931949665179587
30
0
10
33.912055231730129
20
29.524366614451743
30
0
10
31.671016311645488
20
28.757604227493939
30
0
0
SPLINE
5
643
100
AcDbEntity
8
0
100
AcDbSpline
70
4
71
3
72
8
73
4
74
0
42
0.000000001
43
0.0000000001
44
0.0000000001
40
0
40
0
40
0
40
0
40
1
40
1
40
1
40
1
41
1
41
1
41
1
41
1
10
23.066244379679326
20
11.511005131831499
30
0
10
20.558527615865046
20
10.610892518789299
30
0
10
18.499011853535933
20
10.63682157241378
30
0
10
16.465416666666634
20
11.499893084000288
30
0
0
SPLINE
5
644
100
AcDbEntity
8
0
100
AcDbSpline
70
4
71
3
72
8
73
4
74
0
42
0.000000001
43
0.0000000001
44
0.0000000001
40
0
40
0
40
0
40
0
40
1
40
1
40
1
40
1
41
1
41
1
41
1
41
1
10
16.465416666666634
20
11.499893084000288
30
0
10
14.00955235799152
20
12.544467970958088
30
0
10
13.024242668151825
20
15.348522024582557
30
0
10
14.272545026143364
20
17.708077208628985
30
0
0
SPLINE
5
645
100
AcDbEntity
8
0
100
AcDbSpline
70
4
71
3
72
8
73
4
74
0
42
0.000000001
43
0.0000000001
44
0.0000000001
40
0
40
0
40
0
40
0
40
1
40
1
40
1
40
1
41
1
41
1
41
1
41
1
10
14.272545026143364
20
17.708077208628985
30
0
10
16.287612597147607
20
21.51225654485895
30
0
10
21.225261789957656
20
23.316185315877931
30
0
10
25.222060788472479
20
21.712281883985533
30
0
0
SPLINE
5
646
100
AcDbEntity
8
0
100
AcDbSpline
70
4
71
3
72
8
73
4
74
0
42
0.000000001
43
0.0000000001
44
0.0000000001
40
0
40
0
40
0
40
0
40
1
40
1
40
1
40
1
41
1
41
1
41
1
41
1
10
25.222060788472479
20
21.712281883985533
30
0
10
27.855717862447065
20
20.652889991234474
30
0
10
28.844735336303696
20
17.615473041962318
30
0
10
27.337136789957661
20
15.167018649211261
30
0
0
SPLINE
5
647
100
AcDbEntity
8
0
100
AcDbSpline
70
4
71
3
72
8
73
4
74
0
42
0.000000001
43
0.0000000001
44
0.0000000001
40
0
40
0
40
0
40
0
40
1
40
1
40
1
40
1
41
1
41
1
41
1
41
1
10
27.337136789957661
20
15.167018649211261
30
0
10
26.218482526143365
20
13.348274285426472
30
0
10
24.633099644978806
20
12.092559185455967
30
0
10
23.066244379679326
20
11.511005131831499
30
0
0
SPLINE
5
648
100
AcDbEntity
8
0
100
AcDbSpline
70
4
71
3
72
8
73
4
74
0
42
0.000000001
43
0.0000000001
44
0.0000000001
40
0
40
0
40
0
40
0
40
1
40
1
40
1
40
1
41
1
41
1
41
1
41
1
10
-43.238963953654036
20
-13.703885142008472
30
0
10
-44.135365956624426
20
-17.93034066518149
30
0
10
-46.450470123291083
20
-21.049248320261636
30
0
10
-50.369484786987371
20
-22.886517473856603
30
0
0
SPLINE
5
649
100
AcDbEntity
8
0
100
AcDbSpline
70
4
71
3
72
8
73
4
74
0
42
0.000000001
43
0.0000000001
44
0.0000000001
40
0
40
0
40
0
40
0
40
1
40
1
40
1
40
1
41
1
41
1
41
1
41
1
10
-50.369484786987371
20
-22.886517473856603
30
0
10
-51.336266860961992
20
-23.33842625935872
30
0
10
-52.395653101603259
20
-23.645872770945225
30
0
10
-53.443938598632883
20
-23.853305199940991
30
0
0
SPLINE
5
650
100
AcDbEntity
8
0
100
AcDbSpline
70
4
71
3
72
8
73
4
74
0
42
0.000000001
43
0.0000000001
44
0.0000000001
40
0
40
0
40
0
40
0
40
1
40
1
40
1
40
1
41
1
41
1
41
1
41
1
10
-53.443938598632883
20
-23.853305199940991
30
0
10
-57.481489308675208
20
-24.657108688354491
30
0
10
-60.789307428995841
20
-26.635132331848148
30
0
10
-63.397032623291103
20
-29.817015794118241
30
0
0
SPLINE
5
651
100
AcDbEntity
8
0
100
AcDbSpline
70
4
71
3
72
8
73
4
74
0
42
0.000000001
43
0.0000000001
44
0.0000000001
40
0
40
0
40
0
40
0
40
1
40
1
40
1
40
1
41
1
41
1
41
1
41
1
10
-63.397032623291103
20
-29.817015794118241
30
0
10
-64.926855265299551
20
-31.68391330718994
30
0
10
-66.878958333333415
20
-32.750715115865077
30
0
10
-69.334822642008561
20
-32.69885700861613
30
0
0
SPLINE
5
652
100
AcDbEntity
8
0
100
AcDbSpline
70
4
71
3
72
8
73
4
74
0
42
0.000000001
43
0.0000000001
44
0.0000000001
40
0
40
0
40
0
40
0
40
1
40
1
40
1
40
1
41
1
41
1
41
1
41
1
10
-69.334822642008561
20
-32.69885700861613
30
0
10
-73.894650904337666
20
-32.602550710042316
30
0
10
-77.669197642008527
20
-28.735399805704755
30
0
10
-77.809957784016973
20
-24.071855328877763
30
0
0
SPLINE
5
653
100
AcDbEntity
8
0
100
AcDbSpline
70
4
71
3
72
8
73
4
74
0
42
0.000000001
43
0.0000000001
44
0.0000000001
40
0
40
0
40
0
40
0
40
1
40
1
40
1
40
1
41
1
41
1
41
1
41
1
10
-77.809957784016973
20
-24.071855328877763
30
0
10
-77.89143859863286
20
-21.32706647237141
30
0
10
-76.935779876709049
20
-19.034186401367187
30
0
10
-74.865140762329148
20
-17.222849127451575
30
0
0
SPLINE
5
654
100
AcDbEntity
8
0
100
AcDbSpline
70
4
71
3
72
8
73
4
74
0
42
0.000000001
43
0.0000000001
44
0.0000000001
40
0
40
0
40
0
40
0
40
1
40
1
40
1
40
1
41
1
41
1
41
1
41
1
10
-74.865140762329148
20
-17.222849127451575
30
0
10
-72.753761240641381
20
-15.37817571004231
30
0
10
-70.946126098632902
20
-13.300137983957914
30
0
10
-69.812652002970466
20
-10.7109234491984
30
0
0
SPLINE
5
655
100
AcDbEntity
8
0
100
AcDbSpline
70
4
71
3
72
8
73
4
74
0
42
0.000000001
43
0.0000000001
44
0.0000000001
40
0
40
0
40
0
40
0
40
1
40
1
40
1
40
1
41
1
41
1
41
1
41
1
10
-69.812652002970466
20
-10.7109234491984
30
0
10
-68.438398030599004
20
-7.5660839144388721
30
0
10
-68.349501647949282
20
-4.328645865122466
30
0
10
-69.290374450683657
20
-1.0689780680338401
30
0
0
SPLINE
5
656
100
AcDbEntity
8
0
100
AcDbSpline
70
4
71
3
72
8
73
4
74
0
42
0.000000001
43
0.0000000001
44
0.0000000001
40
0
40
0
40
0
40
0
40
1
40
1
40
1
40
1
41
1
41
1
41
1
41
1
10
-69.290374450683657
20
-1.0689780680338401
30
0
10
-69.664498901367239
20
0.22377530733745765
30
0
10
-70.190484237670958
20
1.4720804913838803
30
0
10
-70.686852518717501
20
2.724087807337459
30
0
0
SPLINE
5
657
100
AcDbEntity
8
0
100
AcDbSpline
70
4
71
3
72
8
73
4
74
0
42
0.000000001
43
0.0000000001
44
0.0000000001
40
0
40
0
40
0
40
0
40
1
40
1
40
1
40
1
41
1
41
1
41
1
41
1
10
-70.686852518717501
20
2.724087807337459
30
0
10
-72.068499450683674
20
6.2060050392150998
30
0
10
-71.142457784016983
20
10.162055152257299
30
0
10
-68.331007944742893
20
12.669774742126483
30
0
0
SPLINE
5
658
100
AcDbEntity
8
0
100
AcDbSpline
70
4
71
3
72
8
73
4
74
0
42
0.000000001
43
0.0000000001
44
0.0000000001
40
0
40
0
40
0
40
0
40
1
40
1
40
1
40
1
41
1
41
1
41
1
41
1
10
-68.331007944742893
20
12.669774742126483
30
0
10
-65.623263015747128
20
15.084890165328996
30
0
10
-61.563488210042372
20
15.61088397979738
30
0
10
-58.440878423055061
20
13.936599063873301
30
0
0
SPLINE
5
659
100
AcDbEntity
8
0
100
AcDbSpline
70
4
71
3
72
8
73
4
74
0
42
0.000000001
43
0.0000000001
44
0.0000000001
40
0
40
0
40
0
40
0
40
1
40
1
40
1
40
1
41
1
41
1
41
1
41
1
10
-58.440878423055061
20
13.936599063873301
30
0
10
-56.648051808675191
20
12.973516295750947
30
0
10
-55.607181879679402
20
11.443693653742484
30
0
10
-55.070095799764047
20
9.5027111117045209
30
0
0
SPLINE
5
660
100
AcDbEntity
8
0
100
AcDbSpline
70
4
71
3
72
8
73
4
74
0
42
0.000000001
43
0.0000000001
44
0.0000000001
40
0
40
0
40
0
40
0
40
1
40
1
40
1
40
1
41
1
41
1
41
1
41
1
10
-55.070095799764047
20
9.5027111117045209
30
0
10
-54.151469701131241
20
6.1874830754598058
30
0
10
-52.429023157755594
20
3.3352730464935387
30
0
10
-49.936126225789444
20
0.96460581461589479
30
0
0
SPLINE
5
661
100
AcDbEntity
8
0
100
AcDbSpline
70
4
71
3
72
8
73
4
74
0
42
0.000000001
43
0.0000000001
44
0.0000000001
40
0
40
0
40
0
40
0
40
1
40
1
40
1
40
1
41
1
41
1
41
1
41
1
10
-49.936126225789444
20
0.96460581461589479
30
0
10
-49.228640340169321
20
0.29044759432475198
30
0
10
-48.435943247477276
20
-0.29851637522379071
30
0
10
-47.676593602498414
20
-0.91711153030395121
30
0
0
SPLINE
5
662
100
AcDbEntity
8
0
100
AcDbSpline
70
4
71
3
72
8
73
4
74
0
42
0.000000001
43
0.0000000001
44
0.0000000001
40
0
40
0
40
0
40
0
40
1
40
1
40
1
40
1
41
1
41
1
41
1
41
1
10
-47.676593602498414
20
-0.91711153030395121
30
0
10
-43.564977645874066
20
-4.2730856259663854
30
0
10
-42.19072367350266
20
-8.5736233520507774
30
0
10
-43.235301386515381
20
-13.707598578135178
30
0
0
LINE
5
663
100
AcDbEntity
8
0
100
AcDbLine
10
-43.235301386515381
20
-13.707598578135178
30
0
11
-43.238963953654036
21
-13.703885142008472
31
0
0
SPLINE
5
664
100
AcDbEntity
8
0
100
AcDbSpline
70
4
71
3
72
8
73
4
74
0
42
0.000000001
43
0.0000000001
44
0.0000000001
40
0
40
0
40
0
40
0
40
1
40
1
40
1
40
1
41
1
41
1
41
1
41
1
10
-35.360205523173079
20
-30.002218475341806
30
0
10
-37.523437500000071
20
-29.583645833333346
30
0
10
-39.364408785502192
20
-28.568707784016937
30
0
10
-40.883119379679442
20
-26.975914986928309
30
0
0
SPLINE
5
665
100
AcDbEntity
8
0
100
AcDbSpline
70
4
71
3
72
8
73
4
74
0
42
0.000000001
43
0.0000000001
44
0.0000000001
40
0
40
0
40
0
40
0
40
1
40
1
40
1
40
1
41
1
41
1
41
1
41
1
10
-40.883119379679442
20
-26.975914986928309
30
0
10
-43.372308527628661
20
-24.360774224599211
30
0
10
-42.564802907308021
20
-20.915898094177248
30
0
10
-39.17920045216885
20
-19.678707784016936
30
0
0
SPLINE
5
666
100
AcDbEntity
8
0
100
AcDbSpline
70
4
71
3
72
8
73
4
74
0
42
0.000000001
43
0.0000000001
44
0.0000000001
40
0
40
0
40
0
40
0
40
1
40
1
40
1
40
1
41
1
41
1
41
1
41
1
10
-39.17920045216885
20
-19.678707784016936
30
0
10
-34.97867680867521
20
-18.145183010101324
30
0
10
-30.2077083333334
20
-19.326813081105556
30
0
10
-27.196219024658262
20
-22.649451033274339
30
0
0
SPLINE
5
667
100
AcDbEntity
8
0
100
AcDbSpline
70
4
71
3
72
8
73
4
74
0
42
0.000000001
43
0.0000000001
44
0.0000000001
40
0
40
0
40
0
40
0
40
1
40
1
40
1
40
1
41
1
41
1
41
1
41
1
10
-27.196219024658262
20
-22.649451033274339
30
0
10
-25.192263501485264
20
-24.860838985443124
30
0
10
-25.929389050801667
20
-28.179774805704763
30
0
10
-28.674177907308017
20
-29.368809140523279
30
0
0
SPLINE
5
668
100
AcDbEntity
8
0
100
AcDbSpline
70
4
71
3
72
8
73
4
74
0
42
0.000000001
43
0.0000000001
44
0.0000000001
40
0
40
0
40
0
40
0
40
1
40
1
40
1
40
1
41
1
41
1
41
1
41
1
10
-28.674177907308017
20
-29.368809140523279
30
0
10
-30.83740988413501
20
-30.305962855021168
30
0
10
-33.059909884134996
20
-30.557849127451597
30
0
10
-35.360205523173079
20
-30.002218475341806
30
0
0
SPLINE
5
669
100
AcDbEntity
8
0
100
AcDbSpline
70
4
71
3
72
8
73
4
74
0
42
0.000000001
43
0.0000000001
44
0.0000000001
40
0
40
0
40
0
40
0
40
1
40
1
40
1
40
1
41
1
41
1
41
1
41
1
10
-31.689375000000084
20
-13.033431879679373
30
0
10
-33.863719024658266
20
-12.614859237670901
30
0
10
-35.719510142008545
20
-11.585101356506355
30
0
10
-37.238220736185788
20
-9.9589724159240731
30
0
0
SPLINE
5
670
100
AcDbEntity
8
0
100
AcDbSpline
70
4
71
3
72
8
73
4
74
0
42
0.000000001
43
0.0000000001
44
0.0000000001
40
0
40
0
40
0
40
0
40
1
40
1
40
1
40
1
41
1
41
1
41
1
41
1
10
-37.238220736185788
20
-9.9589724159240731
30
0
10
-39.671849644978892
20
-7.3475337855021134
30
0
10
-38.87546737670904
20
-3.8989555231730124
30
0
10
-35.497257881164586
20
-2.7395495478312148
30
0
0
SPLINE
5
671
100
AcDbEntity
8
0
100
AcDbSpline
70
4
71
3
72
8
73
4
74
0
42
0.000000001
43
0.0000000001
44
0.0000000001
40
0
40
0
40
0
40
0
40
1
40
1
40
1
40
1
41
1
41
1
41
1
41
1
10
-35.497257881164586
20
-2.7395495478312148
30
0
10
-31.141154263814322
20
-1.2467708333333338
30
0
10
-27.214735336303747
20
-2.1098423449198411
30
0
10
-23.895805168151895
20
-5.3065343348185223
30
0
0
SPLINE
5
672
100
AcDbEntity
8
0
100
AcDbSpline
70
4
71
3
72
8
73
4
74
0
42
0.000000001
43
0.0000000001
44
0.0000000001
40
0
40
0
40
0
40
0
40
1
40
1
40
1
40
1
41
1
41
1
41
1
41
1
10
-23.895805168151895
20
-5.3065343348185223
30
0
10
-21.373268572489469
20
-7.7327646319071475
30
0
10
-22.058541666666727
20
-11.155411014556888
30
0
10
-25.273755620320703
20
-12.518547286987312
30
0
0
SPLINE
5
673
100
AcDbEntity
8
0
100
AcDbSpline
70
4
71
3
72
8
73
4
74
0
42
0.000000001
43
0.0000000001
44
0.0000000001
40
0
40
0
40
0
40
0
40
1
40
1
40
1
40
1
41
1
41
1
41
1
41
1
10
-25.273755620320703
20
-12.518547286987312
30
0
10
-27.344383430481042
20
-13.396432978312173
30
0
10
-29.4890990956625
20
-13.56682713190715
30
0
10
-31.693071479797439
20
-13.037128359476728
30
0
0
LINE
5
674
100
AcDbEntity
8
0
100
AcDbLine
10
-31.693071479797439
20
-13.037128359476728
30
0
11
-31.689375000000084
21
-13.033431879679373
31
0
0
SPLINE
5
675
100
AcDbEntity
8
0
100
AcDbSpline
70
4
71
3
72
8
73
4
74
0
42
0.000000001
43
0.0000000001
44
0.0000000001
40
0
40
0
40
0
40
0
40
1
40
1
40
1
40
1
41
1
41
1
41
1
41
1
10
-52.384448606672706
20
-39.965677286571477
30
0
10
-54.970081836959316
20
-39.318563200877598
30
0
10
-56.665157557460013
20
-38.151737142589106
30
0
10
-57.873431849275761
20
-36.303645161117686
30
0
0
SPLINE
5
676
100
AcDbEntity
8
0
100
AcDbSpline
70
4
71
3
72
8
73
4
74
0
42
0.000000001
43
0.0000000001
44
0.0000000001
40
0
40
0
40
0
40
0
40
1
40
1
40
1
40
1
41
1
41
1
41
1
41
1
10
-57.873431849275754
20
-36.303645161117679
30
0
10
-59.233272398113897
20
-34.010221516620291
30
0
10
-58.369133042209313
20
-31.165328554141194
30
0
10
-55.966475194295327
20
-30.002218475341785
30
0
0
SPLINE
5
677
100
AcDbEntity
8
0
100
AcDbSpline
70
4
71
3
72
8
73
4
74
0
42
0.000000001
43
0.0000000001
44
0.0000000001
40
0
40
0
40
0
40
0
40
1
40
1
40
1
40
1
41
1
41
1
41
1
41
1
10
-55.966475194295342
20
-30.002218475341792
30
0
10
-52.225275904337643
20
-27.87232264200847
30
0
10
-47.091283721923915
20
-28.994684689839684
30
0
10
-44.576162694295327
20
-32.491418927510587
30
0
0
SPLINE
5
678
100
AcDbEntity
8
0
100
AcDbSpline
70
4
71
3
72
8
73
4
74
0
42
0.000000001
43
0.0000000001
44
0.0000000001
40
0
40
0
40
0
40
0
40
1
40
1
40
1
40
1
41
1
41
1
41
1
41
1
10
-44.576162694295327
20
-32.491418927510587
30
0
10
-42.949519783985117
20
-34.81605353227755
30
0
10
-43.781079185144378
20
-37.902522528962493
30
0
10
-46.38592318066236
20
-39.129272317061179
30
0
0
SPLINE
5
679
100
AcDbEntity
8
0
100
AcDbSpline
70
4
71
3
72
8
73
4
74
0
42
0.000000001
43
0.0000000001
44
0.0000000001
40
0
40
0
40
0
40
0
40
1
40
1
40
1
40
1
41
1
41
1
41
1
41
1
10
-46.385923180662346
20
-39.129272317061186
30
0
10
-48.289085255798419
20
-40.094118990536742
30
0
10
-50.296705126980868
20
-40.338267405134758
30
0
10
-51.935754906176079
20
-40.016957561789901
30
0
0
LINE
5
680
100
AcDbEntity
8
0
100
AcDbLine
10
-51.935754906176079
20
-40.016957561789901
30
0
11
-52.384448606672706
21
-39.96567728657147
31
0
0
SPLINE
5
681
100
AcDbEntity
8
0
100
AcDbSpline
70
4
71
3
72
8
73
4
74
0
42
0.000000001
43
0.0000000001
44
0.0000000001
40
0
40
0
40
0
40
0
40
1
40
1
40
1
40
1
41
1
41
1
41
1
41
1
10
-42.950050710042369
20
2.9018947029113864
30
0
10
-44.946601969401087
20
3.379732542037972
30
0
10
-46.709788920084698
20
4.4613485304514615
30
0
10
-48.032156524658262
20
6.2134206072489508
30
0
0
SPLINE
5
682
100
AcDbEntity
8
0
100
AcDbSpline
70
4
71
3
72
8
73
4
74
0
42
0.000000001
43
0.0000000001
44
0.0000000001
40
0
40
0
40
0
40
0
40
1
40
1
40
1
40
1
41
1
41
1
41
1
41
1
10
-48.032156524658262
20
6.2134206072489508
30
0
10
-49.676807428995822
20
8.3914695898691942
30
0
10
-49.043386789957722
20
11.39184402465821
30
0
10
-46.672733688354533
20
12.747570381164559
30
0
0
SPLINE
5
683
100
AcDbEntity
8
0
100
AcDbSpline
70
4
71
3
72
8
73
4
74
0
42
0.000000001
43
0.0000000001
44
0.0000000001
40
0
40
0
40
0
40
0
40
1
40
1
40
1
40
1
41
1
41
1
41
1
41
1
10
-46.672733688354533
20
12.747570381164559
30
0
10
-42.93521957397467
20
14.884873304367076
30
0
10
-37.793845736185752
20
13.766216214497893
30
0
10
-35.282421188354547
20
10.269481976826995
30
0
0
SPLINE
5
684
100
AcDbEntity
8
0
100
AcDbSpline
70
4
71
3
72
8
73
4
74
0
42
0.000000001
43
0.0000000001
44
0.0000000001
40
0
40
0
40
0
40
0
40
1
40
1
40
1
40
1
41
1
41
1
41
1
41
1
10
-35.282421188354547
20
10.269481976826995
30
0
10
-33.659994379679397
20
8.0099408753713082
30
0
10
-34.40082771301276
20
4.9799324289957783
30
0
10
-36.890028165181519
20
3.6834740956624428
30
0
0
SPLINE
5
685
100
AcDbEntity
8
0
100
AcDbSpline
70
4
71
3
72
8
73
4
74
0
42
0.000000001
43
0.0000000001
44
0.0000000001
40
0
40
0
40
0
40
0
40
1
40
1
40
1
40
1
41
1
41
1
41
1
41
1
10
-36.890028165181519
20
3.6834740956624428
30
0
10
-38.67913569132493
20
2.7537274710337414
30
0
10
-40.846086756388402
20
2.4573958333333397
30
0
10
-42.950050710042369
20
2.9055996608734178
30
0
0
LINE
5
686
100
AcDbEntity
8
0
100
AcDbLine
10
-42.950050710042369
20
2.9055996608734174
30
0
11
-42.950050710042369
21
2.9018947029113864
31
0
0
SPLINE
5
687
100
AcDbEntity
8
0
100
AcDbSpline
70
4
71
3
72
8
73
4
74
0
42
0.000000001
43
0.0000000001
44
0.0000000001
40
0
40
0
40
0
40
0
40
0.80617510594716535
40
0.80617510594716535
40
0.80617510594716535
40
0.80617510594716535
41
1
41
1
41
1
41
1
10
-15.697846221923868
20
37.458695528537774
30
0
10
-18.14355044707904
20
39.232502476862898
30
0
10
-19.486658743621518
20
42.070382537028365
30
0
10
-19.377837104155134
20
45.000000060814884
30
0
0
SPLINE
5
688
100
AcDbEntity
8
0
100
AcDbSpline
70
4
71
3
72
8
73
4
74
0
42
0.000000001
43
0.0000000001
44
0.0000000001
40
0.38452761721683371
40
0.38452761721683371
40
0.38452761721683371
40
0.38452761721683371
40
1
40
1
40
1
40
1
41
1
41
1
41
1
41
1
10
10.970053146533164
20
45.000000000000014
30
0
10
13.378501782597624
20
43.565098500892077
30
0
10
15.134039441974936
20
41.311173703871063
30
0
10
16.287623901367159
20
38.299541884691259
30
0
0
LINE
5
689
100
AcDbEntity
8
0
100
AcDbLine
10
-19.377837104155134
20
45.00000006081487
30
0
11
10.970053146533164
21
45.000000000000014
31
0
0
ENDSEC
0
SECTION
2
OBJECTS
0
DICTIONARY
5
C
100
AcDbDictionary
3
ACAD_GROUP
350
D
3
ACAD_MLINESTYLE
350
17
0
DICTIONARY
5
D
100
AcDbDictionary
0
DICTIONARY
5
1A
330
C
100
AcDbDictionary
0
DICTIONARY
5
17
100
AcDbDictionary
0
ENDSEC
0
EOF
