<?xml version="1.0" encoding="UTF-8"?>
<svg id="Layer_1" data-name="Layer 1" xmlns="http://www.w3.org/2000/svg" viewBox="0 0 1063.99 270.29">
  <defs>
    <style>
      .cls-1, .cls-2 {
        font-family: GTUltraTrialVF-Regular, 'CAQBU Y+ GT Ultra Trial VF';
      }

      .cls-3 {
        font-size: 14px;
      }

      .cls-2 {
        font-size: 25.12px;
      }

      .cls-4 {
        font-family: MyriadPro-Regular, 'Myriad Pro';
      }
    </style>
  </defs>
  <g>
    <g>
      <path d="M123.16,72.12c.79,1.55,1.49,3.13,2.09,4.75,1.46,3.4,2.74,6.53,3.85,9.39,1.1,2.32,2.12,4.17,3.04,5.55.21.37.32.58.33.62l.06-.02c.23-4.02.35-6.67.38-7.94-.04-2.65-.03-4.28.03-4.91.64-.21,1.15-.37,1.53-.47l.54-.14c.25-.07.66-.15,1.22-.25.12.1,1.01,1.62,2.68,4.53,1.67,2.69,3.63,5.76,5.86,9.2.06-.02.01-.72-.15-2.12-.46-6.48-.84-10.9-1.12-13.28-.22-1.61-.53-3.46-.92-5.57.18-.16,1.08-.54,2.7-1.15.67-.29,1.69-.64,3.07-1.04l.05.05c.26,2.63.59,5.44.99,8.42.68,6.69,1.43,15.32,2.27,25.89-.77.34-2,.81-3.68,1.41-5.1-8.19-8.31-13.39-9.64-15.61l-.09.02c-.25,2.05-.37,4.87-.34,8.47-.11,2.57-.09,5.95.06,10.12-.39.15-.81.28-1.25.39-.17.04-.82.2-1.97.48-2.48-5.5-5.33-11.56-8.56-18.19-4.82-10.81-7.24-16.27-7.28-16.4h.03c1.78-1.22,3.18-1.96,4.21-2.23Z"/>
      <path d="M164.27,69.72c3.07.07,4.76.1,5.06.1l1.14-.03s.47,1.69,1.27,4.93c1.2,4.4,2.2,8.32,3.01,11.76,1.33,4.79,2.64,9.63,3.92,14.51.17.44.39,1.16.65,2.16v.03l-6.6.85c-.52-1.39-1.17-3.56-1.93-6.5-.2-.52-.31-.81-.33-.85-1.24-.07-2.28-.1-3.1-.1-.72,0-2.15.11-4.28.33-.85,2.33-1.47,4.56-1.86,6.7l-.16.75c-2.18-.28-4.03-.74-5.55-1.37.37-1.68,1.75-7.42,4.15-17.22.78-3.29,2.29-8.63,4.51-16.01l.1-.03ZM166.43,79.13c-.94,2.66-1.63,4.88-2.09,6.67-.39,1.55-.82,3.28-1.27,5.2-.09.28-.19.68-.29,1.18.35.07,1.02.1,2.03.1h4.25c.2,0,.51-.01.95-.03-.57-2.07-1.27-4.78-2.12-8.14-.28-.85-.59-1.94-.91-3.27-.02-.04-.19-.61-.49-1.7h-.03Z"/>
      <path d="M187.21,63.57s.29.97.75,2.75c.91,2.62,1.6,4.92,2.06,6.9.45,2.88,1.21,5.54,2.29,7.97h.03c.66-.75,1.23-1.78,1.71-3.09.33-.82,2.25-4.94,5.76-12.36h.06s3.88,2.18,3.88,2.18c0,.02.02.03.06.04-.74,1.27-1.35,2.36-1.83,3.29-1.57,3.27-3.55,7.1-5.92,11.49l-1.91,3.84c-.27,3.12-.51,6.42-.73,9.87-.29,2.82-.49,4.22-.6,4.21-2.28-.15-3.66-.25-4.14-.29-.35-.03-1.27-.13-2.76-.31l-.02-.1.34-3.97c.3-3.01.47-4.62.48-4.81.17-1.97.3-3.72.39-5.25-.97-1.72-1.98-4.54-3.04-8.46-.61-2.02-1.29-4.63-2.04-7.82-.87-2.85-1.3-4.33-1.29-4.44,1.85-.63,3.52-1.08,5.01-1.37.89-.19,1.37-.28,1.43-.27Z"/>
      <path d="M91.86,94.37l2.58.5c.38,1.03.98,4.14,1.8,9.32.27,1.8.82,6.74,1.66,14.83.49,4.95,1.2,9.31,2.13,13.06.07.06.19.52.36,1.38l.12.02c2.72-3.54,6.52-10.65,11.38-21.32,1.81-3.34,3.52-5.93,5.13-7.78,6.24,1.84,9.92,2.97,11.05,3.4l-3.89,23.16c-.77,3.96-2.44,12.64-5.02,26.05-1.79,8.54-2.8,12.78-3.04,12.73-2.1-.08-4.07-.29-5.91-.65-2.98-.71-4.44-1.2-4.38-1.48,1.91-11.5,3.34-19.69,4.29-24.57l1.17-6c.51-2.6.94-5.57,1.3-8.9l-.12-.02c-2.75,4.53-4.99,8.74-6.7,12.65-2.83,4.72-5.37,9.11-7.61,13.15-.37.63-.79,1.19-1.26,1.68l-7.68-1.5c-.12-.02-.23-.96-.32-2.8-1.55-15.29-2.31-22.96-2.31-22.99-.13-4.47-.9-8.5-2.31-12.1l-6.03,29.34-.15.47c-.02.33-.07.67-.14,1.03l-.05.24c-.56,2.88-1.5,8.53-2.81,16.95-.97,3.5-1.74,5.2-2.3,5.09-2.24-.23-4.54-.57-6.9-1.03l-2.1-.41-.11-.08c.31-2.22.67-4.38,1.07-6.45,1.05-5.4,4.85-23.49,11.39-54.27,2.01-9.7,3.16-14.52,3.44-14.46l12.3,1.77Z"/>
      <path d="M140.98,113.75c5.75.12,8.9.18,9.47.18l2.14-.06c.08.08.88,3.16,2.38,9.23,2.24,8.23,4.12,15.57,5.62,22.01,2.48,8.97,4.93,18.01,7.33,27.14.33.82.73,2.16,1.22,4.04v.06l-12.35,1.59c-.98-2.61-2.18-6.66-3.61-12.17-.37-.98-.57-1.51-.61-1.59-2.32-.12-4.26-.18-5.81-.18-1.35,0-4.02.2-8.01.61-1.59,4.36-2.75,8.54-3.48,12.53l-.31,1.41c-4.08-.53-7.54-1.39-10.39-2.57.69-3.14,3.28-13.88,7.76-32.22,1.47-6.15,4.28-16.14,8.44-29.95l.18-.06ZM145.01,131.35c-1.75,4.97-3.06,9.13-3.91,12.47-.73,2.89-1.53,6.13-2.38,9.72-.16.53-.35,1.26-.55,2.2.65.12,1.92.18,3.79.18h7.95c.37,0,.96-.02,1.77-.06-1.06-3.87-2.38-8.94-3.97-15.22-.53-1.59-1.1-3.63-1.71-6.11-.04-.08-.35-1.14-.92-3.18h-.06Z"/>
      <path d="M191.03,105.64c.47.06,2.82.7,7.04,1.93.58.16.93.22,1.05.19l.06.24c-.99,3.66-1.84,7.27-2.55,10.83l-7.04,25.44c9.82,9.97,17.18,17.98,22.07,24.03.54.54.84.91.89,1.11-5.84,2.25-9.55,3.55-11.14,3.92-3.95-4.56-7.67-9.15-11.13-13.78-2.99-3.28-6.01-6.46-9.08-9.55,2.66,12.44,4.2,19.57,4.63,21.39l-.17.1c-2.98.66-5.37,1.19-7.16,1.61l-.54.13c-.12.03-.19,0-.21-.08l-.42-1.79c-.82-3.49-1.62-6.57-2.41-9.23-1.82-7.78-3.66-17.06-5.51-27.84.04,0-.27-1.59-.92-4.74-.48-2.06-1.84-7.15-4.07-15.24l-.52-2.2s.05-.03.05-.07c2.13-.37,4.39-.84,6.77-1.4l4.05-.95.21.08c1.09,5.4,1.96,9.8,2.59,13.21,1.7,6.38,3.29,12.18,4.76,17.41.69-1.5,1.7-5.06,3.02-10.69.78-3.11,1.96-8.45,3.53-16.02l2.14-8.03Z"/>
      <path d="M208.38,89.11c16.87.29,25.31.53,25.31.73-.04.86-.06,1.49-.06,1.89v.98c0,.33.1,1.55.3,3.67-.04,2.24-.06,3.73-.06,4.46-.08,0-.12.02-.12.06-1.14-.25-5.46-.51-12.96-.8-1.79.08-3.24.16-4.34.25.12,1.22.2,2.36.25,3.42,0,.41-.02,1.53-.06,3.36,0,1.63.12,3.75.37,6.36,3.02,0,6.19.22,9.54.67h4.16c.16,0,.55,2.57,1.16,7.7,0,.12.02.31.06.55l-.12.06c-.24,0-.77.02-1.59.06-1.26-.08-2.32-.12-3.18-.12h-3.85c-3.34.08-5.01.24-5.01.49-.29,1.35-.43,3.79-.43,7.34.04,2.69.06,4.65.06,5.87,0,.81-.08,2.41-.24,4.77.94.12,5.48.25,13.63.37,1.59-.04,2.73-.1,3.42-.18,0,.04.02.06.06.06-.04,1.87-.06,3.28-.06,4.22v5.14c0,.45.02,1.14.06,2.08l-.12.06h-16.63c-2.32,0-5.07-.02-8.25-.06-.16.04-1.39.06-3.67.06,0-.04-.02-.06-.06-.06.08-1.14.2-3.1.37-5.87,0-13.73-.18-23.27-.55-28.61v-1.83c.04-8.44.06-13.1.06-14-.04-4.12-.12-8.46-.24-13.02l.12-.06c1.18,0,2.08-.02,2.69-.06Z"/>
      <path d="M265.61,107l5.95,1.66c4.83,1.34,7.56,2.57,8.18,3.67,1.02.75,2.07,1.99,3.15,3.73,1.84,2.97,2.04,7.02.61,12.16-.42,1.66-.89,3.41-1.4,5.26l-.43,1.53c-.98,3.53-2.03,5.55-3.14,6.04-3.21,1.94-5.26,2.79-6.16,2.54-.63.12-1.08.16-1.37.13l-.03.12c1.97,1.9,2.99,3.71,3.06,5.42.3,1.65.35,3.84.14,6.57-1.45,13.56-2.46,21.38-3.04,23.46-.98,3.37-1.57,5.02-1.76,4.97-5.15-1.56-8.02-2.42-8.61-2.59l-.65-.18c-.27-.08.06-2.27,1.01-6.57.81-2.78,1.44-4.93,1.86-6.46.81-2.9,1.07-6.87.78-11.9-.36-2.22-1.35-3.97-2.97-5.27-.76-.76-3.38-1.93-7.84-3.52l-.24-.07-2.2-.3-.02.06c-.9,6.56-1.98,12.14-3.26,16.73-.39,1.41-.85,3.51-1.37,6.28-.33.29-3.01-.27-8.04-1.67-.01.04-.84-.11-2.48-.44.36-2.52.97-5.29,1.81-8.32l.15-.53c.54-1.92,1.05-3.7,1.55-5.34.22-.78,2.57-11.28,7.05-31.48,2.3-8.24,3.91-14.5,4.84-18.77,6.47,1.08,11.43,2.1,14.88,3.07ZM259.32,115.46c-.64,2.45-1.12,4.26-1.45,5.44l-.39,1.41c-.6,2.16-1.42,6.69-2.45,13.6,3.13,1.08,5.4,1.82,6.81,2.21,1.61.45,3.47.16,5.57-.86.41-.56.76-1.37,1.06-2.43l.31-1.12c1.93-7.71,2.69-11.63,2.26-11.75-.01-1.32-.46-2.45-1.33-3.42-1.25-1.15-2.71-1.96-4.4-2.43-1.53-.43-3.52-.64-5.98-.65Z"/>
    </g>
    <g>
      <path d="M89.35,204.96v-7.98h4.92v1.08h-3.73v6.02h0v.88h-1.2ZM90.44,200.37h3.19v1.08h-3.19v-1.08Z"/>
      <path d="M95.72,204.96v-7.98h1.2v7.98h-1.2Z"/>
      <path d="M99.18,204.96v-7.98h1.15l4.51,6.37-.28.05v-5.54h0v-.88h1.16v7.98h-1.16l-4.46-6.3.23-.05v5.47h0v.88h-1.15Z"/>
      <path d="M107.98,204.96v-7.98h2.73c.76,0,1.45.16,2.06.47.62.31,1.1.77,1.46,1.37.36.6.54,1.32.54,2.15s-.18,1.55-.54,2.15c-.36.6-.85,1.06-1.46,1.37-.62.31-1.3.47-2.06.47h-2.73ZM113.15,199.37c-.26-.44-.61-.77-1.05-.99s-.91-.32-1.42-.32h-1.85l.34-.23v6.31l-.34-.25h1.85c.51,0,.98-.11,1.42-.32s.79-.54,1.05-.99.39-.98.39-1.61-.13-1.17-.39-1.61Z"/>
      <path d="M118.22,196.99h6.43v1.12h-6.43v-1.12ZM120.84,204.96v-7.88h1.18v7.88h-1.18Z"/>
      <path d="M126.03,204.96v-7.98h1.2v7.98h-1.2ZM127.05,200.22h4.36v1.12h-4.36v-1.12ZM131.24,204.96v-7.98h1.2v7.98h-1.2Z"/>
      <path d="M134.7,204.96v-7.98h4.93v1.08h-3.74v5.81h3.74v1.08h-4.93ZM135.8,200.26h3.19v1.08h-3.19v-1.08Z"/>
      <path d="M143.5,198.06c-.06-.23-.11-.41-.15-.54-.04-.13-.1-.31-.17-.54h1.26v.02c.06.17.1.31.13.39.02.09.05.17.07.26.02.09.06.22.1.41l1.62,5.72h-.27l2.11-6.8h1.2l2.12,6.8h-.25l1.61-5.76c.05-.17.09-.29.11-.38.02-.09.04-.17.06-.26.02-.08.06-.21.11-.39h0s1.25-.01,1.25-.01c-.08.27-.14.47-.18.6-.04.13-.09.33-.17.59l-2.05,6.79h-1.18l-2.16-6.77h.3l-2.18,6.77h-1.19l-2.06-6.85s-.02-.04-.02-.06Z"/>
      <path d="M154.53,204.36c.05-.13.13-.33.23-.59l2.7-6.79h1.21l2.71,6.82c.11.26.18.45.23.58s.12.32.22.57h-1.3c-.07-.18-.12-.32-.15-.4s-.06-.17-.1-.26c-.03-.09-.09-.22-.15-.39h0s-2.26-6.08-2.26-6.08h.34l-2.27,6.11c-.06.17-.11.3-.14.39-.03.08-.06.17-.1.26-.03.09-.08.22-.14.39h-1.29c.11-.27.18-.46.23-.6ZM156.19,201.76h3.76l.17,1.07h-4.1l.17-1.07Z"/>
      <path d="M164.01,204.96v-3.51l-2.04-3.26c-.17-.27-.3-.48-.39-.61-.08-.13-.21-.33-.38-.6h1.38c.12.2.21.34.27.44.06.1.15.24.26.43.05.07.08.12.1.16s.05.09.1.16l1.58,2.56h-.56l1.63-2.61c.04-.07.07-.12.09-.15.02-.03.05-.08.09-.15.12-.19.21-.33.27-.43.06-.1.14-.23.26-.42h1.34c-.17.27-.29.46-.38.59-.08.13-.2.32-.36.58l-2.06,3.29v2.63h0v.88h-1.21Z"/>
      <path d="M168.35,205.94c.22-.28.33-.61.35-.97-.06.02-.11.04-.16.05-.05.01-.1.02-.16.02-.2,0-.39-.08-.54-.24-.16-.16-.23-.35-.23-.57,0-.24.08-.44.25-.59s.36-.23.6-.23c.31,0,.56.11.75.33s.28.52.28.89-.09.71-.26,1.02-.41.56-.73.75-.67.3-1.08.33c.4-.24.71-.5.93-.78Z"/>
      <path d="M174.13,204.96v-7.98h1.03l3.18,4.59-.55-.05,3.14-4.55h1.03v7.98h-1.15v-6.4l.25.1-3.01,4.47-3.05-4.51.28-.06v5.53h0v.88h-1.15Z"/>
      <path d="M183.4,204.36c.05-.13.13-.33.23-.59l2.7-6.79h1.21l2.71,6.82c.11.26.18.45.23.58s.12.32.22.57h-1.3c-.07-.18-.12-.32-.15-.4s-.06-.17-.1-.26c-.03-.09-.09-.22-.15-.39h0s-2.26-6.08-2.26-6.08h.34l-2.27,6.11c-.06.17-.11.3-.14.39-.03.08-.06.17-.1.26-.03.09-.08.22-.14.39h-1.29c.11-.27.18-.46.23-.6ZM185.06,201.76h3.76l.17,1.07h-4.1l.17-1.07Z"/>
      <path d="M191.93,204.96v-7.98h1.2v7.98h-1.2ZM192.95,200.72l2.52-2.47c.21-.21.37-.37.47-.48.1-.11.21-.21.31-.31.11-.1.26-.26.47-.47h1.53c-.14.15-.25.27-.34.36-.09.09-.19.18-.31.29-.1.1-.19.19-.27.27-.08.08-.18.19-.31.31l-2.9,2.82.02-.71,3.4,3.63c.17.17.3.32.41.44s.24.26.4.43l.13.14h-1.61l-3.91-4.24Z"/>
      <path d="M199.73,204.96v-7.98h4.93v1.08h-3.74v5.81h3.74v1.08h-4.93ZM200.84,200.26h3.19v1.08h-3.19v-1.08Z"/>
      <path d="M208.11,196.99h6.43v1.12h-6.43v-1.12ZM210.73,204.96v-7.88h1.18v7.88h-1.18Z"/>
      <path d="M215.91,204.96v-7.98h1.2v7.98h-1.2ZM216.94,200.22h4.36v1.12h-4.36v-1.12ZM221.13,204.96v-7.98h1.2v7.98h-1.2Z"/>
      <path d="M224.58,204.96v-7.98h4.93v1.08h-3.74v5.81h3.74v1.08h-4.93ZM225.69,200.26h3.19v1.08h-3.19v-1.08Z"/>
      <path d="M233.39,198.06c-.06-.23-.11-.41-.15-.54-.04-.13-.1-.31-.17-.54h1.26v.02c.06.17.1.31.13.39.02.09.05.17.07.26.02.09.06.22.1.41l1.62,5.72h-.27l2.11-6.8h1.2l2.12,6.8h-.25l1.61-5.76c.05-.17.09-.29.11-.38.02-.09.04-.17.06-.26.02-.08.06-.21.11-.39h0s1.25-.01,1.25-.01c-.08.27-.14.47-.18.6-.04.13-.09.33-.17.59l-2.05,6.79h-1.18l-2.16-6.77h.3l-2.18,6.77h-1.19l-2.06-6.85s-.02-.04-.02-.06Z"/>
      <path d="M244.41,204.36c.05-.13.13-.33.23-.59l2.7-6.79h1.21l2.71,6.82c.11.26.18.45.23.58s.12.32.22.57h-1.3c-.07-.18-.12-.32-.15-.4s-.06-.17-.1-.26c-.03-.09-.09-.22-.15-.39h0s-2.26-6.08-2.26-6.08h.34l-2.27,6.11c-.06.17-.11.3-.14.39-.03.08-.06.17-.1.26-.03.09-.08.22-.14.39h-1.29c.11-.27.18-.46.23-.6ZM246.07,201.76h3.76l.17,1.07h-4.1l.17-1.07Z"/>
      <path d="M253.9,204.96v-3.51l-2.04-3.26c-.17-.27-.3-.48-.39-.61-.08-.13-.21-.33-.38-.6h1.38c.12.2.21.34.27.44.06.1.15.24.26.43.05.07.08.12.1.16s.05.09.1.16l1.58,2.56h-.56l1.63-2.61c.04-.07.07-.12.09-.15.02-.03.05-.08.09-.15.12-.19.21-.33.27-.43.06-.1.14-.23.26-.42h1.34c-.17.27-.29.46-.38.59-.08.13-.2.32-.36.58l-2.06,3.29v2.63h0v.88h-1.21Z"/>
      <path d="M257.74,204.88c-.17-.17-.25-.37-.25-.62s.08-.45.25-.61c.17-.17.37-.25.62-.25s.45.08.61.25c.16.17.25.38.25.63,0,.24-.08.44-.25.6s-.37.25-.61.25-.45-.08-.62-.25Z"/>
    </g>
  </g>
  <text transform="translate(591.83 173.34)"><tspan class="cls-2"><tspan x="0" y="0">The Imaginative and Innovative Kids Toy, </tspan></tspan><tspan class="cls-2"><tspan x="262.2" y="25.12" xml:space="preserve"> from ID and ISE.</tspan></tspan><tspan class="cls-3"><tspan class="cls-4" x="283.48" y="50.23">©</tspan><tspan class="cls-1" x="292.96" y="50.23">2025 All rights reserved.</tspan></tspan></text>
</svg>